<svg width="149" height="34" viewBox="0 0 149 34" fill="none" xmlns="http://www.w3.org/2000/svg">
<path d="M148.619 12.335C148.41 13.5416 148.011 14.7059 147.437 15.7828C146.436 17.6551 144.914 19.1835 143.063 20.1754C142.307 20.5701 141.507 20.8727 140.682 21.0769C139.975 21.2498 139.252 21.3402 138.525 21.3464C136.213 21.3826 133.958 20.6108 132.135 19.1593C131.463 18.6299 130.862 18.0123 130.348 17.3224C128.867 15.383 128.092 12.9799 128.155 10.5228C128.157 10.06 128.212 9.59899 128.319 9.14898C128.401 8.83921 128.388 8.49381 128.47 8.17784C128.584 7.69509 128.726 7.21975 128.896 6.75442C129.248 5.80746 129.738 4.91986 130.349 4.12134C130.997 3.27186 131.764 2.52538 132.627 1.90645C134.264 0.723496 136.208 0.0611544 138.214 0.00288682C139.171 -0.0198867 140.128 0.092171 141.055 0.335894C142.334 0.658139 143.533 1.24782 144.576 2.06753C146.055 3.19623 147.209 4.70964 147.917 6.4493C148.432 7.68429 148.707 9.00925 148.727 10.3509C148.737 11.0123 148.664 11.6752 148.629 12.3366M142.726 2.82648C142.113 2.72242 141.485 2.74323 140.88 2.88771C140.275 3.03219 139.704 3.29749 139.199 3.66828C138.695 4.03908 138.268 4.50803 137.942 5.04809C137.617 5.58814 137.399 6.18861 137.302 6.81483C136.862 9.49438 138.529 11.9509 141.111 12.3908C143.655 12.8276 146.114 11.13 146.541 8.26148C146.723 7.02712 146.427 5.76901 145.714 4.75385C145.002 3.73869 143.93 3.04628 142.726 2.82338" fill="url(#paint0_linear_0_2073)"/>
<path d="M17.3143 21.0288V14.0341H2.12632V21.0288H0V9.41222C0 7.80243 0.226301 6.40586 0.678903 5.22252C1.09012 4.10132 1.75884 3.09697 2.62904 2.2936C3.51934 1.50045 4.56755 0.913388 5.70157 0.572803C7.00658 0.178488 8.36237 -0.0131419 9.72335 0.00436499C11.0843 -0.0130241 12.4401 0.178604 13.7451 0.572803C14.8758 0.915573 15.9207 1.50305 16.8085 2.29515C17.6787 3.09852 18.3475 4.10287 18.7587 5.22407C19.2113 6.40844 19.4376 7.80501 19.4376 9.41377V21.0303L17.3143 21.0288ZM2.12632 11.9741H17.3143V9.59499C17.3143 8.22269 17.1402 7.0569 16.7918 6.09764C16.4883 5.20904 15.9738 4.41087 15.2943 3.77433C14.6089 3.16337 13.792 2.72561 12.9098 2.49651C11.8682 2.22343 10.7957 2.09218 9.72031 2.10619C8.64492 2.09218 7.57245 2.22343 6.53084 2.49651C5.64864 2.72561 4.83175 3.16337 4.14632 3.77433C3.46679 4.41087 2.95232 5.20904 2.64879 6.09764C2.30047 7.0569 2.12632 8.22269 2.12632 9.59499V11.9741Z" fill="#272D36"/>
<path d="M25.3914 0.362183H23.2681V21.0272H25.3914V0.362183Z" fill="url(#paint1_linear_0_2073)"/>
<path d="M42.836 3.98019C43.3038 2.83959 44.0757 1.8555 45.064 1.13956C46.0867 0.382675 47.4217 0.00371813 49.0691 0.00268555C50.3925 0.00268555 51.5179 0.245339 52.4454 0.730653C53.345 1.19154 54.1219 1.86748 54.7099 2.70082C55.3145 3.58955 55.7456 4.58869 55.9797 5.64368C56.2539 6.84283 56.3885 8.0708 56.3806 9.30212V21.0193H54.2923V9.31141C54.2968 8.35399 54.2093 7.39841 54.031 6.45839C53.8853 5.64538 53.5895 4.86801 53.1592 4.1676C52.7592 3.53486 52.2085 3.01584 51.5584 2.659C50.8962 2.2914 50.0665 2.10812 49.0691 2.10915C48.094 2.10915 47.2759 2.28056 46.6147 2.62338C45.9641 2.9562 45.4114 3.45848 45.0124 4.07932C44.5878 4.75193 44.2867 5.49773 44.1239 6.28027C43.932 7.18446 43.8388 8.10752 43.846 9.03261V21.0348H41.7576V9.02642C41.7653 8.10138 41.6726 7.17832 41.4812 6.27407C41.3191 5.49131 41.018 4.7454 40.5927 4.07312C40.1939 3.45268 39.6418 2.95048 38.9919 2.61718C38.3297 2.2754 37.5116 2.10399 36.5375 2.10296C35.5381 2.10296 34.7084 2.28624 34.0482 2.65281C33.3974 3.00915 32.8461 3.52826 32.4459 4.16141C32.0138 4.86325 31.7173 5.64293 31.5726 6.45839C31.3915 7.39809 31.302 8.35375 31.3052 9.31141V21.0286H29.2215V9.31141C29.2136 8.0801 29.3482 6.85213 29.6224 5.65297C29.8563 4.59767 30.288 3.5984 30.8937 2.71011C31.4808 1.87655 32.2573 1.20053 33.1567 0.739946C34.0852 0.255665 35.2111 0.013011 36.5345 0.0119784C38.1819 0.0119784 39.5225 0.390935 40.5563 1.14885C41.5509 1.85838 42.329 2.83977 42.801 3.98019H42.836Z" fill="#272D36"/>
<path d="M69.8907 0.00740051C70.9002 0.010929 71.9076 0.100038 72.9025 0.273807C73.8901 0.436945 74.8471 0.754589 75.7396 1.21552C76.5758 1.64648 77.2982 2.27594 77.8462 3.05094C78.3919 3.82124 78.6648 4.79807 78.6648 5.98141C78.6648 7.11725 78.3747 8.06412 77.7946 8.82204C77.1953 9.59269 76.3824 10.1615 75.4617 10.4545C76.4734 10.757 77.3793 11.3482 78.0725 12.1583C78.7225 12.9389 79.0476 13.9328 79.0476 15.1399C79.0476 16.3243 78.8273 17.3011 78.3869 18.0704C77.9551 18.8297 77.3294 19.4555 76.5765 19.881C75.7312 20.3461 74.8109 20.6525 73.8593 20.7855C72.7442 20.9546 71.618 21.0359 70.4907 21.0287H60.2114V9.24643C60.2114 6.3108 61.0179 4.03912 62.6309 2.43139C64.2438 0.823656 66.6638 0.0187585 69.8907 0.0166934M70.8658 9.53297C71.6287 9.53858 72.3907 9.47952 73.144 9.3564C73.7668 9.25585 74.3717 9.06223 74.9392 8.78177C75.4198 8.54782 75.8292 8.18546 76.1239 7.73318C76.415 7.24793 76.5602 6.68626 76.5416 6.1177C76.5416 5.31435 76.3497 4.65195 75.9659 4.1305C75.575 3.59919 75.061 3.17504 74.4699 2.89605C73.7949 2.58392 73.0784 2.37516 72.3436 2.2765C71.5307 2.1579 70.7104 2.09889 69.8892 2.09993C67.5219 2.09993 65.6705 2.65029 64.335 3.75102C62.9994 4.85176 62.3327 6.52867 62.3347 8.78177V9.52677L70.8658 9.53297ZM70.4481 18.9424C71.2971 18.9458 72.1455 18.8988 72.9891 18.8014C73.6926 18.7305 74.3804 18.5443 75.0258 18.25C75.5696 18.0005 76.0341 17.6008 76.3669 17.0961C76.6919 16.5984 76.8544 15.9474 76.8544 15.143C76.8778 14.5293 76.7332 13.9211 76.4368 13.3866C76.1517 12.9196 75.7488 12.5393 75.2703 12.2853C74.7003 11.9914 74.0828 11.8051 73.4478 11.7355C72.6623 11.6367 71.8714 11.5891 71.0799 11.593H62.3347V18.9424H70.4481Z" fill="#272D36"/>
<path d="M82.2503 21.0286V9.24629C82.2503 6.28691 83.0689 4.00852 84.7062 2.41111C86.3435 0.813706 88.7979 0.0144908 92.0693 0.0134583C93.6894 0.0134583 95.0882 0.191058 96.2658 0.546266C97.3163 0.839969 98.3026 1.334 99.1728 2.00221C99.9137 2.58564 100.5 3.34857 100.878 4.22174C101.255 5.11262 101.445 6.0738 101.436 7.04379C101.436 8.53484 101.006 9.7662 100.148 10.7379C99.2847 11.7097 98.1769 12.4217 96.9447 12.7963C98.3698 13.4493 99.5751 14.5152 100.411 15.8615C101.256 17.2225 101.679 18.9448 101.68 21.0286H99.4507C99.4507 18.5421 98.8007 16.6897 97.5006 15.4712C96.2005 14.2528 94.2974 13.643 91.7914 13.642H84.3751V21.0286H82.2503ZM92.0693 2.10289C89.6545 2.10289 87.7686 2.64138 86.4118 3.71836C85.055 4.79534 84.3761 6.4831 84.3751 8.78163V11.5866H92.5219C93.3629 11.588 94.2023 11.5108 95.0295 11.3559C95.7847 11.2223 96.5136 10.9644 97.1877 10.5923C97.7893 10.2609 98.3031 9.78578 98.6852 9.20757C99.0558 8.63965 99.2416 7.92923 99.2426 7.07632C99.2426 6.15319 99.0685 5.37204 98.7202 4.73287C98.3747 4.09435 97.8702 3.56008 97.2576 3.184C96.5596 2.76703 95.7926 2.48408 94.9946 2.34916C94.0288 2.17646 93.0498 2.09351 92.0693 2.10134" fill="#272D36"/>
<path d="M124.417 0.362583V11.406C124.417 14.6494 123.61 17.1229 121.996 18.8267C120.382 20.5305 117.916 21.3829 114.598 21.3839C112.508 21.3839 110.691 20.9709 109.148 20.1448C107.632 19.3455 106.414 18.0601 105.684 16.4864L107.737 15.557C108.412 16.8601 109.329 17.807 110.489 18.3977C111.65 18.9883 113.017 19.2841 114.59 19.2852C117.213 19.2852 119.151 18.6465 120.404 17.3692C121.658 16.0919 122.284 14.0913 122.284 11.3673C121.659 12.3152 120.713 13.1145 119.447 13.765C118.182 14.4155 116.598 14.7408 114.695 14.7408C113.334 14.7591 111.978 14.5675 110.673 14.1723C109.542 13.8307 108.496 13.2431 107.608 12.45C106.737 11.6472 106.069 10.6427 105.658 9.52107C105.206 8.33773 104.979 6.94116 104.979 5.33137V0.359482H107.106V5.15325C107.106 6.55033 107.28 7.72799 107.628 8.68623C107.931 9.57614 108.454 10.3711 109.147 10.994C109.839 11.5909 110.654 12.0217 111.531 12.2548C113.613 12.7752 115.787 12.7752 117.869 12.2548C118.747 12.0217 119.561 11.5909 120.254 10.994C120.947 10.3711 121.47 9.57614 121.773 8.68623C122.122 7.72799 122.296 6.55033 122.295 5.15325V0.362583H124.417Z" fill="#272D36"/>
<path d="M15.3218 31.3566V22.4531H20.5908V23.4095H16.379V26.4179H20.318V27.3744H16.379V30.4002H20.659V31.3566H15.3218Z" fill="#272D36"/>
<path d="M22.36 31.3566V24.679H23.3319V25.7223H23.4172C23.5536 25.3659 23.7739 25.0891 24.078 24.892C24.3821 24.692 24.7473 24.592 25.1736 24.592C25.6055 24.592 25.965 24.692 26.2521 24.892C26.542 25.0891 26.7679 25.3659 26.9299 25.7223H26.9981C27.1658 25.3775 27.4173 25.1036 27.7527 24.9007C28.088 24.6949 28.4902 24.592 28.9591 24.592C29.5445 24.592 30.0234 24.779 30.3957 25.1528C30.768 25.5238 30.9542 26.102 30.9542 26.8875V31.3566H29.9481V26.8875C29.9481 26.3947 29.8159 26.0426 29.5516 25.831C29.2873 25.6195 28.9761 25.5137 28.618 25.5137C28.1576 25.5137 27.801 25.6557 27.548 25.9397C27.2951 26.2209 27.1686 26.5773 27.1686 27.0092V31.3566H26.1455V26.7831C26.1455 26.4034 26.0247 26.0977 25.7832 25.8658C25.5416 25.6311 25.2304 25.5137 24.8496 25.5137C24.5881 25.5137 24.3437 25.5847 24.1163 25.7267C23.8918 25.8687 23.7099 26.0658 23.5707 26.3179C23.4342 26.5672 23.366 26.8556 23.366 27.1831V31.3566H22.36Z" fill="#272D36"/>
<path d="M32.9301 31.3566V22.4531H33.9361V25.7397H34.0214C34.0953 25.6238 34.1976 25.476 34.3283 25.2963C34.4619 25.1137 34.6523 24.9514 34.8996 24.8094C35.1497 24.6645 35.4879 24.592 35.9142 24.592C36.4655 24.592 36.9515 24.7326 37.3721 25.0137C37.7927 25.2949 38.121 25.6934 38.3569 26.2093C38.5927 26.7251 38.7107 27.3338 38.7107 28.0352C38.7107 28.7423 38.5927 29.3553 38.3569 29.8741C38.121 30.39 37.7941 30.79 37.3764 31.074C36.9586 31.3551 36.4769 31.4957 35.9312 31.4957C35.5106 31.4957 35.1738 31.4247 34.9209 31.2827C34.6679 31.1378 34.4733 30.974 34.3369 30.7914C34.2004 30.6059 34.0953 30.4523 34.0214 30.3306H33.902V31.3566H32.9301ZM33.9191 28.0178C33.9191 28.5221 33.9915 28.967 34.1365 29.3524C34.2814 29.735 34.4932 30.035 34.7717 30.2523C35.0502 30.4668 35.3912 30.5741 35.7948 30.5741C36.2154 30.5741 36.5664 30.461 36.8478 30.235C37.132 30.006 37.3451 29.6988 37.4872 29.3133C37.6321 28.9249 37.7046 28.4931 37.7046 28.0178C37.7046 27.5483 37.6336 27.1251 37.4915 26.7483C37.3522 26.3687 37.1405 26.0687 36.8563 25.8484C36.5749 25.6253 36.2211 25.5137 35.7948 25.5137C35.3855 25.5137 35.0417 25.6195 34.7632 25.831C34.4846 26.0397 34.2743 26.3324 34.1322 26.7092C33.9901 27.0831 33.9191 27.5193 33.9191 28.0178Z" fill="#272D36"/>
<path d="M40.2496 31.3566V24.679H41.2216V25.6876H41.2898C41.4092 25.3572 41.6251 25.0891 41.9378 24.8833C42.2504 24.6775 42.6028 24.5746 42.995 24.5746C43.0689 24.5746 43.1612 24.5761 43.2721 24.579C43.3829 24.5819 43.4668 24.5862 43.5236 24.592V25.6354C43.4895 25.6267 43.4113 25.6137 43.2891 25.5963C43.1698 25.576 43.0433 25.5658 42.9097 25.5658C42.5914 25.5658 42.3072 25.634 42.0571 25.7702C41.8099 25.9035 41.6138 26.089 41.4688 26.3266C41.3267 26.5614 41.2557 26.8295 41.2557 27.1309V31.3566H40.2496Z" fill="#272D36"/>
<path d="M45.5634 33.8607C45.3929 33.8607 45.2409 33.8462 45.1073 33.8172C44.9737 33.7911 44.8814 33.765 44.8302 33.739L45.086 32.8347C45.3304 32.8985 45.5464 32.9217 45.734 32.9043C45.9215 32.8869 46.0878 32.8014 46.2327 32.6478C46.3805 32.4971 46.5155 32.2522 46.6377 31.9131L46.8253 31.3914L44.4039 24.679H45.4952L47.3027 30.0002H47.3709L49.1785 24.679H50.2698L47.4903 32.3304C47.3653 32.6753 47.2104 32.9608 47.0256 33.1868C46.8409 33.4158 46.6263 33.5854 46.3819 33.6955C46.1404 33.8056 45.8675 33.8607 45.5634 33.8607Z" fill="#272D36"/>
<path d="M54.0233 31.4957C53.4322 31.4957 52.9135 31.3522 52.4674 31.0653C52.024 30.7784 51.6773 30.377 51.4272 29.8611C51.1799 29.3452 51.0563 28.7423 51.0563 28.0526C51.0563 27.357 51.1799 26.7498 51.4272 26.231C51.6773 25.7122 52.024 25.3093 52.4674 25.0224C52.9135 24.7355 53.4322 24.592 54.0233 24.592C54.6145 24.592 55.1317 24.7355 55.5751 25.0224C56.0213 25.3093 56.368 25.7122 56.6152 26.231C56.8653 26.7498 56.9904 27.357 56.9904 28.0526C56.9904 28.7423 56.8653 29.3452 56.6152 29.8611C56.368 30.377 56.0213 30.7784 55.5751 31.0653C55.1317 31.3522 54.6145 31.4957 54.0233 31.4957ZM54.0233 30.5741C54.4724 30.5741 54.8418 30.4567 55.1317 30.2219C55.4216 29.9872 55.6362 29.6785 55.7754 29.2959C55.9147 28.9133 55.9843 28.4989 55.9843 28.0526C55.9843 27.6062 55.9147 27.1903 55.7754 26.8049C55.6362 26.4194 55.4216 26.1078 55.1317 25.8702C54.8418 25.6325 54.4724 25.5137 54.0233 25.5137C53.5743 25.5137 53.2049 25.6325 52.915 25.8702C52.6251 26.1078 52.4105 26.4194 52.2713 26.8049C52.132 27.1903 52.0624 27.6062 52.0624 28.0526C52.0624 28.4989 52.132 28.9133 52.2713 29.2959C52.4105 29.6785 52.6251 29.9872 52.915 30.2219C53.2049 30.4567 53.5743 30.5741 54.0233 30.5741Z" fill="#272D36"/>
<path d="M66.5406 26.1745L65.6368 26.4353C65.58 26.2817 65.4961 26.1325 65.3853 25.9875C65.2773 25.8397 65.1295 25.718 64.9419 25.6224C64.7544 25.5267 64.5142 25.4789 64.2215 25.4789C63.8208 25.4789 63.4868 25.5731 63.2197 25.7615C62.9554 25.947 62.8232 26.1832 62.8232 26.4701C62.8232 26.7251 62.9142 26.9266 63.0961 27.0744C63.2779 27.2222 63.5621 27.3454 63.9487 27.4439L64.9206 27.6874C65.5061 27.8323 65.9423 28.054 66.2294 28.3525C66.5164 28.6482 66.6599 29.0293 66.6599 29.4959C66.6599 29.8785 66.5519 30.2205 66.3359 30.5219C66.1228 30.8233 65.8244 31.061 65.4407 31.2349C65.057 31.4088 64.6108 31.4957 64.1021 31.4957C63.4343 31.4957 62.8815 31.3479 62.4438 31.0523C62.0062 30.7566 61.7291 30.3248 61.6125 29.7567L62.5675 29.5133C62.6584 29.8727 62.8303 30.1422 63.0833 30.3219C63.3391 30.5016 63.673 30.5914 64.0851 30.5914C64.554 30.5914 64.9263 30.49 65.202 30.2871C65.4805 30.0813 65.6198 29.835 65.6198 29.5481C65.6198 29.3162 65.5402 29.122 65.381 28.9655C65.2219 28.8061 64.9775 28.6873 64.6478 28.609L63.5565 28.3482C62.9568 28.2033 62.5163 27.9787 62.2349 27.6743C61.9564 27.3671 61.8172 26.9831 61.8172 26.5223C61.8172 26.1455 61.9209 25.8122 62.1284 25.5224C62.3387 25.2325 62.6243 25.005 62.9852 24.8398C63.349 24.6746 63.7611 24.592 64.2215 24.592C64.8695 24.592 65.3782 24.7369 65.7476 25.0268C66.1199 25.3166 66.3843 25.6992 66.5406 26.1745Z" fill="#272D36"/>
<path d="M70.8345 31.4957C70.2206 31.4957 69.692 31.3479 69.2486 31.0523C68.8053 30.7566 68.4642 30.3494 68.2255 29.8306C67.9868 29.3119 67.8674 28.7192 67.8674 28.0526C67.8674 27.3744 67.9896 26.7759 68.234 26.2571C68.4813 25.7354 68.8252 25.3282 69.2657 25.0355C69.709 24.7398 70.2263 24.592 70.8174 24.592C71.2778 24.592 71.6927 24.679 72.0622 24.8529C72.4317 25.0268 72.7343 25.2702 72.9702 25.5832C73.2061 25.8962 73.3525 26.2614 73.4093 26.6788H72.4032C72.3265 26.3745 72.156 26.1049 71.8917 25.8702C71.6302 25.6325 71.2778 25.5137 70.8345 25.5137C70.4423 25.5137 70.0984 25.618 69.8028 25.8267C69.5101 26.0325 69.2813 26.3237 69.1165 26.7005C68.9545 27.0744 68.8735 27.5135 68.8735 28.0178C68.8735 28.5337 68.9531 28.9829 69.1122 29.3655C69.2742 29.748 69.5016 30.0451 69.7943 30.2567C70.0899 30.4683 70.4366 30.5741 70.8345 30.5741C71.0959 30.5741 71.3332 30.5277 71.5464 30.4349C71.7595 30.3422 71.94 30.2089 72.0878 30.035C72.2356 29.8611 72.3407 29.6524 72.4032 29.4089H73.4093C73.3525 29.8031 73.2118 30.1582 72.9873 30.4741C72.7656 30.7871 72.4714 31.0363 72.1048 31.2218C71.7411 31.4044 71.3176 31.4957 70.8345 31.4957Z" fill="#272D36"/>
<path d="M77.5401 31.4957C76.949 31.4957 76.4303 31.3522 75.9841 31.0653C75.5408 30.7784 75.1941 30.377 74.944 29.8611C74.6967 29.3452 74.5731 28.7423 74.5731 28.0526C74.5731 27.357 74.6967 26.7498 74.944 26.231C75.1941 25.7122 75.5408 25.3093 75.9841 25.0224C76.4303 24.7355 76.949 24.592 77.5401 24.592C78.1313 24.592 78.6485 24.7355 79.0919 25.0224C79.5381 25.3093 79.8848 25.7122 80.132 26.231C80.3821 26.7498 80.5072 27.357 80.5072 28.0526C80.5072 28.7423 80.3821 29.3452 80.132 29.8611C79.8848 30.377 79.5381 30.7784 79.0919 31.0653C78.6485 31.3522 78.1313 31.4957 77.5401 31.4957ZM77.5401 30.5741C77.9892 30.5741 78.3586 30.4567 78.6485 30.2219C78.9384 29.9872 79.153 29.6785 79.2922 29.2959C79.4315 28.9133 79.5011 28.4989 79.5011 28.0526C79.5011 27.6062 79.4315 27.1903 79.2922 26.8049C79.153 26.4194 78.9384 26.1078 78.6485 25.8702C78.3586 25.6325 77.9892 25.5137 77.5401 25.5137C77.0911 25.5137 76.7216 25.6325 76.4318 25.8702C76.1419 26.1078 75.9273 26.4194 75.7881 26.8049C75.6488 27.1903 75.5792 27.6062 75.5792 28.0526C75.5792 28.4989 75.6488 28.9133 75.7881 29.2959C75.9273 29.6785 76.1419 29.9872 76.4318 30.2219C76.7216 30.4567 77.0911 30.5741 77.5401 30.5741Z" fill="#272D36"/>
<path d="M82.0429 31.3566V24.679H83.0149V25.6876H83.0831C83.2025 25.3572 83.4184 25.0891 83.7311 24.8833C84.0437 24.6775 84.3961 24.5746 84.7883 24.5746C84.8622 24.5746 84.9546 24.5761 85.0654 24.579C85.1762 24.5819 85.2601 24.5862 85.3169 24.592V25.6354C85.2828 25.6267 85.2046 25.6137 85.0824 25.5963C84.9631 25.576 84.8366 25.5658 84.703 25.5658C84.3847 25.5658 84.1005 25.634 83.8504 25.7702C83.6032 25.9035 83.4071 26.089 83.2621 26.3266C83.12 26.5614 83.049 26.8295 83.049 27.1309V31.3566H82.0429Z" fill="#272D36"/>
<path d="M86.5095 31.3566V24.679H87.5155V31.3566H86.5095ZM87.021 23.566C86.8249 23.566 86.6558 23.4979 86.5137 23.3617C86.3745 23.2255 86.3049 23.0617 86.3049 22.8705C86.3049 22.6792 86.3745 22.5154 86.5137 22.3792C86.6558 22.243 86.8249 22.1749 87.021 22.1749C87.2171 22.1749 87.3848 22.243 87.5241 22.3792C87.6662 22.5154 87.7372 22.6792 87.7372 22.8705C87.7372 23.0617 87.6662 23.2255 87.5241 23.3617C87.3848 23.4979 87.2171 23.566 87.021 23.566Z" fill="#272D36"/>
<path d="M90.3643 27.3396V31.3566H89.3582V24.679H90.3302V25.7223H90.4154C90.5689 25.3833 90.802 25.1108 91.1146 24.905C91.4272 24.6964 91.8308 24.592 92.3253 24.592C92.7686 24.592 93.1565 24.6848 93.4891 24.8703C93.8216 25.0528 94.0802 25.3311 94.2649 25.705C94.4497 26.0759 94.542 26.5455 94.542 27.1135V31.3566H93.5359V27.1831C93.5359 26.6585 93.4024 26.2498 93.1352 25.9571C92.8681 25.6615 92.5015 25.5137 92.0354 25.5137C91.7142 25.5137 91.4272 25.5847 91.1743 25.7267C90.9242 25.8687 90.7266 26.0759 90.5817 26.3484C90.4368 26.6208 90.3643 26.9512 90.3643 27.3396Z" fill="#272D36"/>
<path d="M99.0235 33.9998C98.5375 33.9998 98.1197 33.936 97.7702 33.8085C97.4206 33.6839 97.1293 33.5187 96.8963 33.3129C96.6661 33.11 96.4827 32.8927 96.3463 32.6608L97.1478 32.0869C97.2387 32.2087 97.3538 32.3478 97.4931 32.5043C97.6323 32.6637 97.8227 32.8014 98.0643 32.9173C98.3087 33.0361 98.6284 33.0955 99.0235 33.0955C99.5521 33.0955 99.9883 32.9651 100.332 32.7043C100.676 32.4434 100.848 32.0348 100.848 31.4783V30.1219H100.763C100.689 30.2436 100.584 30.3944 100.447 30.5741C100.314 30.7508 100.12 30.9088 99.8676 31.0479C99.6175 31.1841 99.2793 31.2522 98.853 31.2522C98.3244 31.2522 97.8497 31.1247 97.4291 30.8697C97.0114 30.6146 96.6803 30.2436 96.4359 29.7567C96.1943 29.2698 96.0735 28.6786 96.0735 27.983C96.0735 27.299 96.1914 26.7034 96.4273 26.1962C96.6632 25.6861 96.9915 25.292 97.4121 25.0137C97.8327 24.7326 98.3187 24.592 98.87 24.592C99.2963 24.592 99.6345 24.6645 99.8846 24.8094C100.138 24.9514 100.331 25.1137 100.464 25.2963C100.601 25.476 100.706 25.6238 100.78 25.7397H100.882V24.679H101.854V31.5479C101.854 32.1217 101.726 32.5884 101.47 32.9477C101.218 33.31 100.876 33.5752 100.447 33.7433C100.021 33.9143 99.5464 33.9998 99.0235 33.9998ZM98.9894 30.3306C99.3929 30.3306 99.734 30.2364 100.013 30.048C100.291 29.8596 100.503 29.5886 100.648 29.2351C100.793 28.8815 100.865 28.4583 100.865 27.9656C100.865 27.4845 100.794 27.0599 100.652 26.6918C100.51 26.3237 100.3 26.0354 100.021 25.8267C99.7425 25.618 99.3986 25.5137 98.9894 25.5137C98.5631 25.5137 98.2078 25.6238 97.9236 25.8441C97.6423 26.0643 97.4305 26.36 97.2885 26.7309C97.1492 27.1019 97.0796 27.5135 97.0796 27.9656C97.0796 28.4293 97.1506 28.8394 97.2927 29.1959C97.4377 29.5495 97.6508 29.8277 97.9322 30.0306C98.2164 30.2306 98.5688 30.3306 98.9894 30.3306Z" fill="#272D36"/>
<path d="M108.556 31.3566L106.56 24.679H107.618L109.033 29.7915H109.101L110.499 24.679H111.574L112.955 29.7741H113.023L114.438 24.679H115.496L113.501 31.3566H112.512L111.079 26.2266H110.977L109.545 31.3566H108.556Z" fill="#272D36"/>
<path d="M116.826 31.3566V24.679H117.832V31.3566H116.826ZM117.337 23.566C117.141 23.566 116.972 23.4979 116.83 23.3617C116.691 23.2255 116.621 23.0617 116.621 22.8705C116.621 22.6792 116.691 22.5154 116.83 22.3792C116.972 22.243 117.141 22.1749 117.337 22.1749C117.533 22.1749 117.701 22.243 117.84 22.3792C117.982 22.5154 118.053 22.6792 118.053 22.8705C118.053 23.0617 117.982 23.2255 117.84 23.3617C117.701 23.4979 117.533 23.566 117.337 23.566Z" fill="#272D36"/>
<path d="M122.522 24.679V25.5485H119.129V24.679H122.522ZM120.118 23.0791H121.124V29.4437C121.124 29.7336 121.165 29.9509 121.248 30.0958C121.333 30.2379 121.441 30.3335 121.572 30.3828C121.705 30.4291 121.846 30.4523 121.994 30.4523C122.104 30.4523 122.195 30.4465 122.266 30.4349C122.337 30.4204 122.394 30.4089 122.437 30.4002L122.642 31.3218C122.573 31.3479 122.478 31.374 122.356 31.4001C122.234 31.429 122.079 31.4435 121.891 31.4435C121.607 31.4435 121.329 31.3812 121.056 31.2566C120.786 31.132 120.561 30.9421 120.382 30.6871C120.206 30.432 120.118 30.1103 120.118 29.722V23.0791Z" fill="#272D36"/>
<path d="M125.182 27.3396V31.3566H124.176V22.4531H125.182V25.7223H125.268C125.421 25.3775 125.651 25.1036 125.958 24.9007C126.268 24.6949 126.68 24.592 127.194 24.592C127.641 24.592 128.031 24.6833 128.367 24.8659C128.702 25.0456 128.962 25.3224 129.147 25.6963C129.334 26.0672 129.428 26.5397 129.428 27.1135V31.3566H128.422V27.1831C128.422 26.6527 128.287 26.2426 128.017 25.9528C127.75 25.66 127.379 25.5137 126.905 25.5137C126.575 25.5137 126.279 25.5847 126.018 25.7267C125.759 25.8687 125.555 26.0759 125.404 26.3484C125.256 26.6208 125.182 26.9512 125.182 27.3396Z" fill="#272D36"/>
<path d="M135.14 31.3566H134.031L137.237 22.4531H138.328L141.534 31.3566H140.426L137.817 23.8617H137.749L135.14 31.3566ZM135.549 27.8787H140.016V28.8351H135.549V27.8787Z" fill="#272D36"/>
<path d="M143.951 22.4531V31.3566H142.894V22.4531H143.951Z" fill="#272D36"/>
<defs>
<linearGradient id="paint0_linear_0_2073" x1="128.151" y1="0" x2="150.87" y2="2.59533" gradientUnits="userSpaceOnUse">
<stop stop-color="#7D54F3"/>
<stop offset="1" stop-color="#CEBCFF"/>
</linearGradient>
<linearGradient id="paint1_linear_0_2073" x1="23.2681" y1="0.362183" x2="25.6427" y2="0.391098" gradientUnits="userSpaceOnUse">
<stop stop-color="#7D54F3"/>
<stop offset="1" stop-color="#CEBCFF"/>
</linearGradient>
</defs>
</svg>
