<svg width="41" height="40" viewBox="0 0 41 40" fill="none" xmlns="http://www.w3.org/2000/svg">
<path opacity="0.4" d="M20.5 36.6667C29.7047 36.6667 37.1666 29.2048 37.1666 20C37.1666 10.7953 29.7047 3.33334 20.5 3.33334C11.2952 3.33334 3.83331 10.7953 3.83331 20C3.83331 29.2048 11.2952 36.6667 20.5 36.6667Z" fill="url(#paint0_linear_0_2108)"/>
<path d="M26.6834 26.55C26.4667 26.55 26.25 26.5 26.05 26.3667L20.8834 23.2833C19.6 22.5167 18.65 20.8333 18.65 19.35V12.5167C18.65 11.8333 19.2167 11.2667 19.9 11.2667C20.5834 11.2667 21.15 11.8333 21.15 12.5167V19.35C21.15 19.95 21.65 20.8333 22.1667 21.1333L27.3334 24.2167C27.9334 24.5667 28.1167 25.3333 27.7667 25.9333C27.5167 26.3333 27.1 26.55 26.6834 26.55Z" fill="url(#paint1_linear_0_2108)"/>
<defs>
<linearGradient id="paint0_linear_0_2108" x1="3.83331" y1="3.33334" x2="40.6008" y2="7.69089" gradientUnits="userSpaceOnUse">
<stop stop-color="#7D54F3"/>
<stop offset="1" stop-color="#CEBCFF"/>
</linearGradient>
<linearGradient id="paint1_linear_0_2108" x1="18.65" y1="11.2667" x2="28.991" y2="12.0119" gradientUnits="userSpaceOnUse">
<stop stop-color="#7D54F3"/>
<stop offset="1" stop-color="#CEBCFF"/>
</linearGradient>
</defs>
</svg>
