<svg width="37" height="38" viewBox="0 0 37 38" fill="none" xmlns="http://www.w3.org/2000/svg">
<path opacity="0.3" d="M18.4886 0.666656C14.8626 0.666656 11.3181 1.74189 8.30316 3.75638C5.28826 5.77087 2.93843 8.63414 1.55082 11.9841C0.163217 15.3341 -0.199844 19.0203 0.507551 22.5766C1.21495 26.133 2.96103 29.3996 5.52499 31.9636C8.08895 34.5276 11.3556 36.2736 14.912 36.981C18.4683 37.6884 22.1545 37.3254 25.5045 35.9378C28.8545 34.5502 31.7177 32.2003 33.7322 29.1854C35.7467 26.1705 36.8219 22.626 36.8219 19C36.8164 14.1394 34.8831 9.47941 31.4462 6.04244C28.0092 2.60546 23.3492 0.672156 18.4886 0.666656Z" fill="url(#paint0_linear_0_2092)"/>
<path d="M23.1697 6.77777C21.3301 6.78331 19.5603 7.48284 18.214 8.73656C16.7947 7.54536 14.9742 6.94084 13.1243 7.04643C11.2744 7.15202 9.53458 7.95975 8.26006 9.30471C6.98553 10.6497 6.27245 12.4304 6.26642 14.2833C6.26039 16.1362 6.96186 17.9215 8.22761 19.2748C7.03696 20.6939 6.4327 22.5139 6.53814 24.3633C6.64358 26.2128 7.45077 27.9523 8.795 29.2269C10.1392 30.5015 11.9192 31.2151 13.7716 31.2222C15.624 31.2292 17.4094 30.5291 18.7632 29.2647C20.1825 30.4559 22.003 31.0605 23.8529 30.9549C25.7028 30.8493 27.4426 30.0415 28.7172 28.6966C29.9917 27.3516 30.7048 25.5709 30.7108 23.718C30.7168 21.8651 30.0154 20.0798 28.7496 18.7265C29.6398 17.6653 30.2085 16.372 30.3889 14.9987C30.5692 13.6253 30.3537 12.229 29.7676 10.9739C29.1815 9.71889 28.2492 8.65727 27.0804 7.91393C25.9116 7.17058 24.5549 6.77642 23.1697 6.77777ZM29.4112 14.0595C29.4128 15.5029 28.911 16.9017 27.9923 18.015C26.9217 17.1467 25.6251 16.6025 24.2554 16.4467C22.8857 16.2908 21.5 16.5298 20.2617 17.1355C20.7964 15.8648 20.9577 14.4679 20.7266 13.1088C20.4954 11.7497 19.8815 10.4846 18.9567 9.46213C20.1022 8.40038 21.6079 7.8128 23.1697 7.81802C24.8245 7.81981 26.411 8.47797 27.5811 9.64808C28.7513 10.8182 29.4094 12.4047 29.4112 14.0595ZM13.5474 8.07808C14.7819 8.07808 15.9886 8.44414 17.015 9.12996C18.0414 9.81578 18.8414 10.7906 19.3138 11.931C19.7862 13.0715 19.9098 14.3265 19.669 15.5372C19.4282 16.7479 18.8337 17.86 17.9608 18.7329C17.0879 19.6058 15.9758 20.2003 14.7651 20.4411C13.5544 20.6819 12.2994 20.5583 11.1589 20.0859C10.0184 19.6135 9.04365 18.8135 8.35783 17.7871C7.67201 16.7607 7.30595 15.554 7.30595 14.3195C7.30774 12.6648 7.9659 11.0783 9.13601 9.90814C10.3061 8.73803 11.8926 8.07987 13.5474 8.07808ZM7.56601 23.9418C7.56503 22.4993 8.06677 21.1015 8.98491 19.9889C10.0555 20.8572 11.3521 21.4014 12.7218 21.5572C14.0915 21.7131 15.4772 21.4741 16.7155 20.8684C16.1813 22.1388 16.0203 23.5351 16.2515 24.8937C16.4826 26.2523 17.0963 27.5169 18.0205 28.5392C16.875 29.6009 15.3694 30.1885 13.8075 30.1833C12.1527 30.1815 10.5662 29.5233 9.39608 28.3532C8.22596 27.1831 7.5678 25.5966 7.56601 23.9418ZM23.4298 29.9232C22.1953 29.9232 20.9886 29.5572 19.9622 28.8713C18.9358 28.1855 18.1358 27.2107 17.6634 26.0703C17.191 24.9298 17.0674 23.6748 17.3082 22.4641C17.5491 21.2534 18.1435 20.1413 19.0164 19.2684C19.8893 18.3955 21.0014 17.801 22.2121 17.5602C23.4229 17.3194 24.6778 17.443 25.8183 17.9154C26.9588 18.3878 27.9336 19.1878 28.6194 20.2142C29.3052 21.2406 29.6713 22.4473 29.6713 23.6818C29.6695 25.3365 29.0113 26.923 27.8412 28.0932C26.6711 29.2633 25.0846 29.9214 23.4298 29.9232Z" fill="url(#paint1_linear_0_2092)"/>
<path d="M12.3769 14.926C12.7798 14.926 13.1737 14.8065 13.5086 14.5827C13.8436 14.3589 14.1047 14.0407 14.2589 13.6685C14.4131 13.2963 14.4534 12.8867 14.3748 12.4916C14.2962 12.0964 14.1022 11.7334 13.8173 11.4486C13.5324 11.1637 13.1695 10.9697 12.7743 10.8911C12.3792 10.8125 11.9696 10.8528 11.5974 11.007C11.2252 11.1612 10.907 11.4223 10.6832 11.7572C10.4594 12.0922 10.3399 12.4861 10.3399 12.889C10.3399 13.4292 10.5545 13.9473 10.9365 14.3294C11.3185 14.7114 11.8367 14.926 12.3769 14.926Z" fill="url(#paint2_linear_0_2092)"/>
<path d="M24.3769 26.9258C24.7798 26.9258 25.1736 26.8063 25.5086 26.5825C25.8436 26.3587 26.1047 26.0405 26.2589 25.6683C26.413 25.2961 26.4534 24.8865 26.3748 24.4913C26.2962 24.0962 26.1022 23.7332 25.8173 23.4484C25.5324 23.1635 25.1694 22.9695 24.7743 22.8909C24.3791 22.8123 23.9696 22.8526 23.5973 23.0068C23.2251 23.161 22.907 23.422 22.6831 23.757C22.4593 24.092 22.3398 24.4859 22.3398 24.8888C22.3398 25.429 22.5545 25.9471 22.9365 26.3292C23.3185 26.7112 23.8366 26.9258 24.3769 26.9258Z" fill="url(#paint3_linear_0_2092)"/>
<path d="M12.3769 26.9258C12.7798 26.9258 13.1736 26.8063 13.5086 26.5825C13.8436 26.3587 14.1047 26.0405 14.2589 25.6683C14.413 25.2961 14.4534 24.8865 14.3748 24.4913C14.2962 24.0962 14.1022 23.7332 13.8173 23.4484C13.5324 23.1635 13.1694 22.9695 12.7743 22.8909C12.3791 22.8123 11.9696 22.8526 11.5973 23.0068C11.2251 23.161 10.907 23.422 10.6831 23.757C10.4593 24.092 10.3398 24.4859 10.3398 24.8888C10.3398 25.429 10.5545 25.9471 10.9365 26.3292C11.3185 26.7112 11.8366 26.9258 12.3769 26.9258Z" fill="url(#paint4_linear_0_2092)"/>
<path d="M25.7326 14.5827C25.3976 14.8065 25.0037 14.926 24.6009 14.926C24.0606 14.926 23.5425 14.7114 23.1605 14.3294C22.7784 13.9473 22.5638 13.4292 22.5638 12.889C22.5638 12.4861 22.6833 12.0922 22.9071 11.7572C23.131 11.4223 23.4491 11.1612 23.8213 11.007C24.1935 10.8528 24.6031 10.8125 24.9983 10.8911C25.3934 10.9697 25.7564 11.1637 26.0413 11.4486C26.3261 11.7334 26.5202 12.0964 26.5988 12.4916C26.6773 12.8867 26.637 13.2963 26.4828 13.6685C26.3287 14.0407 26.0676 14.3589 25.7326 14.5827Z" fill="url(#paint5_linear_0_2092)"/>
<defs>
<linearGradient id="paint0_linear_0_2092" x1="0.155273" y1="0.666656" x2="40.5995" y2="5.45996" gradientUnits="userSpaceOnUse">
<stop stop-color="#7D54F3"/>
<stop offset="1" stop-color="#CEBCFF"/>
</linearGradient>
<linearGradient id="paint1_linear_0_2092" x1="6.26638" y1="6.77777" x2="33.2292" y2="9.97331" gradientUnits="userSpaceOnUse">
<stop stop-color="#7D54F3"/>
<stop offset="1" stop-color="#CEBCFF"/>
</linearGradient>
<linearGradient id="paint2_linear_0_2092" x1="10.3399" y1="10.8519" x2="14.8337" y2="11.3845" gradientUnits="userSpaceOnUse">
<stop stop-color="#7D54F3"/>
<stop offset="1" stop-color="#CEBCFF"/>
</linearGradient>
<linearGradient id="paint3_linear_0_2092" x1="22.3398" y1="22.8517" x2="26.8336" y2="23.3843" gradientUnits="userSpaceOnUse">
<stop stop-color="#7D54F3"/>
<stop offset="1" stop-color="#CEBCFF"/>
</linearGradient>
<linearGradient id="paint4_linear_0_2092" x1="10.3398" y1="22.8517" x2="14.8336" y2="23.3843" gradientUnits="userSpaceOnUse">
<stop stop-color="#7D54F3"/>
<stop offset="1" stop-color="#CEBCFF"/>
</linearGradient>
<linearGradient id="paint5_linear_0_2092" x1="22.5638" y1="10.8519" x2="27.0576" y2="11.3845" gradientUnits="userSpaceOnUse">
<stop stop-color="#7D54F3"/>
<stop offset="1" stop-color="#CEBCFF"/>
</linearGradient>
</defs>
</svg>
