<svg width="104" height="33" viewBox="0 0 104 33" fill="none" xmlns="http://www.w3.org/2000/svg">
<rect width="104" height="33" rx="5" fill="white"/>
<path d="M95.4213 13.813C95.2988 14.508 95.0655 15.1786 94.7303 15.7989C94.1449 16.8774 93.2549 17.7577 92.1725 18.329C91.7302 18.5564 91.2627 18.7306 90.7799 18.8482C90.3667 18.9479 89.9436 19 89.5187 19.0035C88.1666 19.0243 86.8482 18.5798 85.7824 17.7438C85.3891 17.4388 85.0376 17.0831 84.737 16.6857C83.8712 15.5686 83.418 14.1844 83.4546 12.7692C83.4562 12.5026 83.4884 12.2371 83.5505 11.9779C83.5985 11.7994 83.5914 11.6005 83.6393 11.4185C83.7057 11.1404 83.7888 10.8666 83.888 10.5986C84.0941 10.0532 84.3806 9.54192 84.7379 9.08198C85.1165 8.59268 85.5655 8.16272 86.0701 7.80622C87.0274 7.12484 88.164 6.74334 89.3367 6.70978C89.8967 6.69666 90.4559 6.7612 90.9984 6.90159C91.746 7.0872 92.447 7.42685 93.0571 7.899C93.9218 8.54912 94.5967 9.42084 95.0109 10.4229C95.3118 11.1342 95.4725 11.8974 95.4843 12.6702C95.4905 13.0511 95.4479 13.4329 95.4275 13.8139M91.9753 8.33615C91.6167 8.27621 91.2499 8.2882 90.8959 8.37142C90.542 8.45464 90.2079 8.60745 89.9131 8.82102C89.6182 9.0346 89.3684 9.30471 89.178 9.61578C88.9876 9.92685 88.8604 10.2727 88.8038 10.6334C88.5462 12.1768 89.5214 13.5917 91.0312 13.8451C92.5188 14.0967 93.9567 13.1189 94.2063 11.4667C94.3127 10.7557 94.1393 10.031 93.7228 9.4463C93.3063 8.86157 92.6795 8.46275 91.9753 8.33436" fill="#7D54F3"/>
<path d="M18.6398 18.8206V14.7917H9.75846V18.8206H8.51508V12.1295C8.51508 11.2023 8.64741 10.3979 8.91207 9.71629C9.15253 9.07049 9.54357 8.49199 10.0524 8.02925C10.573 7.5724 11.186 7.23426 11.8491 7.03809C12.6122 6.81096 13.405 6.70059 14.2009 6.71067C14.9967 6.70065 15.7895 6.81103 16.5527 7.03809C17.2138 7.23552 17.8249 7.5739 18.344 8.03015C18.8529 8.49288 19.2439 9.07139 19.4844 9.71719C19.749 10.3994 19.8814 11.2038 19.8814 12.1304V18.8215L18.6398 18.8206ZM9.75846 13.6051H18.6398V12.2348C18.6398 11.4444 18.5379 10.7729 18.3342 10.2204C18.1567 9.70853 17.8559 9.24879 17.4585 8.88214C17.0577 8.53023 16.58 8.27809 16.0642 8.14613C15.4551 7.98884 14.828 7.91324 14.1991 7.92131C13.5703 7.91324 12.9431 7.98884 12.334 8.14613C11.8182 8.27809 11.3405 8.53023 10.9397 8.88214C10.5423 9.24879 10.2415 9.70853 10.064 10.2204C9.8603 10.7729 9.75846 11.4444 9.75846 12.2348V13.6051Z" fill="#272D36"/>
<path d="M23.3628 6.91678H22.1212V18.8197H23.3628V6.91678Z" fill="#7D54F3"/>
<path d="M33.5639 9.00079C33.8374 8.34381 34.2888 7.77699 34.8668 7.36461C35.4648 6.92865 36.2454 6.71037 37.2088 6.70978C37.9826 6.70978 38.6407 6.84954 39.1831 7.12908C39.7091 7.39455 40.1634 7.78389 40.5073 8.26388C40.8608 8.77579 41.1129 9.35129 41.2498 9.95895C41.4101 10.6497 41.4888 11.357 41.4842 12.0662V18.8152H40.263V12.0715C40.2657 11.5201 40.2145 10.9697 40.1103 10.4282C40.0251 9.95993 39.8521 9.51217 39.6005 9.10874C39.3666 8.74429 39.0445 8.44533 38.6644 8.2398C38.2772 8.02806 37.792 7.92249 37.2088 7.92309C36.6386 7.92309 36.1602 8.02182 35.7735 8.21928C35.3931 8.41098 35.0699 8.70029 34.8366 9.05789C34.5883 9.44531 34.4122 9.87488 34.317 10.3256C34.2048 10.8464 34.1503 11.3781 34.1545 11.911V18.8242H32.9333V11.9074C32.9378 11.3746 32.8836 10.8429 32.7717 10.3221C32.6769 9.87119 32.5008 9.44155 32.2521 9.05432C32.0189 8.69695 31.696 8.40769 31.316 8.21571C30.9288 8.01885 30.4504 7.92011 29.8808 7.91952C29.2964 7.91952 28.8112 8.02509 28.4252 8.23623C28.0446 8.44148 27.7222 8.74048 27.4882 9.10518C27.2355 9.50943 27.0622 9.95852 26.9775 10.4282C26.8716 10.9695 26.8193 11.5199 26.8212 12.0715V18.8206H25.6027V12.0715C25.5981 11.3623 25.6768 10.655 25.8372 9.9643C25.9739 9.35646 26.2263 8.78088 26.5805 8.26924C26.9239 7.78911 27.3779 7.39973 27.9038 7.13443C28.4468 6.85549 29.1052 6.71573 29.879 6.71513C30.8424 6.71513 31.6263 6.93341 32.2308 7.36996C32.8124 7.77864 33.2674 8.34392 33.5435 9.00079H33.5639Z" fill="#272D36"/>
<path d="M49.3842 6.71248C49.9744 6.71451 50.5635 6.76584 51.1453 6.86593C51.7228 6.95989 52.2824 7.14285 52.8043 7.40835C53.2933 7.65658 53.7158 8.01914 54.0362 8.46553C54.3553 8.90923 54.5149 9.47187 54.5149 10.1535C54.5149 10.8077 54.3453 11.3531 54.006 11.7897C53.6555 12.2335 53.1802 12.5612 52.6418 12.73C53.2334 12.9042 53.7631 13.2447 54.1685 13.7113C54.5486 14.161 54.7387 14.7334 54.7387 15.4287C54.7387 16.1109 54.6099 16.6735 54.3524 17.1166C54.0998 17.554 53.734 17.9144 53.2937 18.1595C52.7994 18.4275 52.2613 18.6039 51.7048 18.6805C51.0528 18.7779 50.3942 18.8247 49.735 18.8206H43.7241V12.0341C43.7241 10.3432 44.1957 9.03472 45.1389 8.10868C46.0821 7.18264 47.4972 6.71902 49.3842 6.71783M49.9543 12.1991C50.4004 12.2024 50.846 12.1684 51.2865 12.0974C51.6507 12.0395 52.0045 11.928 52.3363 11.7665C52.6173 11.6317 52.8567 11.423 53.029 11.1625C53.1993 10.883 53.2842 10.5595 53.2733 10.232C53.2733 9.76925 53.1611 9.38771 52.9367 9.08736C52.7081 8.78132 52.4075 8.53702 52.0619 8.37632C51.6672 8.19654 51.2482 8.07629 50.8185 8.01946C50.3431 7.95115 49.8635 7.91716 49.3833 7.91776C47.999 7.91776 46.9163 8.23477 46.1354 8.86878C45.3544 9.5028 44.9645 10.4687 44.9657 11.7665V12.1956L49.9543 12.1991ZM49.7101 17.6189C50.2065 17.6209 50.7027 17.5938 51.1959 17.5377C51.6074 17.4968 52.0095 17.3896 52.3869 17.2201C52.7049 17.0764 52.9766 16.8461 53.1711 16.5555C53.3612 16.2688 53.4562 15.8938 53.4562 15.4305C53.4699 15.077 53.3854 14.7267 53.212 14.4188C53.0453 14.1498 52.8097 13.9307 52.5299 13.7845C52.1966 13.6152 51.8355 13.5079 51.4642 13.4678C51.0048 13.4109 50.5424 13.3834 50.0796 13.3857H44.9657V17.6189H49.7101Z" fill="#272D36"/>
<path d="M56.6117 18.8206V12.0341C56.6117 10.3295 57.0904 9.01718 58.0479 8.09708C59.0053 7.17699 60.4405 6.71664 62.3535 6.71605C63.3008 6.71605 64.1188 6.81835 64.8074 7.02294C65.4217 7.19211 65.9985 7.47667 66.5073 7.86156C66.9406 8.19761 67.2834 8.63705 67.5047 9.13999C67.7247 9.65313 67.8357 10.2068 67.8306 10.7655C67.8306 11.6243 67.5796 12.3336 67.0775 12.8932C66.5728 13.453 65.9249 13.8631 65.2044 14.0789C66.0377 14.455 66.7426 15.069 67.2311 15.8444C67.7255 16.6283 67.973 17.6204 67.9736 18.8206H66.6698C66.6698 17.3884 66.2897 16.3214 65.5295 15.6196C64.7692 14.9178 63.6564 14.5666 62.191 14.566H57.8542V18.8206H56.6117ZM62.3535 7.91955C60.9414 7.91955 59.8386 8.22971 59.0452 8.85005C58.2518 9.47038 57.8548 10.4425 57.8542 11.7665V13.3821H62.6182C63.11 13.3829 63.6008 13.3384 64.0845 13.2492C64.5261 13.1723 64.9523 13.0237 65.3465 12.8094C65.6983 12.6185 65.9988 12.3448 66.2222 12.0118C66.4389 11.6847 66.5476 11.2755 66.5481 10.7842C66.5481 10.2525 66.4463 9.80256 66.2426 9.4344C66.0406 9.06662 65.7456 8.75888 65.3874 8.54226C64.9792 8.30209 64.5307 8.13911 64.064 8.0614C63.4993 7.96192 62.9268 7.91414 62.3535 7.91865" fill="#272D36"/>
<path d="M81.2689 6.91678V13.2777C81.2689 15.1459 80.797 16.5706 79.8532 17.552C78.9095 18.5333 77.4674 19.0243 75.5272 19.0249C74.3051 19.0249 73.2429 18.787 72.3406 18.3112C71.4536 17.8508 70.7418 17.1104 70.3147 16.204L71.5155 15.6687C71.9098 16.4193 72.4462 16.9647 73.1248 17.3049C73.8033 17.6451 74.6026 17.8155 75.5227 17.8161C77.0562 17.8161 78.1895 17.4482 78.9225 16.7125C79.6555 15.9768 80.022 14.8244 80.022 13.2554C79.6561 13.8014 79.1031 14.2618 78.363 14.6365C77.6229 15.0112 76.6965 15.1985 75.584 15.1985C74.7881 15.2091 73.9952 15.0987 73.2322 14.8711C72.5705 14.6743 71.9591 14.3359 71.44 13.879C70.9307 13.4167 70.5396 12.838 70.2996 12.192C70.035 11.5104 69.9026 10.706 69.9026 9.77877V6.91499H71.146V9.67617C71.146 10.4809 71.2479 11.1592 71.4515 11.7111C71.6286 12.2237 71.9345 12.6816 72.3397 13.0404C72.7445 13.3842 73.221 13.6324 73.734 13.7666C74.9514 14.0664 76.2228 14.0664 77.4402 13.7666C77.9532 13.6324 78.4297 13.3842 78.8346 13.0404C79.2397 12.6816 79.5456 12.2237 79.7227 11.7111C79.927 11.1592 80.0288 10.4809 80.0282 9.67617V6.91678H81.2689Z" fill="#272D36"/>
<path d="M17.4746 24.7694V19.6411H20.5557V20.192H18.0928V21.9248H20.3962V22.4757H18.0928V24.2185H20.5956V24.7694H17.4746Z" fill="#272D36"/>
<path d="M21.5903 24.7694V20.9232H22.1586V21.5241H22.2085C22.2883 21.3188 22.417 21.1594 22.5949 21.0459C22.7727 20.9307 22.9862 20.8731 23.2355 20.8731C23.4881 20.8731 23.6984 20.9307 23.8662 21.0459C24.0357 21.1594 24.1678 21.3188 24.2626 21.5241H24.3024C24.4005 21.3255 24.5476 21.1677 24.7437 21.0509C24.9398 20.9323 25.1749 20.8731 25.4491 20.8731C25.7915 20.8731 26.0715 20.9807 26.2892 21.1961C26.5069 21.4098 26.6158 21.7428 26.6158 22.1952V24.7694H26.0275V22.1952C26.0275 21.9114 25.9502 21.7086 25.7956 21.5867C25.6411 21.4649 25.4591 21.4039 25.2497 21.4039C24.9805 21.4039 24.7719 21.4857 24.624 21.6493C24.4761 21.8113 24.4022 22.0166 24.4022 22.2653V24.7694H23.8039V22.1351C23.8039 21.9164 23.7333 21.7403 23.592 21.6068C23.4507 21.4715 23.2688 21.4039 23.0461 21.4039C22.8932 21.4039 22.7503 21.4448 22.6173 21.5266C22.486 21.6084 22.3797 21.722 22.2982 21.8672C22.2185 22.0108 22.1786 22.1769 22.1786 22.3655V24.7694H21.5903Z" fill="#272D36"/>
<path d="M27.7712 24.7694V19.6411H28.3595V21.5341H28.4094C28.4526 21.4674 28.5124 21.3822 28.5889 21.2787C28.667 21.1736 28.7783 21.0801 28.9229 20.9983C29.0691 20.9148 29.2669 20.8731 29.5162 20.8731C29.8386 20.8731 30.1228 20.954 30.3687 21.116C30.6147 21.2779 30.8066 21.5074 30.9446 21.8046C31.0825 22.1017 31.1515 22.4523 31.1515 22.8563C31.1515 23.2636 31.0825 23.6167 30.9446 23.9155C30.8066 24.2127 30.6155 24.443 30.3712 24.6066C30.1269 24.7686 29.8452 24.8495 29.5261 24.8495C29.2802 24.8495 29.0833 24.8086 28.9354 24.7268C28.7874 24.6434 28.6736 24.5491 28.5938 24.4439C28.5141 24.337 28.4526 24.2486 28.4094 24.1785H28.3396V24.7694H27.7712ZM28.3495 22.8463C28.3495 23.1368 28.3919 23.393 28.4767 23.615C28.5614 23.8354 28.6852 24.0082 28.8481 24.1334C29.011 24.2569 29.2104 24.3187 29.4464 24.3187C29.6923 24.3187 29.8976 24.2536 30.0621 24.1234C30.2283 23.9915 30.3529 23.8145 30.436 23.5925C30.5208 23.3688 30.5632 23.1201 30.5632 22.8463C30.5632 22.5758 30.5216 22.3321 30.4385 22.1151C30.3571 21.8964 30.2333 21.7236 30.0671 21.5967C29.9026 21.4682 29.6957 21.4039 29.4464 21.4039C29.2071 21.4039 29.006 21.4649 28.8431 21.5867C28.6803 21.7069 28.5573 21.8755 28.4742 22.0926C28.3911 22.3079 28.3495 22.5591 28.3495 22.8463Z" fill="#272D36"/>
<path d="M32.0514 24.7694V20.9232H32.6197V21.5041H32.6596C32.7294 21.3138 32.8557 21.1594 33.0385 21.0408C33.2213 20.9223 33.4274 20.8631 33.6568 20.8631C33.7 20.8631 33.754 20.8639 33.8188 20.8656C33.8836 20.8672 33.9326 20.8697 33.9659 20.8731V21.474C33.9459 21.469 33.9002 21.4615 33.8288 21.4515C33.759 21.4398 33.685 21.434 33.6069 21.434C33.4208 21.434 33.2546 21.4732 33.1083 21.5517C32.9637 21.6285 32.8491 21.7353 32.7643 21.8722C32.6812 22.0074 32.6397 22.1618 32.6397 22.3355V24.7694H32.0514Z" fill="#272D36"/>
<path d="M35.1587 26.2118C35.059 26.2118 34.97 26.2034 34.8919 26.1867C34.8138 26.1717 34.7598 26.1567 34.7299 26.1416L34.8795 25.6208C35.0224 25.6575 35.1487 25.6709 35.2584 25.6609C35.3681 25.6508 35.4653 25.6016 35.55 25.5131C35.6365 25.4263 35.7154 25.2853 35.7869 25.0899L35.8965 24.7894L34.4806 20.9232H35.1188L36.1757 23.9881H36.2156L37.2726 20.9232H37.9107L36.2854 25.3303C36.2123 25.529 36.1217 25.6934 36.0137 25.8236C35.9057 25.9555 35.7802 26.0532 35.6373 26.1166C35.496 26.18 35.3365 26.2118 35.1587 26.2118Z" fill="#272D36"/>
<path d="M40.1057 24.8495C39.76 24.8495 39.4567 24.7669 39.1958 24.6016C38.9365 24.4364 38.7338 24.2052 38.5875 23.908C38.443 23.6109 38.3707 23.2636 38.3707 22.8663C38.3707 22.4657 38.443 22.1159 38.5875 21.8171C38.7338 21.5183 38.9365 21.2862 39.1958 21.121C39.4567 20.9557 39.76 20.8731 40.1057 20.8731C40.4513 20.8731 40.7538 20.9557 41.0131 21.121C41.274 21.2862 41.4767 21.5183 41.6213 21.8171C41.7676 22.1159 41.8407 22.4657 41.8407 22.8663C41.8407 23.2636 41.7676 23.6109 41.6213 23.908C41.4767 24.2052 41.274 24.4364 41.0131 24.6016C40.7538 24.7669 40.4513 24.8495 40.1057 24.8495ZM40.1057 24.3187C40.3682 24.3187 40.5843 24.2511 40.7538 24.1158C40.9233 23.9806 41.0488 23.8028 41.1302 23.5825C41.2117 23.3621 41.2524 23.1234 41.2524 22.8663C41.2524 22.6092 41.2117 22.3697 41.1302 22.1476C41.0488 21.9256 40.9233 21.7462 40.7538 21.6093C40.5843 21.4724 40.3682 21.4039 40.1057 21.4039C39.8431 21.4039 39.6271 21.4724 39.4575 21.6093C39.288 21.7462 39.1626 21.9256 39.0811 22.1476C38.9997 22.3697 38.959 22.6092 38.959 22.8663C38.959 23.1234 38.9997 23.3621 39.0811 23.5825C39.1626 23.8028 39.288 23.9806 39.4575 24.1158C39.6271 24.2511 39.8431 24.3187 40.1057 24.3187Z" fill="#272D36"/>
<path d="M47.4252 21.7846L46.8967 21.9348C46.8635 21.8463 46.8145 21.7603 46.7497 21.6769C46.6865 21.5917 46.6001 21.5216 46.4904 21.4665C46.3807 21.4114 46.2403 21.3839 46.0691 21.3839C45.8348 21.3839 45.6395 21.4382 45.4833 21.5467C45.3288 21.6535 45.2515 21.7896 45.2515 21.9548C45.2515 22.1017 45.3047 22.2178 45.411 22.3029C45.5174 22.388 45.6836 22.459 45.9096 22.5157L46.4779 22.656C46.8203 22.7394 47.0754 22.8672 47.2432 23.0391C47.4111 23.2094 47.495 23.4289 47.495 23.6977C47.495 23.918 47.4319 24.115 47.3056 24.2886C47.1809 24.4622 47.0064 24.5991 46.7821 24.6993C46.5577 24.7995 46.2968 24.8495 45.9993 24.8495C45.6088 24.8495 45.2855 24.7644 45.0296 24.5941C44.7737 24.4239 44.6117 24.1751 44.5435 23.8479L45.1019 23.7077C45.1551 23.9147 45.2556 24.0699 45.4035 24.1734C45.5531 24.2769 45.7484 24.3287 45.9893 24.3287C46.2636 24.3287 46.4813 24.2703 46.6425 24.1534C46.8053 24.0349 46.8868 23.893 46.8868 23.7277C46.8868 23.5942 46.8402 23.4823 46.7472 23.3922C46.6541 23.3004 46.5112 23.2319 46.3184 23.1868L45.6802 23.0366C45.3296 22.9531 45.072 22.8237 44.9075 22.6485C44.7446 22.4715 44.6632 22.2503 44.6632 21.9849C44.6632 21.7679 44.7238 21.5759 44.8451 21.4089C44.9681 21.242 45.1351 21.111 45.3462 21.0158C45.5589 20.9206 45.7999 20.8731 46.0691 20.8731C46.448 20.8731 46.7455 20.9565 46.9615 21.1235C47.1793 21.2904 47.3338 21.5108 47.4252 21.7846Z" fill="#272D36"/>
<path d="M49.9361 24.8495C49.5771 24.8495 49.268 24.7644 49.0088 24.5941C48.7495 24.4239 48.5501 24.1893 48.4105 23.8905C48.2709 23.5917 48.2011 23.2503 48.2011 22.8663C48.2011 22.4757 48.2726 22.131 48.4155 21.8321C48.5601 21.5316 48.7612 21.2971 49.0187 21.1285C49.278 20.9582 49.5805 20.8731 49.9261 20.8731C50.1954 20.8731 50.438 20.9232 50.654 21.0233C50.8701 21.1235 51.0471 21.2637 51.185 21.444C51.3229 21.6243 51.4085 21.8346 51.4418 22.075H50.8535C50.8086 21.8997 50.7089 21.7445 50.5543 21.6093C50.4014 21.4724 50.1954 21.4039 49.9361 21.4039C49.7068 21.4039 49.5057 21.464 49.3328 21.5842C49.1617 21.7028 49.0279 21.8705 48.9315 22.0875C48.8368 22.3029 48.7894 22.5558 48.7894 22.8463C48.7894 23.1434 48.8359 23.4022 48.929 23.6225C49.0237 23.8429 49.1567 24.014 49.3279 24.1359C49.5007 24.2577 49.7034 24.3187 49.9361 24.3187C50.089 24.3187 50.2278 24.292 50.3524 24.2385C50.477 24.1851 50.5826 24.1083 50.669 24.0082C50.7554 23.908 50.8169 23.7878 50.8535 23.6476H51.4418C51.4085 23.8746 51.3263 24.0791 51.195 24.2611C51.0654 24.4414 50.8933 24.5849 50.679 24.6918C50.4662 24.797 50.2186 24.8495 49.9361 24.8495Z" fill="#272D36"/>
<path d="M53.8573 24.8495C53.5116 24.8495 53.2083 24.7669 52.9474 24.6016C52.6882 24.4364 52.4854 24.2052 52.3392 23.908C52.1946 23.6109 52.1223 23.2636 52.1223 22.8663C52.1223 22.4657 52.1946 22.1159 52.3392 21.8171C52.4854 21.5183 52.6882 21.2862 52.9474 21.121C53.2083 20.9557 53.5116 20.8731 53.8573 20.8731C54.203 20.8731 54.5054 20.9557 54.7647 21.121C55.0256 21.2862 55.2284 21.5183 55.3729 21.8171C55.5192 22.1159 55.5923 22.4657 55.5923 22.8663C55.5923 23.2636 55.5192 23.6109 55.3729 23.908C55.2284 24.2052 55.0256 24.4364 54.7647 24.6016C54.5054 24.7669 54.203 24.8495 53.8573 24.8495ZM53.8573 24.3187C54.1199 24.3187 54.3359 24.2511 54.5054 24.1158C54.675 23.9806 54.8004 23.8028 54.8819 23.5825C54.9633 23.3621 55.004 23.1234 55.004 22.8663C55.004 22.6092 54.9633 22.3697 54.8819 22.1476C54.8004 21.9256 54.675 21.7462 54.5054 21.6093C54.3359 21.4724 54.1199 21.4039 53.8573 21.4039C53.5947 21.4039 53.3787 21.4724 53.2092 21.6093C53.0397 21.7462 52.9142 21.9256 52.8328 22.1476C52.7513 22.3697 52.7106 22.6092 52.7106 22.8663C52.7106 23.1234 52.7513 23.3621 52.8328 23.5825C52.9142 23.8028 53.0397 23.9806 53.2092 24.1158C53.3787 24.2511 53.5947 24.3187 53.8573 24.3187Z" fill="#272D36"/>
<path d="M56.4903 24.7694V20.9232H57.0587V21.5041H57.0986C57.1684 21.3138 57.2947 21.1594 57.4775 21.0408C57.6603 20.9223 57.8664 20.8631 58.0957 20.8631C58.1389 20.8631 58.1929 20.8639 58.2578 20.8656C58.3226 20.8672 58.3716 20.8697 58.4048 20.8731V21.474C58.3849 21.469 58.3392 21.4615 58.2677 21.4515C58.1979 21.4398 58.124 21.434 58.0459 21.434C57.8597 21.434 57.6935 21.4732 57.5473 21.5517C57.4027 21.6285 57.288 21.7353 57.2033 21.8722C57.1202 22.0074 57.0787 22.1618 57.0787 22.3355V24.7694H56.4903Z" fill="#272D36"/>
<path d="M59.1022 24.7694V20.9232H59.6905V24.7694H59.1022ZM59.4013 20.2821C59.2867 20.2821 59.1878 20.2429 59.1047 20.1644C59.0233 20.086 58.9825 19.9916 58.9825 19.8815C58.9825 19.7713 59.0233 19.677 59.1047 19.5985C59.1878 19.52 59.2867 19.4808 59.4013 19.4808C59.516 19.4808 59.6141 19.52 59.6955 19.5985C59.7786 19.677 59.8201 19.7713 59.8201 19.8815C59.8201 19.9916 59.7786 20.086 59.6955 20.1644C59.6141 20.2429 59.516 20.2821 59.4013 20.2821Z" fill="#272D36"/>
<path d="M61.3563 22.4556V24.7694H60.768V20.9232H61.3364V21.5241H61.3862C61.476 21.3288 61.6123 21.1719 61.7951 21.0534C61.9779 20.9332 62.2139 20.8731 62.503 20.8731C62.7623 20.8731 62.9891 20.9265 63.1836 21.0333C63.378 21.1385 63.5292 21.2988 63.6373 21.5141C63.7453 21.7278 63.7993 21.9982 63.7993 22.3254V24.7694H63.211V22.3655C63.211 22.0633 63.1329 21.828 62.9767 21.6594C62.8204 21.4891 62.6061 21.4039 62.3335 21.4039C62.1457 21.4039 61.9779 21.4448 61.83 21.5266C61.6837 21.6084 61.5682 21.7278 61.4835 21.8847C61.3987 22.0416 61.3563 22.2319 61.3563 22.4556Z" fill="#272D36"/>
<path d="M66.4199 26.2919C66.1357 26.2919 65.8914 26.2552 65.687 26.1817C65.4826 26.1099 65.3122 26.0148 65.1759 25.8962C65.0413 25.7794 64.9341 25.6542 64.8544 25.5206L65.323 25.1901C65.3762 25.2602 65.4435 25.3403 65.5249 25.4305C65.6064 25.5223 65.7177 25.6016 65.859 25.6684C66.0019 25.7368 66.1889 25.771 66.4199 25.771C66.729 25.771 66.9841 25.6959 67.1852 25.5457C67.3863 25.3954 67.4868 25.1601 67.4868 24.8395V24.0583H67.4369C67.3937 24.1284 67.3322 24.2152 67.2525 24.3187C67.1744 24.4205 67.0614 24.5115 66.9134 24.5916C66.7672 24.6701 66.5694 24.7093 66.3202 24.7093C66.011 24.7093 65.7335 24.6359 65.4876 24.489C65.2433 24.3421 65.0496 24.1284 64.9067 23.8479C64.7655 23.5675 64.6948 23.2269 64.6948 22.8263C64.6948 22.4323 64.7638 22.0892 64.9017 21.7971C65.0397 21.5033 65.2316 21.2762 65.4776 21.116C65.7235 20.954 66.0077 20.8731 66.3301 20.8731C66.5794 20.8731 66.7772 20.9148 66.9234 20.9983C67.0713 21.0801 67.1843 21.1736 67.2624 21.2787C67.3422 21.3822 67.4037 21.4674 67.4469 21.5341H67.5067V20.9232H68.0751V24.8796C68.0751 25.2101 68.0003 25.4789 67.8507 25.6859C67.7028 25.8946 67.5034 26.0473 67.2525 26.1442C67.0032 26.2426 66.7257 26.2919 66.4199 26.2919ZM66.3999 24.1785C66.6359 24.1785 66.8353 24.1242 66.9982 24.0157C67.1611 23.9072 67.2849 23.7511 67.3696 23.5474C67.4544 23.3438 67.4968 23.1 67.4968 22.8162C67.4968 22.5391 67.4552 22.2946 67.3721 22.0825C67.289 21.8705 67.166 21.7044 67.0032 21.5842C66.8403 21.464 66.6392 21.4039 66.3999 21.4039C66.1506 21.4039 65.9429 21.4674 65.7767 21.5942C65.6122 21.7211 65.4884 21.8914 65.4053 22.1051C65.3239 22.3188 65.2831 22.5558 65.2831 22.8162C65.2831 23.0833 65.3247 23.3196 65.4078 23.5249C65.4925 23.7286 65.6172 23.8888 65.7817 24.0057C65.9479 24.1209 66.154 24.1785 66.3999 24.1785Z" fill="#272D36"/>
<path d="M71.9938 24.7694L70.8272 20.9232H71.4454L72.273 23.8679H72.3129L73.1305 20.9232H73.7587L74.5664 23.8579H74.6063L75.4339 20.9232H76.0521L74.8855 24.7694H74.3071L73.4696 21.8146H73.4097L72.5721 24.7694H71.9938Z" fill="#272D36"/>
<path d="M76.8299 24.7694V20.9232H77.4182V24.7694H76.8299ZM77.129 20.2821C77.0143 20.2821 76.9155 20.2429 76.8324 20.1644C76.7509 20.086 76.7102 19.9916 76.7102 19.8815C76.7102 19.7713 76.7509 19.677 76.8324 19.5985C76.9155 19.52 77.0143 19.4808 77.129 19.4808C77.2437 19.4808 77.3417 19.52 77.4232 19.5985C77.5063 19.677 77.5478 19.7713 77.5478 19.8815C77.5478 19.9916 77.5063 20.086 77.4232 20.1644C77.3417 20.2429 77.2437 20.2821 77.129 20.2821Z" fill="#272D36"/>
<path d="M80.1609 20.9232V21.424H78.1766V20.9232H80.1609ZM78.755 20.0017H79.3433V23.6676C79.3433 23.8346 79.3674 23.9598 79.4156 24.0432C79.4654 24.125 79.5286 24.1801 79.605 24.2085C79.6831 24.2352 79.7654 24.2486 79.8518 24.2486C79.9166 24.2486 79.9698 24.2452 80.0113 24.2385C80.0529 24.2302 80.0861 24.2235 80.111 24.2185L80.2307 24.7494C80.1908 24.7644 80.1351 24.7794 80.0637 24.7945C79.9922 24.8111 79.9017 24.8195 79.792 24.8195C79.6258 24.8195 79.4629 24.7836 79.3034 24.7118C79.1455 24.64 79.0142 24.5307 78.9095 24.3838C78.8065 24.2369 78.755 24.0516 78.755 23.8279V20.0017Z" fill="#272D36"/>
<path d="M81.7164 22.4556V24.7694H81.1281V19.6411H81.7164V21.5241H81.7663C81.856 21.3255 81.9906 21.1677 82.1701 21.0509C82.3513 20.9323 82.5922 20.8731 82.893 20.8731C83.154 20.8731 83.3825 20.9257 83.5786 21.0308C83.7747 21.1343 83.9267 21.2938 84.0348 21.5091C84.1444 21.7228 84.1993 21.9949 84.1993 22.3254V24.7694H83.611V22.3655C83.611 22.06 83.532 21.8238 83.3742 21.6568C83.2179 21.4882 83.0011 21.4039 82.7235 21.4039C82.5307 21.4039 82.3579 21.4448 82.205 21.5266C82.0538 21.6084 81.9341 21.7278 81.8461 21.8847C81.7596 22.0416 81.7164 22.2319 81.7164 22.4556Z" fill="#272D36"/>
<path d="M87.539 24.7694H86.8909L88.7655 19.6411H89.4037L91.2783 24.7694H90.6301L89.1045 20.4524H89.0646L87.539 24.7694ZM87.7783 22.7662H90.3908V23.317H87.7783V22.7662Z" fill="#272D36"/>
<path d="M92.6917 19.6411V24.7694H92.0735V19.6411H92.6917Z" fill="#272D36"/>
</svg>
