<svg width="108" height="33" viewBox="0 0 108 33" fill="none" xmlns="http://www.w3.org/2000/svg">
<g opacity="0.6">
<rect width="108" height="33" rx="5" fill="white"/>
<path d="M46.158 8.07922H44.8654V20.0064H46.158V8.07922Z" fill="#4A5157"/>
<path d="M41.0838 20.3314V16.0812H31.359V20.3314H29.9988V13.2765C29.9988 12.2989 30.1437 11.4503 30.4333 10.7308C30.6967 10.0493 31.125 9.43888 31.6825 8.95055C32.2516 8.46956 32.9211 8.11274 33.6455 7.90433C35.33 7.444 37.1135 7.444 38.7981 7.90433C39.5221 8.11292 40.1913 8.46973 40.7603 8.95055C41.3182 9.43973 41.7465 10.0513 42.0094 10.7338C42.2996 11.4538 42.4447 12.3024 42.4447 13.2795V20.3344L41.0838 20.3314ZM31.359 14.8301H41.0838V13.3846C41.0838 12.5505 40.9723 11.842 40.7494 11.2591C40.5545 10.7189 40.2248 10.2335 39.7896 9.84592C39.3501 9.47526 38.8269 9.20946 38.2619 9.06989C36.9211 8.75268 35.5209 8.75268 34.18 9.06989C33.6148 9.2092 33.0912 9.47502 32.6516 9.84592C32.2168 10.2334 31.8878 10.7189 31.6941 11.2591C31.4707 11.842 31.359 12.5505 31.359 13.3846V14.8301Z" fill="#4A5157"/>
<path d="M48.7567 11.3132C48.7567 10.6663 48.9204 10.1089 49.2478 9.64105C49.5845 9.16499 50.0263 8.76716 50.5412 8.47625C51.0993 8.15805 51.7049 7.92515 52.3366 7.78578C52.9908 7.63619 53.6607 7.56063 54.3329 7.56062C54.7352 7.56237 55.1371 7.58391 55.5371 7.62517C55.9852 7.67146 56.4291 7.751 56.8646 7.86308C57.3336 7.98317 57.7922 8.13824 58.2364 8.3269C58.7124 8.5291 59.1617 8.7856 59.5748 9.09092L58.7267 10.1266C58.1398 9.71338 57.4887 9.39292 56.7979 9.17724C56.0079 8.93737 55.1834 8.82083 54.3554 8.832C53.8644 8.83365 53.3749 8.88395 52.8944 8.9821C52.4257 9.07239 51.9718 9.22388 51.5452 9.43241C51.1633 9.61881 50.8254 9.87971 50.5528 10.1987C50.2942 10.5058 50.1567 10.8917 50.1649 11.2877C50.1649 11.6765 50.2425 12.0002 50.3977 12.2589C50.5504 12.5141 50.7698 12.7261 51.0339 12.8735C51.3234 13.0341 51.6412 13.1415 51.9712 13.1902C52.3472 13.2494 52.7276 13.2782 53.1086 13.2766H55.9855C56.5746 13.2729 57.1622 13.3346 57.7367 13.4604C58.2354 13.5635 58.7094 13.7573 59.1333 14.0316C59.5175 14.2919 59.8292 14.6403 60.0403 15.0455C60.2637 15.4628 60.3752 15.9664 60.3747 16.5563C60.3747 17.2323 60.2195 17.8219 59.9092 18.3253C59.5926 18.833 59.157 19.2616 58.6375 19.5764C58.058 19.9248 57.4203 20.1732 56.7529 20.3104C55.995 20.4721 55.2208 20.5516 54.4447 20.5476C53.9024 20.5461 53.3609 20.5065 52.8246 20.429C52.265 20.3494 51.7129 20.2267 51.1735 20.062C50.6245 19.8938 50.094 19.6733 49.59 19.4038C49.0728 19.1275 48.5901 18.7945 48.1515 18.4116L49.0888 17.3759C49.7485 17.9835 50.5251 18.4601 51.3745 18.7786C52.2825 19.1164 53.2484 19.2847 54.2212 19.2747C54.8159 19.2766 55.4095 19.2264 55.9949 19.1246C56.5217 19.0389 57.0327 18.8791 57.5117 18.6503C57.9293 18.4512 58.2922 18.1593 58.5708 17.7984C58.8387 17.4457 58.9724 17.0176 58.9719 16.5143C58.9719 16.098 58.8943 15.76 58.7391 15.5003C58.585 15.2441 58.3561 15.0376 58.0812 14.9067C57.7574 14.7592 57.4105 14.6646 57.0547 14.6267C56.6172 14.5744 56.1766 14.5493 55.7357 14.5517H53.4632C52.8958 14.5518 52.3293 14.5122 51.7679 14.4331C51.2382 14.3652 50.7248 14.2082 50.251 13.9693C49.8065 13.7401 49.4332 13.4005 49.1695 12.9854C48.8943 12.5616 48.7567 12.0042 48.7567 11.3132Z" fill="#4A5157"/>
<path d="M73.3579 20.3314V16.0812H63.633V20.3314H62.2729V13.2765C62.2729 12.2989 62.4177 11.4503 62.7074 10.7308C62.9707 10.0493 63.3991 9.43888 63.9565 8.95055C64.5256 8.46956 65.1951 8.11274 65.9195 7.90433C67.6041 7.444 69.3876 7.444 71.0721 7.90433C71.7962 8.11292 72.4654 8.46973 73.0343 8.95055C73.5922 9.43973 74.0206 10.0513 74.2835 10.7338C74.5737 11.4538 74.7188 12.3024 74.7188 13.2795V20.3344L73.3579 20.3314ZM63.633 14.8301H73.3579V13.3846C73.3579 12.5505 73.2464 11.842 73.0235 11.2591C72.8292 10.7191 72.5003 10.2338 72.066 9.84592C71.6265 9.47526 71.1033 9.20946 70.5383 9.06989C69.1974 8.75268 67.7973 8.75268 66.4564 9.06989C65.8911 9.2092 65.3676 9.47502 64.9279 9.84592C64.4923 10.2331 64.1626 10.7186 63.9682 11.2591C63.7447 11.842 63.633 12.5505 63.633 13.3846V14.8301Z" fill="#4A5157"/>
<path d="M30.9797 22.1441C30.9603 21.9859 30.8818 21.8631 30.744 21.7757C30.6063 21.6883 30.4374 21.6446 30.2373 21.6446C30.091 21.6446 29.963 21.6675 29.8533 21.7132C29.7446 21.759 29.6596 21.822 29.5983 21.9021C29.538 21.9823 29.5079 22.0733 29.5079 22.1753C29.5079 22.2606 29.5289 22.334 29.5708 22.3954C29.6139 22.4558 29.6687 22.5062 29.7355 22.5468C29.8022 22.5864 29.8721 22.6191 29.9452 22.6452C30.0184 22.6701 30.0856 22.6904 30.147 22.706L30.4826 22.7935C30.5687 22.8153 30.6644 22.8455 30.7699 22.884C30.8764 22.9225 30.978 22.9751 31.0749 23.0417C31.1728 23.1072 31.2535 23.1915 31.3169 23.2945C31.3804 23.3976 31.4121 23.524 31.4121 23.6739C31.4121 23.8466 31.3653 24.0027 31.2717 24.1422C31.1792 24.2816 31.0437 24.3924 30.8651 24.4747C30.6876 24.5569 30.4719 24.598 30.218 24.598C29.9813 24.598 29.7763 24.561 29.6031 24.4871C29.431 24.4133 29.2954 24.3102 29.1965 24.1781C29.0986 24.0459 29.0432 23.8924 29.0302 23.7176H29.4434C29.4541 23.8383 29.4961 23.9382 29.5692 24.0173C29.6435 24.0953 29.7371 24.1536 29.85 24.1921C29.9641 24.2296 30.0867 24.2483 30.218 24.2483C30.3707 24.2483 30.5079 24.2244 30.6295 24.1765C30.751 24.1276 30.8473 24.06 30.9183 23.9736C30.9893 23.8862 31.0248 23.7842 31.0248 23.6676C31.0248 23.5615 30.9942 23.4751 30.9329 23.4085C30.8715 23.3419 30.7908 23.2878 30.6908 23.2462C30.5907 23.2045 30.4826 23.1681 30.3664 23.1369L29.9598 23.0245C29.7016 22.9527 29.4972 22.8502 29.3465 22.717C29.1959 22.5838 29.1206 22.4095 29.1206 22.194C29.1206 22.015 29.1706 21.8589 29.2707 21.7257C29.3718 21.5915 29.5074 21.4874 29.6774 21.4135C29.8484 21.3386 30.0394 21.3011 30.2502 21.3011C30.4633 21.3011 30.6526 21.3381 30.8183 21.412C30.984 21.4848 31.1152 21.5847 31.212 21.7117C31.3099 21.8386 31.3616 21.9828 31.367 22.1441H30.9797Z" fill="#4A5157"/>
<path d="M32.0185 25.4409V22.1441H32.3864V22.525H32.4316C32.4596 22.4833 32.4983 22.4303 32.5478 22.3657C32.5984 22.3002 32.6705 22.2419 32.7641 22.1909C32.8587 22.1389 32.9868 22.1129 33.1481 22.1129C33.3568 22.1129 33.5408 22.1633 33.7 22.2643C33.8593 22.3652 33.9835 22.5083 34.0728 22.6936C34.1621 22.8788 34.2067 23.0973 34.2067 23.3492C34.2067 23.6031 34.1621 23.8232 34.0728 24.0095C33.9835 24.1947 33.8598 24.3383 33.7016 24.4403C33.5435 24.5413 33.3611 24.5917 33.1546 24.5917C32.9954 24.5917 32.8679 24.5662 32.7721 24.5152C32.6764 24.4632 32.6027 24.4044 32.551 24.3388C32.4994 24.2722 32.4596 24.2171 32.4316 24.1734H32.3993V25.4409H32.0185ZM32.3929 23.3429C32.3929 23.524 32.4203 23.6838 32.4752 23.8222C32.5301 23.9595 32.6102 24.0672 32.7156 24.1453C32.8211 24.2223 32.9502 24.2608 33.1029 24.2608C33.2622 24.2608 33.395 24.2202 33.5015 24.139C33.6091 24.0568 33.6898 23.9465 33.7436 23.8081C33.7985 23.6687 33.8259 23.5136 33.8259 23.3429C33.8259 23.1743 33.799 23.0224 33.7452 22.8871C33.6925 22.7508 33.6124 22.6431 33.5048 22.564C33.3983 22.4839 33.2643 22.4438 33.1029 22.4438C32.948 22.4438 32.8178 22.4818 32.7124 22.5577C32.607 22.6327 32.5274 22.7378 32.4736 22.8731C32.4198 23.0073 32.3929 23.1639 32.3929 23.3429Z" fill="#4A5157"/>
<path d="M35.827 24.5917C35.5881 24.5917 35.3821 24.5407 35.2089 24.4388C35.0368 24.3357 34.9039 24.1921 34.8103 24.0079C34.7178 23.8227 34.6715 23.6073 34.6715 23.3617C34.6715 23.1161 34.7178 22.8996 34.8103 22.7123C34.9039 22.5239 35.0341 22.3772 35.2008 22.2721C35.3686 22.1659 35.5645 22.1129 35.7882 22.1129C35.9173 22.1129 36.0448 22.1337 36.1707 22.1753C36.2966 22.2169 36.4111 22.2846 36.5144 22.3782C36.6177 22.4709 36.7 22.5937 36.7613 22.7466C36.8226 22.8996 36.8533 23.088 36.8533 23.3117V23.4678H34.9426V23.1494H36.466C36.466 23.0141 36.438 22.8934 36.3821 22.7872C36.3272 22.6811 36.2487 22.5973 36.1465 22.5359C36.0453 22.4745 35.9259 22.4438 35.7882 22.4438C35.6365 22.4438 35.5053 22.4802 35.3945 22.5531C35.2847 22.6249 35.2003 22.7185 35.1411 22.834C35.0819 22.9496 35.0524 23.0734 35.0524 23.2056V23.4179C35.0524 23.5989 35.0846 23.7524 35.1492 23.8784C35.2148 24.0032 35.3057 24.0985 35.4219 24.164C35.5381 24.2285 35.6731 24.2608 35.827 24.2608C35.927 24.2608 36.0174 24.2473 36.0981 24.2202C36.1798 24.1921 36.2503 24.1505 36.3095 24.0953C36.3686 24.0391 36.4144 23.9694 36.4466 23.8862L36.8146 23.9861C36.7758 24.1068 36.7108 24.2129 36.6193 24.3045C36.5279 24.395 36.4149 24.4658 36.2804 24.5168C36.1459 24.5668 35.9948 24.5917 35.827 24.5917Z" fill="#4A5157"/>
<path d="M37.4326 24.5418V22.1441H37.8006V22.5062H37.8264C37.8716 22.3876 37.9533 22.2913 38.0717 22.2175C38.19 22.1436 38.3234 22.1066 38.4719 22.1066C38.4999 22.1066 38.5348 22.1071 38.5768 22.1082C38.6187 22.1092 38.6505 22.1108 38.672 22.1129V22.4875C38.6591 22.4844 38.6295 22.4797 38.5832 22.4735C38.5381 22.4662 38.4902 22.4625 38.4396 22.4625C38.3191 22.4625 38.2115 22.487 38.1169 22.5359C38.0233 22.5838 37.949 22.6504 37.8942 22.7357C37.8404 22.82 37.8135 22.9163 37.8135 23.0245V24.5418H37.4326Z" fill="#4A5157"/>
<path d="M39.1234 24.5418V22.1441H39.4914V22.5187H39.5237C39.5753 22.3907 39.6587 22.2913 39.7738 22.2206C39.8889 22.1488 40.0271 22.1129 40.1885 22.1129C40.352 22.1129 40.4881 22.1488 40.5968 22.2206C40.7065 22.2913 40.7921 22.3907 40.8534 22.5187H40.8792C40.9427 22.3949 41.0379 22.2965 41.1648 22.2237C41.2918 22.1498 41.444 22.1129 41.6215 22.1129C41.8431 22.1129 42.0244 22.18 42.1654 22.3142C42.3063 22.4474 42.3768 22.6551 42.3768 22.9371V24.5418H41.9959V22.9371C41.9959 22.7602 41.9459 22.6337 41.8458 22.5577C41.7458 22.4818 41.628 22.4438 41.4924 22.4438C41.3181 22.4438 41.1831 22.4948 41.0874 22.5968C40.9916 22.6977 40.9438 22.8257 40.9438 22.9808V24.5418H40.5565V22.8996C40.5565 22.7633 40.5107 22.6535 40.4193 22.5702C40.3278 22.4859 40.21 22.4438 40.0659 22.4438C39.9669 22.4438 39.8744 22.4693 39.7883 22.5203C39.7033 22.5713 39.6345 22.642 39.5817 22.7326C39.5301 22.8221 39.5043 22.9256 39.5043 23.0432V24.5418H39.1234Z" fill="#4A5157"/>
<path d="M46.1069 22.6811L45.7648 22.7747C45.7433 22.7196 45.7116 22.666 45.6696 22.6139C45.6287 22.5609 45.5728 22.5172 45.5018 22.4828C45.4308 22.4485 45.3399 22.4313 45.2291 22.4313C45.0774 22.4313 44.951 22.4651 44.8498 22.5328C44.7498 22.5994 44.6998 22.6842 44.6998 22.7872C44.6998 22.8788 44.7342 22.9511 44.803 23.0042C44.8719 23.0573 44.9795 23.1015 45.1258 23.1369L45.4937 23.2243C45.7153 23.2763 45.8805 23.3559 45.9891 23.4631C46.0978 23.5693 46.1521 23.7061 46.1521 23.8737C46.1521 24.011 46.1112 24.1338 46.0295 24.2421C45.9488 24.3503 45.8358 24.4356 45.6906 24.4981C45.5454 24.5605 45.3765 24.5917 45.1839 24.5917C44.9311 24.5917 44.7218 24.5387 44.5561 24.4325C44.3905 24.3264 44.2856 24.1713 44.2415 23.9673L44.6029 23.8799C44.6374 24.009 44.7024 24.1057 44.7982 24.1703C44.895 24.2348 45.0214 24.267 45.1774 24.267C45.3549 24.267 45.4959 24.2306 45.6002 24.1578C45.7057 24.0839 45.7584 23.9954 45.7584 23.8924C45.7584 23.8092 45.7283 23.7394 45.668 23.6832C45.6078 23.626 45.5152 23.5833 45.3904 23.5552L44.9773 23.4616C44.7503 23.4095 44.5836 23.3289 44.4771 23.2196C44.3716 23.1093 44.3189 22.9714 44.3189 22.8059C44.3189 22.6707 44.3582 22.551 44.4367 22.4469C44.5163 22.3429 44.6244 22.2612 44.7611 22.2018C44.8988 22.1425 45.0548 22.1129 45.2291 22.1129C45.4744 22.1129 45.6669 22.1649 45.8068 22.269C45.9477 22.373 46.0478 22.5104 46.1069 22.6811Z" fill="#4A5157"/>
<path d="M47.7647 24.5917C47.5258 24.5917 47.3198 24.5407 47.1466 24.4388C46.9745 24.3357 46.8416 24.1921 46.748 24.0079C46.6555 23.8227 46.6092 23.6073 46.6092 23.3617C46.6092 23.1161 46.6555 22.8996 46.748 22.7123C46.8416 22.5239 46.9718 22.3772 47.1385 22.2721C47.3064 22.1659 47.5022 22.1129 47.7259 22.1129C47.855 22.1129 47.9825 22.1337 48.1084 22.1753C48.2343 22.2169 48.3488 22.2846 48.4521 22.3782C48.5554 22.4709 48.6377 22.5937 48.699 22.7466C48.7604 22.8996 48.791 23.088 48.791 23.3117V23.4678H46.8803V23.1494H48.4037C48.4037 23.0141 48.3757 22.8934 48.3198 22.7872C48.2649 22.6811 48.1864 22.5973 48.0842 22.5359C47.9831 22.4745 47.8636 22.4438 47.7259 22.4438C47.5742 22.4438 47.443 22.4802 47.3322 22.5531C47.2225 22.6249 47.138 22.7185 47.0788 22.834C47.0197 22.9496 46.9901 23.0734 46.9901 23.2056V23.4179C46.9901 23.5989 47.0223 23.7524 47.0869 23.8784C47.1525 24.0032 47.2434 24.0985 47.3596 24.164C47.4758 24.2285 47.6108 24.2608 47.7647 24.2608C47.8647 24.2608 47.9551 24.2473 48.0358 24.2202C48.1175 24.1921 48.188 24.1505 48.2472 24.0953C48.3064 24.0391 48.3521 23.9694 48.3843 23.8862L48.7523 23.9861C48.7136 24.1068 48.6485 24.2129 48.557 24.3045C48.4656 24.395 48.3526 24.4658 48.2181 24.5168C48.0837 24.5668 47.9325 24.5917 47.7647 24.5917Z" fill="#4A5157"/>
<path d="M49.7512 21.3449V24.5418H49.3703V21.3449H49.7512Z" fill="#4A5157"/>
<path d="M51.488 24.5917C51.2492 24.5917 51.0431 24.5407 50.8699 24.4388C50.6978 24.3357 50.5649 24.1921 50.4713 24.0079C50.3788 23.8227 50.3325 23.6073 50.3325 23.3617C50.3325 23.1161 50.3788 22.8996 50.4713 22.7123C50.5649 22.5239 50.6951 22.3772 50.8619 22.2721C51.0297 22.1659 51.2255 22.1129 51.4493 22.1129C51.5784 22.1129 51.7059 22.1337 51.8317 22.1753C51.9576 22.2169 52.0722 22.2846 52.1755 22.3782C52.2787 22.4709 52.361 22.5937 52.4224 22.7466C52.4837 22.8996 52.5143 23.088 52.5143 23.3117V23.4678H50.6037V23.1494H52.127C52.127 23.0141 52.0991 22.8934 52.0431 22.7872C51.9883 22.6811 51.9097 22.5973 51.8075 22.5359C51.7064 22.4745 51.587 22.4438 51.4493 22.4438C51.2976 22.4438 51.1663 22.4802 51.0555 22.5531C50.9458 22.6249 50.8613 22.7185 50.8022 22.834C50.743 22.9496 50.7134 23.0734 50.7134 23.2056V23.4179C50.7134 23.5989 50.7457 23.7524 50.8102 23.8784C50.8758 24.0032 50.9668 24.0985 51.0829 24.164C51.1991 24.2285 51.3341 24.2608 51.488 24.2608C51.588 24.2608 51.6784 24.2473 51.7591 24.2202C51.8409 24.1921 51.9113 24.1505 51.9705 24.0953C52.0297 24.0391 52.0754 23.9694 52.1077 23.8862L52.4756 23.9861C52.4369 24.1068 52.3718 24.2129 52.2803 24.3045C52.1889 24.395 52.0759 24.4658 51.9415 24.5168C51.807 24.5668 51.6558 24.5917 51.488 24.5917Z" fill="#4A5157"/>
<path d="M54.1007 24.5917C53.8683 24.5917 53.6682 24.5387 53.5003 24.4325C53.3325 24.3264 53.2034 24.1801 53.113 23.9939C53.0227 23.8076 52.9775 23.5948 52.9775 23.3554C52.9775 23.1119 53.0237 22.897 53.1163 22.7107C53.2099 22.5234 53.34 22.3772 53.5068 22.2721C53.6746 22.1659 53.8704 22.1129 54.0942 22.1129C54.2685 22.1129 54.4256 22.1441 54.5654 22.2065C54.7053 22.269 54.8198 22.3564 54.9091 22.4688C54.9984 22.5812 55.0538 22.7123 55.0754 22.8621H54.6945C54.6655 22.7529 54.6009 22.6561 54.5009 22.5718C54.4019 22.4865 54.2685 22.4438 54.1007 22.4438C53.9522 22.4438 53.822 22.4813 53.7101 22.5562C53.5993 22.6301 53.5127 22.7347 53.4503 22.8699C53.389 23.0042 53.3583 23.1619 53.3583 23.3429C53.3583 23.5282 53.3885 23.6895 53.4487 23.8268C53.51 23.9642 53.5961 24.0709 53.7069 24.1468C53.8188 24.2228 53.95 24.2608 54.1007 24.2608C54.1996 24.2608 54.2895 24.2441 54.3702 24.2108C54.4508 24.1775 54.5192 24.1297 54.5751 24.0672C54.631 24.0048 54.6708 23.9299 54.6945 23.8425H55.0754C55.0538 23.984 55.0006 24.1115 54.9156 24.2249C54.8317 24.3373 54.7203 24.4268 54.5816 24.4934C54.4438 24.559 54.2835 24.5917 54.1007 24.5917Z" fill="#4A5157"/>
<path d="M56.7101 22.1441V22.4563H55.4255V22.1441H56.7101ZM55.7999 21.5696H56.1808V23.8549C56.1808 23.959 56.1964 24.0371 56.2276 24.0891C56.2599 24.1401 56.3007 24.1744 56.3502 24.1921C56.4008 24.2088 56.454 24.2171 56.51 24.2171C56.5519 24.2171 56.5864 24.215 56.6133 24.2108C56.6402 24.2056 56.6617 24.2015 56.6778 24.1984L56.7553 24.5293C56.7295 24.5387 56.6934 24.548 56.6472 24.5574C56.6009 24.5678 56.5423 24.573 56.4713 24.573C56.3637 24.573 56.2582 24.5506 56.155 24.5059C56.0528 24.4611 55.9678 24.393 55.9 24.3014C55.8333 24.2098 55.7999 24.0943 55.7999 23.9548V21.5696Z" fill="#4A5157"/>
<path d="M57.283 24.5418V22.1441H57.6638V24.5418H57.283ZM57.4766 21.7445C57.4024 21.7445 57.3384 21.72 57.2846 21.6711C57.2319 21.6222 57.2055 21.5634 57.2055 21.4947C57.2055 21.426 57.2319 21.3672 57.2846 21.3183C57.3384 21.2694 57.4024 21.2449 57.4766 21.2449C57.5509 21.2449 57.6143 21.2694 57.667 21.3183C57.7208 21.3672 57.7477 21.426 57.7477 21.4947C57.7477 21.5634 57.7208 21.6222 57.667 21.6711C57.6143 21.72 57.5509 21.7445 57.4766 21.7445Z" fill="#4A5157"/>
<path d="M59.3683 24.5917C59.1446 24.5917 58.9482 24.5402 58.7793 24.4372C58.6115 24.3342 58.4802 24.19 58.3856 24.0048C58.292 23.8196 58.2452 23.6031 58.2452 23.3554C58.2452 23.1057 58.292 22.8876 58.3856 22.7014C58.4802 22.5151 58.6115 22.3704 58.7793 22.2674C58.9482 22.1644 59.1446 22.1129 59.3683 22.1129C59.5921 22.1129 59.7879 22.1644 59.9557 22.2674C60.1247 22.3704 60.2559 22.5151 60.3495 22.7014C60.4442 22.8876 60.4915 23.1057 60.4915 23.3554C60.4915 23.6031 60.4442 23.8196 60.3495 24.0048C60.2559 24.19 60.1247 24.3342 59.9557 24.4372C59.7879 24.5402 59.5921 24.5917 59.3683 24.5917ZM59.3683 24.2608C59.5383 24.2608 59.6782 24.2187 59.7879 24.1344C59.8976 24.0501 59.9789 23.9392 60.0316 23.8019C60.0843 23.6645 60.1107 23.5157 60.1107 23.3554C60.1107 23.1952 60.0843 23.0458 60.0316 22.9074C59.9789 22.769 59.8976 22.6571 59.7879 22.5718C59.6782 22.4865 59.5383 22.4438 59.3683 22.4438C59.1984 22.4438 59.0585 22.4865 58.9488 22.5718C58.839 22.6571 58.7578 22.769 58.7051 22.9074C58.6524 23.0458 58.626 23.1952 58.626 23.3554C58.626 23.5157 58.6524 23.6645 58.7051 23.8019C58.7578 23.9392 58.839 24.0501 58.9488 24.1344C59.0585 24.2187 59.1984 24.2608 59.3683 24.2608Z" fill="#4A5157"/>
<path d="M61.4537 23.0994V24.5418H61.0729V22.1441H61.4408V22.5187H61.4731C61.5312 22.397 61.6194 22.2991 61.7377 22.2253C61.8561 22.1503 62.0088 22.1129 62.196 22.1129C62.3639 22.1129 62.5107 22.1462 62.6366 22.2128C62.7625 22.2783 62.8604 22.3782 62.9303 22.5125C63.0002 22.6457 63.0352 22.8143 63.0352 23.0182V24.5418H62.6543V23.0432C62.6543 22.8549 62.6038 22.7081 62.5026 22.603C62.4015 22.4969 62.2627 22.4438 62.0863 22.4438C61.9647 22.4438 61.8561 22.4693 61.7603 22.5203C61.6656 22.5713 61.5909 22.6457 61.536 22.7435C61.4811 22.8413 61.4537 22.96 61.4537 23.0994Z" fill="#4A5157"/>
<path d="M65.5708 24.5418L64.8156 22.1441H65.2158L65.7515 23.9798H65.7773L66.3067 22.1441H66.7133L67.2362 23.9736H67.262L67.7978 22.1441H68.198L67.4427 24.5418H67.0683L66.5261 22.6998H66.4874L65.9452 24.5418H65.5708Z" fill="#4A5157"/>
<path d="M68.7015 24.5418V22.1441H69.0823V24.5418H68.7015ZM68.8951 21.7445C68.8209 21.7445 68.7569 21.72 68.7031 21.6711C68.6504 21.6222 68.624 21.5634 68.624 21.4947C68.624 21.426 68.6504 21.3672 68.7031 21.3183C68.7569 21.2694 68.8209 21.2449 68.8951 21.2449C68.9693 21.2449 69.0328 21.2694 69.0855 21.3183C69.1393 21.3672 69.1662 21.426 69.1662 21.4947C69.1662 21.5634 69.1393 21.6222 69.0855 21.6711C69.0328 21.72 68.9693 21.7445 68.8951 21.7445Z" fill="#4A5157"/>
<path d="M70.8578 22.1441V22.4563H69.5733V22.1441H70.8578ZM69.9477 21.5696H70.3285V23.8549C70.3285 23.959 70.3441 24.0371 70.3753 24.0891C70.4076 24.1401 70.4485 24.1744 70.498 24.1921C70.5485 24.2088 70.6018 24.2171 70.6577 24.2171C70.6997 24.2171 70.7341 24.215 70.761 24.2108C70.7879 24.2056 70.8094 24.2015 70.8256 24.1984L70.903 24.5293C70.8772 24.5387 70.8412 24.548 70.7949 24.5574C70.7486 24.5678 70.69 24.573 70.619 24.573C70.5114 24.573 70.406 24.5506 70.3027 24.5059C70.2005 24.4611 70.1155 24.393 70.0477 24.3014C69.981 24.2098 69.9477 24.0943 69.9477 23.9548V21.5696Z" fill="#4A5157"/>
<path d="M71.8648 23.0994V24.5418H71.484V21.3449H71.8648V22.5187H71.8971C71.9552 22.3949 72.0423 22.2965 72.1585 22.2237C72.2758 22.1498 72.4318 22.1129 72.6265 22.1129C72.7954 22.1129 72.9433 22.1456 73.0703 22.2112C73.1972 22.2757 73.2957 22.3751 73.3656 22.5094C73.4366 22.6426 73.4721 22.8122 73.4721 23.0182V24.5418H73.0913V23.0432C73.0913 22.8528 73.0402 22.7055 72.938 22.6015C72.8368 22.4964 72.6964 22.4438 72.5168 22.4438C72.392 22.4438 72.2801 22.4693 72.1811 22.5203C72.0832 22.5713 72.0057 22.6457 71.9487 22.7435C71.8928 22.8413 71.8648 22.96 71.8648 23.0994Z" fill="#4A5157"/>
<path d="M75.6341 24.5418H75.2146L76.4281 21.3449H76.8412L78.0548 24.5418H77.6352L76.6476 21.8506H76.6217L75.6341 24.5418ZM75.7891 23.293H77.4803V23.6364H75.7891V23.293Z" fill="#4A5157"/>
<path d="M78.9698 21.3449V24.5418H78.5695V21.3449H78.9698Z" fill="#4A5157"/>
</g>
</svg>
