<svg width="100" height="33" viewBox="0 0 100 33" fill="none" xmlns="http://www.w3.org/2000/svg">
<g opacity="0.6">
<rect width="100" height="33" rx="5" fill="white"/>
<path d="M34.6904 6.34089H30.0013C29.2816 6.33275 28.5641 6.44269 27.8664 6.668C27.2537 6.86118 26.6804 7.21918 26.1849 7.71805C25.7066 8.21763 25.331 8.85883 25.0909 9.5859C24.8285 10.3492 24.6976 11.2738 24.6981 12.3599V12.5474H34.6409V14.3662H24.699V14.8678C24.699 15.9538 24.8299 16.8785 25.0918 17.6417C25.3314 18.3676 25.7064 19.0077 26.184 19.5063C26.6792 20.0064 27.2526 20.3652 27.8655 20.5585C28.5632 20.7838 29.2807 20.8938 30.0004 20.8857H34.6896V22.7393H30.0013C29.05 22.754 28.1025 22.5849 27.1909 22.2377C26.3981 21.9398 25.6651 21.4265 25.0423 20.733C24.4478 20.0541 23.982 19.2114 23.6802 18.2687C23.3608 17.2968 23.2011 16.1632 23.2011 14.8678V12.3599C23.2011 11.0856 23.3608 9.95881 23.6802 8.97964C23.9804 8.03243 24.4463 7.18542 25.0423 6.50336C25.6656 5.81066 26.3984 5.29745 27.1909 4.99861C28.1026 4.65201 29.0501 4.48292 30.0013 4.49703H34.6904V6.34089Z" fill="#4A5157"/>
<path d="M37.0226 22.7393V12.3282C37.0226 9.71712 37.5994 7.7057 38.7528 6.294C39.9062 4.8823 41.6369 4.17718 43.9449 4.17864C45.0904 4.17864 46.0764 4.33529 46.9031 4.6486C47.7297 4.9619 48.4129 5.39043 48.9526 5.93417C49.4753 6.45022 49.8886 7.12491 50.155 7.89688C50.4204 8.6838 50.5542 9.53279 50.5478 10.3895C50.5478 11.7053 50.245 12.7917 49.6392 13.6487C49.0306 14.5067 48.2489 15.1344 47.3796 15.4631C48.3845 16.041 49.2339 16.9837 49.822 18.1738C50.4192 19.3762 50.7178 20.8966 50.7178 22.735H49.1465C49.1465 20.5411 48.6885 18.9055 47.7724 17.8282C46.8564 16.7509 45.5142 16.213 43.746 16.2144H38.5197V22.7393H37.0226ZM43.9449 6.03231C42.2433 6.03231 40.9136 6.50772 39.956 7.45854C38.9984 8.40937 38.5197 9.89957 38.5197 11.9292V14.4054H44.2643C44.8572 14.4069 45.4489 14.339 46.032 14.2026C46.5637 14.0811 47.0764 13.8506 47.5504 13.52C47.9742 13.2266 48.3363 12.8069 48.6059 12.2966C48.8701 11.795 49.0021 11.1688 49.0021 10.4179C49.0021 9.60226 48.8795 8.91167 48.6341 8.34612C48.3898 7.78408 48.0341 7.31401 47.6025 6.98313C47.1108 6.61418 46.57 6.36428 46.0073 6.24602C45.3264 6.09395 44.6361 6.02096 43.9449 6.02794" fill="#4A5157"/>
<path d="M65.2541 22.7393V16.5601H54.553V22.7393H53.0526V12.4896C53.0526 11.0685 53.2122 9.83562 53.5316 8.79103C53.8215 7.80099 54.2929 6.91407 54.9065 6.20461C55.5323 5.5052 56.269 4.9867 57.0662 4.6846C58.9203 4.0158 60.8833 4.0158 62.7374 4.6846C63.5349 4.98694 64.2718 5.5054 64.898 6.20461C65.5104 6.9119 65.9817 7.79562 66.2729 8.7823C66.5917 9.8269 66.7511 11.0598 66.7511 12.4809V22.7306L65.2541 22.7393ZM54.553 14.7424H65.2541V12.6423C65.2541 11.4298 65.1311 10.4004 64.8852 9.5543C64.6714 8.76919 64.3088 8.06382 63.8297 7.50109C63.3461 6.96197 62.7702 6.57541 62.1482 6.37253C60.6722 5.91313 59.1314 5.91313 57.6555 6.37253C57.0334 6.57499 56.4573 6.9616 55.974 7.50109C55.4949 8.06382 55.1323 8.76919 54.9185 9.5543C54.6748 10.4004 54.553 11.4298 54.553 12.6423V14.7424Z" fill="#4A5157"/>
<path d="M70.9492 4.49159H69.4514V22.735H70.9492V4.49159Z" fill="#4A5157"/>
<path d="M25.3238 24.3744V28.7114H24.9258L23.0749 25.3062H23.0417V28.7114H22.6304V24.3744H23.0284L24.8859 27.7881H24.9191V24.3744H25.3238Z" fill="#4A5157"/>
<path d="M27.1287 28.7792C26.8987 28.7792 26.6969 28.7093 26.5233 28.5695C26.3508 28.4298 26.2159 28.2342 26.1186 27.983C26.0224 27.7317 25.9743 27.438 25.9743 27.102C25.9743 26.7632 26.0224 26.4674 26.1186 26.2147C26.2159 25.962 26.3508 25.7657 26.5233 25.626C26.6969 25.4862 26.8987 25.4163 27.1287 25.4163C27.3586 25.4163 27.5599 25.4862 27.7324 25.626C27.906 25.7657 28.0408 25.962 28.137 26.2147C28.2343 26.4674 28.283 26.7632 28.283 27.102C28.283 27.438 28.2343 27.7317 28.137 27.983C28.0408 28.2342 27.906 28.4298 27.7324 28.5695C27.5599 28.7093 27.3586 28.7792 27.1287 28.7792ZM27.1287 28.3302C27.3034 28.3302 27.4471 28.2731 27.5599 28.1587C27.6727 28.0444 27.7561 27.894 27.8103 27.7077C27.8645 27.5213 27.8916 27.3194 27.8916 27.102C27.8916 26.8846 27.8645 26.682 27.8103 26.4942C27.7561 26.3065 27.6727 26.1547 27.5599 26.0389C27.4471 25.9232 27.3034 25.8653 27.1287 25.8653C26.954 25.8653 26.8102 25.9232 26.6975 26.0389C26.5847 26.1547 26.5012 26.3065 26.447 26.4942C26.3928 26.682 26.3658 26.8846 26.3658 27.102C26.3658 27.3194 26.3928 27.5213 26.447 27.7077C26.5012 27.894 26.5847 28.0444 26.6975 28.1587C26.8102 28.2731 26.954 28.3302 27.1287 28.3302Z" fill="#4A5157"/>
<path d="M29.2719 26.7547V28.7114H28.8805V25.4587H29.2586V25.9669H29.2918C29.3515 25.8017 29.4422 25.669 29.5638 25.5688C29.6854 25.4672 29.8424 25.4163 30.0348 25.4163C30.2073 25.4163 30.3582 25.4615 30.4876 25.5519C30.6169 25.6408 30.7175 25.7763 30.7894 25.9585C30.8613 26.1392 30.8972 26.3679 30.8972 26.6446V28.7114H30.5058V26.6785C30.5058 26.4229 30.4538 26.2239 30.3499 26.0813C30.246 25.9373 30.1033 25.8653 29.922 25.8653C29.7971 25.8653 29.6854 25.8999 29.587 25.969C29.4897 26.0382 29.4129 26.1392 29.3565 26.2719C29.3001 26.4046 29.2719 26.5655 29.2719 26.7547Z" fill="#4A5157"/>
<path d="M33.0719 26.6192V27.0851H31.5859V26.6192H33.0719Z" fill="#4A5157"/>
<path d="M33.7606 28.7114V25.4587H34.152V28.7114H33.7606ZM33.9597 24.9166C33.8834 24.9166 33.8176 24.8834 33.7623 24.817C33.7081 24.7507 33.681 24.6709 33.681 24.5777C33.681 24.4846 33.7081 24.4048 33.7623 24.3384C33.8176 24.2721 33.8834 24.2389 33.9597 24.2389C34.036 24.2389 34.1012 24.2721 34.1554 24.3384C34.2106 24.4048 34.2383 24.4846 34.2383 24.5777C34.2383 24.6709 34.2106 24.7507 34.1554 24.817C34.1012 24.8834 34.036 24.9166 33.9597 24.9166Z" fill="#4A5157"/>
<path d="M35.2603 26.7547V28.7114H34.8689V25.4587H35.2471V25.9669H35.2803C35.34 25.8017 35.4306 25.669 35.5522 25.5688C35.6739 25.4672 35.8309 25.4163 36.0233 25.4163C36.1957 25.4163 36.3467 25.4615 36.476 25.5519C36.6054 25.6408 36.706 25.7763 36.7779 25.9585C36.8498 26.1392 36.8857 26.3679 36.8857 26.6446V28.7114H36.4943V26.6785C36.4943 26.4229 36.4423 26.2239 36.3384 26.0813C36.2344 25.9373 36.0918 25.8653 35.9105 25.8653C35.7855 25.8653 35.6739 25.8999 35.5755 25.969C35.4782 26.0382 35.4013 26.1392 35.3449 26.2719C35.2885 26.4046 35.2603 26.5655 35.2603 26.7547Z" fill="#4A5157"/>
<path d="M39.5928 25.4587L38.6508 28.7114H38.2527L37.3107 25.4587H37.7353L38.4385 28.0507H38.465L39.1682 25.4587H39.5928Z" fill="#4A5157"/>
<path d="M40.7815 28.7877C40.6201 28.7877 40.4736 28.7488 40.342 28.6712C40.2105 28.5921 40.106 28.4785 40.0286 28.3302C39.9512 28.1806 39.9125 27.9999 39.9125 27.7881C39.9125 27.6018 39.9412 27.4507 39.9987 27.3349C40.0562 27.2178 40.1331 27.126 40.2292 27.0596C40.3254 26.9933 40.4316 26.9439 40.5477 26.9114C40.6649 26.8775 40.7826 26.8507 40.9009 26.8309C41.0557 26.8055 41.1812 26.7865 41.2774 26.7738C41.3747 26.7596 41.4455 26.7363 41.4897 26.7039C41.535 26.6714 41.5577 26.6149 41.5577 26.5345V26.5175C41.5577 26.3086 41.5129 26.1462 41.4234 26.0305C41.3349 25.9147 41.2006 25.8568 41.0204 25.8568C40.8335 25.8568 40.687 25.909 40.5809 26.0135C40.4747 26.118 40.4001 26.2295 40.357 26.3481L39.9854 26.1787C40.0518 25.981 40.1402 25.8272 40.2508 25.717C40.3625 25.6055 40.4841 25.5279 40.6157 25.4841C40.7484 25.4389 40.8788 25.4163 41.0071 25.4163C41.0889 25.4163 41.1829 25.429 41.289 25.4545C41.3963 25.4785 41.4997 25.5286 41.5992 25.6048C41.6998 25.681 41.7833 25.7961 41.8496 25.95C41.916 26.1039 41.9491 26.31 41.9491 26.5683V28.7114H41.5577V28.271H41.5378C41.5113 28.3415 41.467 28.4171 41.4051 28.4975C41.3432 28.578 41.2608 28.6465 41.158 28.703C41.0552 28.7594 40.9297 28.7877 40.7815 28.7877ZM40.8412 28.3387C40.996 28.3387 41.1265 28.2999 41.2326 28.2222C41.3399 28.1446 41.4206 28.0444 41.4748 27.9215C41.5301 27.7987 41.5577 27.6695 41.5577 27.534V27.0766C41.5411 27.102 41.5046 27.1253 41.4483 27.1465C41.393 27.1662 41.3288 27.1839 41.2559 27.1994C41.184 27.2135 41.1138 27.2262 41.0452 27.2375C40.9778 27.2474 40.9231 27.2559 40.881 27.2629C40.7793 27.2799 40.6842 27.3074 40.5958 27.3455C40.5084 27.3822 40.4377 27.438 40.3835 27.5128C40.3304 27.5862 40.3039 27.6865 40.3039 27.8135C40.3039 27.9872 40.3542 28.1185 40.4548 28.2074C40.5565 28.295 40.6853 28.3387 40.8412 28.3387Z" fill="#4A5157"/>
<path d="M44.468 26.1872L44.1164 26.3142C44.0943 26.2394 44.0617 26.1667 44.0185 26.0961C43.9765 26.0241 43.919 25.9648 43.846 25.9182C43.7731 25.8716 43.6796 25.8483 43.5658 25.8483C43.4099 25.8483 43.2799 25.8942 43.176 25.986C43.0732 26.0763 43.0218 26.1914 43.0218 26.3312C43.0218 26.4554 43.0571 26.5535 43.1279 26.6255C43.1987 26.6975 43.3092 26.7575 43.4596 26.8055L43.8378 26.9241C44.0655 26.9947 44.2352 27.1027 44.3469 27.2481C44.4586 27.3921 44.5144 27.5778 44.5144 27.8051C44.5144 27.9914 44.4724 28.158 44.3884 28.3048C44.3055 28.4517 44.1894 28.5674 44.0401 28.6521C43.8908 28.7368 43.7172 28.7792 43.5193 28.7792C43.2595 28.7792 43.0444 28.7072 42.8742 28.5632C42.7039 28.4192 42.5961 28.2088 42.5507 27.9321L42.9223 27.8135C42.9576 27.9886 43.0245 28.1199 43.1229 28.2074C43.2224 28.295 43.3524 28.3387 43.5127 28.3387C43.6951 28.3387 43.84 28.2893 43.9472 28.1905C44.0556 28.0902 44.1097 27.9702 44.1097 27.8305C44.1097 27.7175 44.0788 27.6229 44.0169 27.5467C43.955 27.4691 43.8599 27.4112 43.7316 27.3731L43.307 27.246C43.0737 27.1754 42.9024 27.066 42.7929 26.9178C42.6845 26.7681 42.6304 26.5811 42.6304 26.3566C42.6304 26.173 42.6707 26.0107 42.7514 25.8695C42.8332 25.7283 42.9444 25.6175 43.0848 25.537C43.2263 25.4566 43.3866 25.4163 43.5658 25.4163C43.8179 25.4163 44.0158 25.4869 44.1595 25.6281C44.3043 25.7693 44.4072 25.9556 44.468 26.1872Z" fill="#4A5157"/>
<path d="M45.1036 28.7114V25.4587H45.495V28.7114H45.1036ZM45.3026 24.9166C45.2263 24.9166 45.1606 24.8834 45.1053 24.817C45.0511 24.7507 45.024 24.6709 45.024 24.5777C45.024 24.4846 45.0511 24.4048 45.1053 24.3384C45.1606 24.2721 45.2263 24.2389 45.3026 24.2389C45.3789 24.2389 45.4442 24.2721 45.4983 24.3384C45.5536 24.4048 45.5813 24.4846 45.5813 24.5777C45.5813 24.6709 45.5536 24.7507 45.4983 24.817C45.4442 24.8834 45.3789 24.9166 45.3026 24.9166Z" fill="#4A5157"/>
<path d="M48.295 25.4587L47.353 28.7114H46.9549L46.0129 25.4587H46.4375L47.1407 28.0507H47.1672L47.8704 25.4587H48.295Z" fill="#4A5157"/>
<path d="M49.7885 28.7792C49.543 28.7792 49.3313 28.71 49.1533 28.5717C48.9764 28.4319 48.8398 28.2371 48.7436 27.9872C48.6485 27.7359 48.601 27.4437 48.601 27.1105C48.601 26.7773 48.6485 26.4836 48.7436 26.2295C48.8398 25.974 48.9736 25.7749 49.145 25.6323C49.3175 25.4883 49.5187 25.4163 49.7487 25.4163C49.8814 25.4163 50.0124 25.4446 50.1418 25.501C50.2711 25.5575 50.3889 25.6493 50.495 25.7763C50.6012 25.902 50.6857 26.0686 50.7488 26.2761C50.8118 26.4836 50.8433 26.7392 50.8433 27.0427V27.2545H48.8796V26.8225H50.4453C50.4453 26.6389 50.4165 26.4752 50.359 26.3312C50.3026 26.1872 50.2219 26.0735 50.1169 25.9902C50.0129 25.9069 49.8902 25.8653 49.7487 25.8653C49.5928 25.8653 49.4579 25.9147 49.344 26.0135C49.2312 26.1109 49.1444 26.238 49.0836 26.3947C49.0228 26.5514 48.9924 26.7194 48.9924 26.8987V27.1867C48.9924 27.4324 49.0256 27.6406 49.0919 27.8114C49.1594 27.9808 49.2528 28.11 49.3722 28.199C49.4916 28.2865 49.6304 28.3302 49.7885 28.3302C49.8913 28.3302 49.9842 28.3119 50.0671 28.2752C50.1511 28.2371 50.2236 28.1806 50.2844 28.1058C50.3452 28.0295 50.3922 27.935 50.4254 27.822L50.8035 27.9575C50.7637 28.1213 50.6968 28.2653 50.6028 28.3895C50.5088 28.5124 50.3927 28.6084 50.2545 28.6775C50.1163 28.7453 49.961 28.7792 49.7885 28.7792Z" fill="#4A5157"/>
<path d="M52.8053 28.7114V24.3744H54.8552V24.8403H53.2166V26.3058H54.7491V26.7716H53.2166V28.2455H54.8818V28.7114H52.8053Z" fill="#4A5157"/>
<path d="M55.5966 28.7114V24.3744H56.7443C57.0097 24.3744 57.2275 24.4323 57.3977 24.5481C57.568 24.6624 57.6941 24.8199 57.7759 25.0203C57.8577 25.2208 57.8986 25.4488 57.8986 25.7043C57.8986 25.9599 57.8577 26.1865 57.7759 26.3841C57.6941 26.5818 57.5686 26.7371 57.3994 26.85C57.2302 26.9615 57.0141 27.0173 56.7509 27.0173H55.8222V26.5429H56.7377C56.919 26.5429 57.0649 26.5091 57.1755 26.4413C57.2872 26.3735 57.3679 26.2775 57.4176 26.1533C57.4685 26.0276 57.4939 25.878 57.4939 25.7043C57.4939 25.5307 57.4685 25.3789 57.4176 25.249C57.3668 25.1192 57.2855 25.0189 57.1738 24.9483C57.0622 24.8763 56.9146 24.8403 56.731 24.8403H56.0079V28.7114H55.5966ZM57.1954 26.7632L58.0313 28.7114H57.5536L56.731 26.7632H57.1954Z" fill="#4A5157"/>
<path d="M58.7233 28.7114H58.2921L59.5393 24.3744H59.9639L61.2111 28.7114H60.7799L59.7649 25.0606H59.7383L58.7233 28.7114ZM58.8825 27.0173H60.6206V27.4832H58.8825V27.0173Z" fill="#4A5157"/>
<path d="M63.5778 28.7114L62.8016 25.4587H63.2129L63.7635 27.9491H63.7901L64.334 25.4587H64.752L65.2894 27.9406H65.3159L65.8665 25.4587H66.2778L65.5016 28.7114H65.1169L64.5596 26.2126H64.5198L63.9625 28.7114H63.5778Z" fill="#4A5157"/>
<path d="M66.7953 28.7114V25.4587H67.1867V28.7114H66.7953ZM66.9943 24.9166C66.918 24.9166 66.8522 24.8834 66.7969 24.817C66.7428 24.7507 66.7157 24.6709 66.7157 24.5777C66.7157 24.4846 66.7428 24.4048 66.7969 24.3384C66.8522 24.2721 66.918 24.2389 66.9943 24.2389C67.0706 24.2389 67.1358 24.2721 67.19 24.3384C67.2453 24.4048 67.2729 24.4846 67.2729 24.5777C67.2729 24.6709 67.2453 24.7507 67.19 24.817C67.1358 24.8834 67.0706 24.9166 66.9943 24.9166Z" fill="#4A5157"/>
<path d="M69.0115 25.4587V25.8822H67.6913V25.4587H69.0115ZM68.0761 24.6794H68.4675V27.7797C68.4675 27.9208 68.4835 28.0267 68.5156 28.0973C68.5487 28.1665 68.5908 28.2131 68.6416 28.2371C68.6936 28.2597 68.7483 28.271 68.8058 28.271C68.8489 28.271 68.8843 28.2681 68.912 28.2625C68.9396 28.2554 68.9617 28.2498 68.9783 28.2455L69.0579 28.6945C69.0314 28.7072 68.9943 28.7199 68.9468 28.7326C68.8992 28.7467 68.839 28.7538 68.766 28.7538C68.6554 28.7538 68.5471 28.7234 68.4409 28.6627C68.3359 28.602 68.2485 28.5095 68.1789 28.3853C68.1103 28.2611 68.0761 28.1044 68.0761 27.9152V24.6794Z" fill="#4A5157"/>
<path d="M70.0464 26.7547V28.7114H69.655V24.3744H70.0464V25.9669H70.0795C70.1393 25.7989 70.2288 25.6655 70.3482 25.5667C70.4687 25.4665 70.6291 25.4163 70.8292 25.4163C71.0028 25.4163 71.1548 25.4608 71.2853 25.5497C71.4158 25.6373 71.5169 25.7721 71.5888 25.9542C71.6618 26.1349 71.6983 26.365 71.6983 26.6446V28.7114H71.3068V26.6785C71.3068 26.4201 71.2543 26.2203 71.1493 26.0792C71.0454 25.9366 70.9011 25.8653 70.7164 25.8653C70.5882 25.8653 70.4732 25.8999 70.3714 25.969C70.2708 26.0382 70.1912 26.1392 70.1326 26.2719C70.0751 26.4046 70.0464 26.5655 70.0464 26.7547Z" fill="#4A5157"/>
<path d="M73.9202 28.7114H73.489L74.7362 24.3744H75.1608L76.408 28.7114H75.9768L74.9618 25.0606H74.9353L73.9202 28.7114ZM74.0795 27.0173H75.8176V27.4832H74.0795V27.0173Z" fill="#4A5157"/>
<path d="M77.3484 24.3744V28.7114H76.9371V24.3744H77.3484Z" fill="#4A5157"/>
</g>
</svg>
