<svg width="108" height="33" viewBox="0 0 108 33" fill="none" xmlns="http://www.w3.org/2000/svg">
<g opacity="0.6">
<rect width="108" height="33" rx="5" fill="white"/>
<path d="M79.2066 11.0309C78.7658 11.0289 78.3282 10.9545 77.9104 10.8106C77.1855 10.5584 76.5492 10.0929 76.0812 9.47234C75.8937 9.21752 75.7364 8.94081 75.6126 8.64801C75.5069 8.39765 75.4294 8.13575 75.3818 7.86738C75.2246 7.01553 75.3562 6.13427 75.7546 5.36939C75.8999 5.08703 76.0809 4.82547 76.2929 4.59144C76.8869 3.92159 77.6895 3.48362 78.5637 3.35226C78.7277 3.32373 78.8943 3.31474 79.0602 3.3255C79.1769 3.3362 79.2963 3.31033 79.4086 3.31836C79.5866 3.33024 79.7637 3.35288 79.9391 3.38616C80.2972 3.45666 80.6428 3.58208 80.9643 3.75818C81.3069 3.94208 81.6209 4.17687 81.8964 4.45495C82.4177 4.9862 82.7741 5.66347 82.9207 6.4016C82.989 6.75389 83.0095 7.11414 82.9817 7.47217C82.9479 7.96535 82.8144 8.44597 82.5897 8.88353C82.3242 9.41003 81.9458 9.86814 81.4829 10.2235C81.0199 10.5789 80.4844 10.8223 79.9165 10.9355C79.6821 10.981 79.4435 10.9952 79.2066 11.0247M82.2038 8.24119C82.2025 8.00774 82.1559 7.77688 82.0669 7.56198C81.9779 7.34707 81.8481 7.15238 81.6851 6.98918C81.5221 6.82598 81.3292 6.69751 81.1174 6.6112C80.9056 6.52489 80.6792 6.48245 80.4513 6.48635C79.474 6.4917 78.7092 7.26341 78.7144 8.24744C78.7196 9.21541 79.4748 10.0183 80.5175 9.99514C80.9659 9.98427 81.3926 9.79516 81.7073 9.46782C82.0221 9.14048 82.2001 8.70059 82.2038 8.24119Z" fill="#4A5157"/>
<path d="M37.6801 23.3532V18.6159H27.4435V23.3532H26.0106V15.4899C26.0106 14.3997 26.1633 13.4537 26.4688 12.652C26.746 11.8926 27.1967 11.2122 27.7832 10.6679C28.3825 10.1317 29.0875 9.73403 29.8502 9.50183C31.6233 8.98916 33.5003 8.98916 35.2734 9.50183C36.0358 9.73404 36.7405 10.1317 37.3395 10.6679C37.9261 11.2124 38.3771 11.8927 38.6548 12.652C38.9597 13.4543 39.1124 14.4003 39.113 15.4899V23.3532H37.6801ZM27.4435 17.2215H37.6801V15.6067C37.6801 14.6771 37.5639 13.8876 37.3317 13.2381C37.1271 12.6357 36.7803 12.0945 36.3221 11.6626C35.8594 11.249 35.3083 10.9526 34.7133 10.7972C33.3018 10.4439 31.8279 10.4439 30.4164 10.7972C29.8216 10.9527 29.2709 11.2492 28.8084 11.6626C28.3499 12.0942 28.0031 12.6356 27.7989 13.2381C27.5637 13.8864 27.4476 14.6759 27.4505 15.6067L27.4435 17.2215Z" fill="#4A5157"/>
<path d="M42.8942 17.3178C42.8942 18.1505 43.0193 18.8598 43.2696 19.4456C43.4996 20.0013 43.8584 20.4913 44.3149 20.873C44.7892 21.2549 45.3377 21.5287 45.9237 21.676C46.5912 21.8497 47.2777 21.9345 47.9663 21.9284H51.6526V23.3469H47.9646C47.0548 23.3584 46.1485 23.2287 45.2765 22.9624C44.5184 22.7338 43.8174 22.34 43.2217 21.808C42.6519 21.2885 42.205 20.6429 41.9151 19.9202C41.6103 19.1756 41.4576 18.306 41.457 17.3116V9.36174H42.8942V17.3178Z" fill="#4A5157"/>
<path d="M54.6534 11.0166H53.2937V9.14314H54.6534V11.0166ZM54.6534 23.3532H53.2937V12.7724H54.6534V23.3532Z" fill="#4A5157"/>
<path d="M67.2409 12.7724C66.7404 15.3061 65.4802 16.9815 63.4606 17.7987C64.5209 18.2354 65.4429 18.9633 66.1251 19.9024C66.8063 20.8409 67.2488 21.9912 67.4526 23.3532H65.977C65.8625 22.6823 65.6573 22.031 65.3673 21.4181C65.0979 20.8508 64.7319 20.3372 64.2863 19.9015C63.8328 19.4688 63.3011 19.1312 62.7211 18.9076C62.0635 18.6557 61.3656 18.5323 60.6636 18.5436H58.3658V23.3532H57.0052V9.36174H58.3675V17.2019H60.4337C61.8575 17.2019 63.0355 16.8331 63.9675 16.0956C64.8995 15.3581 65.5218 14.2519 65.8342 12.7769L67.2409 12.7724Z" fill="#4A5157"/>
<path d="M69.659 18.8568C69.8471 19.9309 70.3326 20.7636 71.1154 21.3548C71.8981 21.946 72.8763 22.2434 74.0499 22.2469C74.6654 22.2348 75.2754 22.1253 75.8582 21.9222C76.4676 21.733 77.0288 21.4086 77.5019 20.9721L78.4409 21.8642C78.1435 22.1689 77.8078 22.4317 77.4427 22.6457C77.0776 22.8616 76.6921 23.0388 76.292 23.1748C75.9019 23.3089 75.5016 23.4094 75.0952 23.4754C74.7262 23.537 74.3532 23.5692 73.9794 23.5718C73.1937 23.5791 72.4122 23.4531 71.6667 23.1988C70.9891 22.9707 70.3626 22.6068 69.8236 22.1283C69.3021 21.6553 68.8862 21.073 68.6041 20.4207C68.2947 19.6926 68.1415 18.9049 68.1547 18.111C68.1453 17.3268 68.2935 16.5491 68.5902 15.8262C68.8647 15.1587 69.2772 14.56 69.7992 14.0713C70.3321 13.5802 70.9535 13.2002 71.6284 12.9526C72.3663 12.6823 73.1452 12.5479 73.9288 12.5556C74.5115 12.5562 75.0917 12.6333 75.6553 12.7849C76.191 12.9215 76.702 13.1447 77.1692 13.446C77.5949 13.722 77.959 14.0867 78.2379 14.5165C78.5133 14.9488 78.6562 15.4555 78.6482 15.9716C78.6482 16.517 78.5503 16.9741 78.3547 17.3428C78.1607 17.7116 77.8729 18.0199 77.5219 18.235C77.1233 18.4739 76.6856 18.6368 76.2302 18.7158C75.68 18.8166 75.1219 18.865 74.563 18.8604L69.659 18.8568ZM74.5665 17.5819C74.9265 17.5819 75.2671 17.5659 75.5882 17.5337C75.882 17.5082 76.1707 17.4394 76.4453 17.3294C76.6844 17.2344 76.8893 17.0666 77.0324 16.8486C77.1726 16.6318 77.2432 16.3401 77.2432 15.9707C77.2526 15.6296 77.1501 15.2951 76.9523 15.0206C76.748 14.7491 76.4874 14.5276 76.1892 14.372C75.8532 14.1961 75.4941 14.0711 75.1231 14.0009C74.7323 13.9215 74.335 13.8812 73.9367 13.8804C72.7468 13.8804 71.7596 14.1971 70.9751 14.8306C70.1906 15.464 69.7365 16.3817 69.6128 17.5837L74.5665 17.5819Z" fill="#4A5157"/>
<path d="M25.0072 27.1546C25 26.917 25.0384 26.6802 25.1204 26.4578C25.1871 26.2841 25.2959 26.1305 25.4366 26.0117C25.5785 25.8959 25.744 25.8142 25.9209 25.7727C26.1207 25.7248 26.3254 25.7014 26.5306 25.7031C27.0231 25.7031 27.4104 25.8381 27.6926 26.1081C27.9748 26.3781 28.1162 26.7704 28.1168 27.2848C28.1192 27.4699 28.0918 27.654 28.0358 27.8299C27.9847 27.9867 27.9069 28.1329 27.8059 28.2617C27.7051 28.3873 27.5847 28.4949 27.4496 28.5802C27.3067 28.6702 27.1526 28.7398 26.9914 28.7872C26.8275 28.8333 26.6588 28.8593 26.4888 28.8648C26.2963 28.8737 26.103 28.8782 25.907 28.8782H25.0072V27.1546ZM26.2118 28.5597C26.4253 28.5619 26.6381 28.5358 26.8451 28.4821C27.0244 28.4367 27.1935 28.3564 27.3433 28.2457C27.4818 28.1415 27.5939 28.0047 27.67 27.8469C27.753 27.6676 27.7936 27.4707 27.7884 27.2723C27.7884 26.862 27.6819 26.55 27.4688 26.3365C27.2556 26.123 26.9432 26.0168 26.5315 26.018C26.1407 26.018 25.8422 26.0992 25.6361 26.2615C25.4299 26.4239 25.3268 26.6984 25.3268 27.085V28.5597H26.2118Z" fill="#4A5157"/>
<path d="M28.4583 27.6961C28.4564 27.5239 28.4893 27.3532 28.555 27.1947C28.6171 27.047 28.7091 26.9144 28.825 26.8058C28.9439 26.6962 29.0827 26.6116 29.2335 26.5569C29.5659 26.439 29.9273 26.439 30.2596 26.5569C30.4103 26.6118 30.5491 26.6964 30.6681 26.8058C30.7837 26.9146 30.8757 27.0471 30.9382 27.1947C31.0671 27.5159 31.0671 27.8763 30.9382 28.1975C30.8762 28.3453 30.7841 28.4779 30.6681 28.5865C30.5493 28.6964 30.4105 28.7813 30.2596 28.8363C29.9273 28.9541 29.5659 28.9541 29.2335 28.8363C29.0825 28.7815 28.9437 28.6966 28.825 28.5865C28.7088 28.4782 28.6167 28.3455 28.555 28.1975C28.4891 28.039 28.4562 27.8683 28.4583 27.6961ZM30.7152 27.6961C30.7175 27.5589 30.6917 27.4228 30.6394 27.2964C30.5924 27.1855 30.5229 27.0861 30.4356 27.0047C30.3462 26.9247 30.2419 26.864 30.129 26.8263C29.8803 26.7442 29.6128 26.7442 29.3642 26.8263C29.2513 26.864 29.147 26.9247 29.0576 27.0047C28.9702 27.0861 28.9007 27.1855 28.8537 27.2964C28.752 27.5539 28.752 27.8419 28.8537 28.0994C28.9007 28.2106 28.9702 28.3103 29.0576 28.392C29.1469 28.4721 29.2513 28.5328 29.3642 28.5704C29.6128 28.6525 29.8803 28.6525 30.129 28.5704C30.2419 28.5328 30.3462 28.4721 30.4356 28.392C30.523 28.3103 30.5924 28.2106 30.6394 28.0994C30.692 27.9731 30.7178 27.8369 30.7152 27.6997" fill="#4A5157"/>
<path d="M32.6376 26.7683C32.3403 26.7683 32.1106 26.856 31.9486 27.0315C31.7866 27.2099 31.7047 27.4534 31.7047 27.771V28.8764H31.4016V27.7398C31.4011 27.567 31.4306 27.3954 31.4887 27.2331C31.541 27.0835 31.6229 26.9466 31.7291 26.8307C31.8383 26.7144 31.9704 26.6232 32.1167 26.5631C32.4539 26.4353 32.8247 26.4353 33.1619 26.5631C33.3082 26.6232 33.4403 26.7144 33.5496 26.8307C33.6558 26.9466 33.7376 27.0835 33.79 27.2331C33.848 27.3954 33.8775 27.567 33.8771 27.7398V28.8773H33.574V27.771C33.574 27.4534 33.4929 27.2063 33.3301 27.0315C33.1672 26.8566 32.9381 26.7683 32.6419 26.7683" fill="#4A5157"/>
<path d="M34.2656 27.6961C34.2637 27.5239 34.2966 27.3532 34.3622 27.1947C34.4244 27.047 34.5164 26.9144 34.6323 26.8058C34.7512 26.6962 34.89 26.6116 35.0408 26.5569C35.3731 26.439 35.7345 26.439 36.0669 26.5569C36.2176 26.6118 36.3563 26.6964 36.4754 26.8058C36.591 26.9146 36.683 27.0471 36.7454 27.1947C36.8744 27.5159 36.8744 27.8763 36.7454 28.1975C36.6834 28.3453 36.5914 28.4779 36.4754 28.5865C36.3566 28.6964 36.2178 28.7813 36.0669 28.8363C35.7345 28.9541 35.3731 28.9541 35.0408 28.8363C34.8898 28.7815 34.751 28.6966 34.6323 28.5865C34.516 28.4782 34.4239 28.3455 34.3622 28.1975C34.2964 28.039 34.2635 27.8683 34.2656 27.6961ZM36.5225 27.6961C36.5257 27.5582 36.5004 27.4211 36.4484 27.2938C36.4014 27.1828 36.332 27.0834 36.2446 27.002C36.1552 26.922 36.0509 26.8613 35.938 26.8236C35.6894 26.7415 35.4218 26.7415 35.1732 26.8236C35.0603 26.8613 34.956 26.922 34.8666 27.002C34.7792 27.0834 34.7097 27.1828 34.6628 27.2938C34.5611 27.5513 34.5611 27.8392 34.6628 28.0967C34.7097 28.2079 34.7792 28.3076 34.8666 28.3893C34.956 28.4694 35.0603 28.5301 35.1732 28.5677C35.4218 28.6498 35.6894 28.6498 35.938 28.5677C36.0509 28.5301 36.1552 28.4694 36.2446 28.3893C36.332 28.3076 36.4014 28.2079 36.4484 28.0967C36.501 27.9704 36.5268 27.8342 36.5242 27.697" fill="#4A5157"/>
<path d="M38.397 26.7683C38.1148 26.7683 37.8961 26.8575 37.7428 27.0314C37.5895 27.2054 37.512 27.4534 37.512 27.771V28.8764H37.2089V27.7398C37.2074 27.5676 37.2338 27.3964 37.2873 27.2331C37.336 27.0841 37.4143 26.9472 37.5172 26.8307C37.6213 26.7155 37.7481 26.6243 37.8892 26.5631C38.0486 26.4964 38.2196 26.4636 38.3917 26.4667C38.5815 26.4639 38.7695 26.5041 38.9423 26.5845L38.8055 26.8691C38.6805 26.7988 38.5396 26.7634 38.397 26.7665" fill="#4A5157"/>
<path d="M42.1974 27.0261C42.2508 26.8537 42.3596 26.7049 42.506 26.6037C42.6524 26.5024 42.8278 26.4548 43.004 26.4686C43.2168 26.4617 43.4249 26.5329 43.5911 26.6693C43.7569 26.8185 43.8709 27.0189 43.916 27.2403C43.9349 27.3195 43.9463 27.4005 43.9499 27.482C43.9551 27.5712 43.9578 27.6747 43.9578 27.7827V28.8764H43.6538V27.6961C43.6546 27.5701 43.6433 27.4443 43.6198 27.3205C43.6009 27.2164 43.5638 27.1167 43.51 27.0261C43.4609 26.9449 43.391 26.8789 43.308 26.8352C43.2119 26.7878 43.1062 26.7649 42.9996 26.7683C42.8936 26.7645 42.7883 26.7875 42.693 26.8352C42.6121 26.8792 42.543 26.943 42.4918 27.0208C42.4355 27.1074 42.397 27.2049 42.3785 27.3072C42.3552 27.4282 42.3438 27.5514 42.3446 27.6747V28.8764H42.0406V27.6747C42.0414 27.5514 42.03 27.4282 42.0066 27.3072C41.988 27.205 41.9499 27.1077 41.8942 27.0208C41.8425 26.9425 41.7724 26.8787 41.6904 26.8352C41.5958 26.7882 41.4915 26.7652 41.3864 26.7683C41.2796 26.7649 41.1735 26.7878 41.0772 26.8352C40.9946 26.8792 40.9251 26.9451 40.876 27.0261C40.8223 27.1167 40.7851 27.2164 40.7662 27.3205C40.7428 27.4443 40.7314 27.5701 40.7323 27.6961V28.8764H40.4291V27.7827C40.4291 27.6747 40.4291 27.5748 40.437 27.482C40.4406 27.4005 40.452 27.3195 40.4709 27.2403C40.5156 27.0188 40.6297 26.8183 40.7958 26.6693C40.9631 26.5319 41.173 26.4606 41.3873 26.4686C41.564 26.454 41.7403 26.5012 41.8874 26.6025C42.0345 26.7038 42.1438 26.8531 42.1974 27.0261Z" fill="#4A5157"/>
<path d="M46.5822 28.6668V28.5624C46.5822 28.5255 46.5857 28.4888 46.5927 28.4526C46.5464 28.5286 46.4875 28.5957 46.4185 28.6507C46.3471 28.7096 46.269 28.7593 46.1859 28.7988C46.0978 28.8391 46.0054 28.869 45.9107 28.888C45.8127 28.9095 45.7129 28.9202 45.6128 28.9201C45.4377 28.9216 45.2637 28.8914 45.0988 28.8309C44.9481 28.7757 44.8093 28.6909 44.6903 28.5811C44.5744 28.4728 44.4826 28.3401 44.4212 28.1921C44.2922 27.8709 44.2922 27.5106 44.4212 27.1894C44.483 27.0417 44.5747 26.9091 44.6903 26.8004C44.8095 26.6912 44.9483 26.6067 45.0988 26.5515C45.2637 26.491 45.4377 26.4608 45.6128 26.4623C45.7808 26.4613 45.948 26.4884 46.1075 26.5426C46.2576 26.5932 46.3958 26.6753 46.5134 26.7834C46.631 26.8951 46.7237 27.0314 46.7852 27.1831C46.8542 27.3576 46.8879 27.5445 46.8845 27.7327V28.8702H46.5814L46.5822 28.6668ZM44.6442 27.6961C44.6421 27.8339 44.6691 27.9706 44.7234 28.0967C44.7704 28.2079 44.8399 28.3076 44.9272 28.3893C45.0164 28.4698 45.1208 28.5305 45.2339 28.5677C45.3572 28.6096 45.4863 28.6304 45.6162 28.6293C45.7446 28.6304 45.8724 28.6115 45.9952 28.5731C46.108 28.5371 46.2118 28.4762 46.2991 28.3947C46.3863 28.3131 46.4552 28.2133 46.5012 28.102C46.5527 27.9718 46.5776 27.8321 46.5744 27.6916C46.5758 27.56 46.5509 27.4294 46.5012 27.308C46.4548 27.1965 46.3859 27.0962 46.2991 27.0136C46.2106 26.9314 46.1074 26.8675 45.9952 26.8254C45.8738 26.7799 45.7454 26.7573 45.6162 26.7585C45.4863 26.7574 45.3572 26.7782 45.2339 26.82C45.1208 26.8573 45.0164 26.918 44.9272 26.9984C44.8395 27.0808 44.77 27.1815 44.7234 27.2937C44.6703 27.4198 44.6442 27.5561 44.6468 27.6934" fill="#4A5157"/>
<path d="M47.6345 25.9966V26.5167H49.326V26.8111H47.6345V27.5034C47.6339 27.6472 47.6453 27.7907 47.6684 27.9325C47.6883 28.0584 47.7309 28.1794 47.7939 28.2894C47.8543 28.3916 47.9391 28.4763 48.0404 28.5356C48.1623 28.6003 48.2987 28.6311 48.4358 28.6248C48.5988 28.6336 48.76 28.5865 48.894 28.491C49.0214 28.382 49.1197 28.2418 49.1797 28.0833L49.4253 28.2127C49.3506 28.423 49.2178 28.6065 49.043 28.7408C48.8634 28.8652 48.6498 28.9277 48.4332 28.9192C48.0529 28.9192 47.7735 28.8003 47.5953 28.5624C47.417 28.3245 47.3279 27.9724 47.3279 27.5061V25.9894L47.6345 25.9966Z" fill="#4A5157"/>
<path d="M50.9758 28.632C51.1347 28.6329 51.2925 28.6048 51.4418 28.549C51.5812 28.4981 51.7081 28.4168 51.8138 28.3108L52.0019 28.5249C51.8692 28.6586 51.7104 28.7619 51.5359 28.8282C51.3564 28.8951 51.1668 28.9287 50.9758 28.9273C50.801 28.9288 50.6273 28.8986 50.4628 28.838C50.3118 28.7833 50.1729 28.6984 50.0542 28.5882C49.9377 28.4802 49.8456 28.3475 49.7842 28.1993C49.6553 27.8781 49.6553 27.5177 49.7842 27.1965C49.846 27.0486 49.9381 26.9159 50.0542 26.8075C50.1731 26.6979 50.312 26.6133 50.4628 26.5586C50.6273 26.4981 50.801 26.4679 50.9758 26.4694C51.1548 26.4681 51.3331 26.4942 51.5045 26.547C51.6613 26.5948 51.8073 26.6739 51.934 26.7799L51.7397 27.0216C51.6346 26.943 51.5194 26.8796 51.3974 26.8334C51.2619 26.7851 51.1192 26.7616 50.9758 26.7638C50.8459 26.7628 50.7167 26.7836 50.5934 26.8254C50.4804 26.8628 50.3761 26.9235 50.2868 27.0038C50.1994 27.0851 50.13 27.1846 50.083 27.2955C49.9813 27.553 49.9813 27.841 50.083 28.0985C50.1299 28.2097 50.1994 28.3094 50.2868 28.3911C50.3761 28.4713 50.4804 28.5321 50.5934 28.5695C50.7167 28.6113 50.8459 28.6321 50.9758 28.6311" fill="#4A5157"/>
<path d="M52.6726 26.9566C52.7711 26.8051 52.9061 26.6821 53.0646 26.5997C53.2332 26.5112 53.4204 26.4662 53.6099 26.4686C53.7885 26.4657 53.966 26.4984 54.1325 26.5649C54.2781 26.6224 54.4096 26.7119 54.5177 26.8273C54.6258 26.9426 54.7078 27.0808 54.7579 27.2322C54.813 27.3951 54.8404 27.5665 54.8389 27.739V28.8764H54.5358V27.7711C54.5358 27.4535 54.4548 27.2064 54.2919 27.0315C54.129 26.8566 53.8999 26.7683 53.6038 26.7683C53.3076 26.7683 53.0811 26.8575 52.9174 27.0315C52.7536 27.2055 52.6717 27.4624 52.6717 27.7978V28.8764H52.3677V25.754H52.6717L52.6726 26.9566Z" fill="#4A5157"/>
<path d="M55.6411 26.1251H55.338V25.7066H55.6411V26.1251ZM55.6411 28.8764H55.338V26.5167H55.6411V28.8764Z" fill="#4A5157"/>
<path d="M57.3484 26.7683C57.0511 26.7683 56.8217 26.856 56.6603 27.0315C56.4974 27.2099 56.4164 27.4534 56.4164 27.771V28.8764H56.1124V27.7398C56.112 27.567 56.1414 27.3954 56.1995 27.2331C56.2526 27.0837 56.3346 26.9468 56.4408 26.8307C56.5499 26.7142 56.682 26.623 56.8284 26.5631C57.1656 26.435 57.5364 26.435 57.8736 26.5631C58.0201 26.6228 58.1523 26.714 58.2612 26.8307C58.3678 26.9465 58.4499 27.0834 58.5025 27.2331C58.5606 27.3954 58.5901 27.567 58.5896 27.7398V28.8773H58.2856V27.771C58.2856 27.4534 58.2046 27.2063 58.0426 27.0315C57.8806 26.8566 57.6506 26.7683 57.3536 26.7683" fill="#4A5157"/>
<path d="M59.3431 28.8604C59.4157 29.0229 59.5344 29.1594 59.6837 29.252C59.8547 29.3501 60.0487 29.3983 60.2446 29.3912C60.5547 29.3912 60.7934 29.3073 60.9589 29.1396C61.1344 28.9474 61.2327 28.6944 61.2341 28.4313C61.1286 28.581 60.9869 28.7003 60.823 28.7774C60.6453 28.8623 60.4512 28.9053 60.2551 28.9032C60.0772 28.9042 59.9004 28.874 59.7325 28.814C59.5827 28.7613 59.4453 28.6771 59.3292 28.5669C59.2154 28.4583 59.1262 28.3255 59.0678 28.1779C59.0051 28.0168 58.974 27.8446 58.9764 27.6712C58.9741 27.5007 59.0071 27.3316 59.0731 27.1751C59.1355 27.0301 59.2272 26.9002 59.3422 26.7942C59.461 26.6871 59.5988 26.6044 59.7481 26.5506C59.9122 26.4908 60.0852 26.4606 60.2594 26.4614C60.4299 26.4613 60.5991 26.4915 60.7594 26.5506C60.911 26.6058 61.0494 26.6934 61.1653 26.8076C61.2838 26.9279 61.3764 27.0722 61.4371 27.2313C61.5062 27.4163 61.54 27.6132 61.5364 27.8112V28.3046C61.5391 28.4972 61.5117 28.689 61.4554 28.8729C61.4052 29.0342 61.3214 29.1824 61.2098 29.3073C61.0959 29.4308 60.9563 29.5263 60.8012 29.5866C60.6208 29.654 60.4297 29.6866 60.2377 29.6829C60.1157 29.6833 59.9939 29.6707 59.8744 29.6455C59.759 29.621 59.6478 29.5792 59.5443 29.5215C59.4402 29.4636 59.3449 29.3906 59.2612 29.3047C59.1716 29.2108 59.0998 29.1007 59.0495 28.9799L59.3431 28.8604ZM59.2961 27.6908C59.2931 27.8273 59.3193 27.9627 59.3727 28.0878C59.4202 28.1979 59.4896 28.2967 59.5765 28.3777C59.6657 28.4582 59.77 28.5189 59.8831 28.5562C60.0065 28.598 60.1356 28.6188 60.2655 28.6177C60.3945 28.6189 60.5227 28.5972 60.6444 28.5535C60.7565 28.5147 60.8592 28.4518 60.9456 28.369C61.032 28.2862 61.1001 28.1855 61.1453 28.0735C61.1955 27.9504 61.2204 27.818 61.2185 27.6845C61.2195 27.5578 61.1937 27.4324 61.1427 27.317C61.093 27.2067 61.0225 27.1076 60.9354 27.0252C60.8459 26.9417 60.7419 26.876 60.6288 26.8317C60.5113 26.7851 60.3863 26.7615 60.2603 26.7621C60.1313 26.7608 60.0029 26.7816 59.8805 26.8236C59.768 26.8621 59.6638 26.9227 59.5739 27.002C59.4855 27.0824 59.4158 27.1821 59.3701 27.2938C59.3191 27.4186 59.2939 27.5528 59.2961 27.6881" fill="#4A5157"/>
<path d="M64.9727 28.3643C64.9192 28.5367 64.8105 28.6856 64.6641 28.7868C64.5177 28.888 64.3422 28.9356 64.1661 28.9219C63.9518 28.9298 63.7419 28.8586 63.5747 28.7212C63.4088 28.5716 63.2948 28.3709 63.2498 28.1493C63.2307 28.0704 63.2193 27.9897 63.2158 27.9085C63.2106 27.8192 63.2079 27.7149 63.2079 27.6078V26.5167H63.5119V27.6961C63.511 27.8222 63.5224 27.948 63.5459 28.0717C63.5646 28.1762 63.6018 28.2763 63.6557 28.367C63.7049 28.448 63.7748 28.5137 63.8577 28.557C63.9538 28.6044 64.0596 28.6274 64.1661 28.6239C64.2712 28.6271 64.3755 28.6042 64.4701 28.557C64.5521 28.5137 64.6225 28.4503 64.6748 28.3724C64.7301 28.286 64.7683 28.1893 64.7872 28.0878C64.8109 27.9659 64.8223 27.8418 64.8211 27.7175V26.5167H65.1251V27.7175C65.124 27.8418 65.1354 27.9659 65.1591 28.0878C65.178 28.1893 65.2162 28.286 65.2715 28.3724C65.3227 28.4499 65.3918 28.5133 65.4727 28.557C65.568 28.6046 65.6733 28.6275 65.7793 28.6239C65.8861 28.6274 65.9922 28.6044 66.0885 28.557C66.1711 28.5134 66.2406 28.4478 66.2897 28.367C66.3436 28.2763 66.3808 28.1762 66.3995 28.0717C66.4234 27.9481 66.4348 27.8222 66.4334 27.6961V26.5167H66.7374V27.6105C66.7374 27.7175 66.7374 27.8183 66.7296 27.9111C66.726 27.9924 66.7147 28.0731 66.6956 28.152C66.651 28.3738 66.5369 28.5745 66.3707 28.7239C66.2036 28.8614 65.9936 28.9327 65.7793 28.9246C65.5934 28.9346 65.4095 28.8809 65.2567 28.772C65.1249 28.6684 65.0256 28.5277 64.971 28.367" fill="#4A5157"/>
<path d="M67.5127 26.1251H67.2087V25.7066H67.5127V26.1251ZM67.5127 28.8764H67.2087V26.5167H67.5127V28.8764Z" fill="#4A5157"/>
<path d="M68.2879 25.9966V26.5167H69.9839V26.8111H68.2879V27.5034C68.2874 27.6472 68.2988 27.7907 68.3219 27.9325C68.3418 28.0584 68.3843 28.1794 68.4473 28.2894C68.5072 28.392 68.5922 28.4769 68.6938 28.5356C68.8157 28.6003 68.9521 28.6311 69.0893 28.6248C69.2523 28.6335 69.4134 28.5864 69.5475 28.491C69.6748 28.3822 69.7729 28.2419 69.8323 28.0833L70.0788 28.2127C70.0038 28.4228 69.8709 28.6062 69.6964 28.7408C69.5168 28.865 69.3032 28.9274 69.0867 28.9192C68.7057 28.9192 68.4264 28.8003 68.2487 28.5624C68.071 28.3245 67.9816 27.9751 67.9804 27.5141V25.9975L68.2879 25.9966Z" fill="#4A5157"/>
<path d="M70.7486 26.9566C70.8475 26.805 70.9828 26.6821 71.1415 26.5997C71.3098 26.5113 71.4967 26.4663 71.6859 26.4686C71.8645 26.4657 72.042 26.4984 72.2085 26.5649C72.3541 26.6224 72.4857 26.7119 72.5937 26.8273C72.7018 26.9426 72.7838 27.0808 72.8339 27.2322C72.889 27.3951 72.9164 27.5665 72.9149 27.739V28.8764H72.6118V27.7711C72.6118 27.4535 72.5299 27.2064 72.3679 27.0315C72.2059 26.8566 71.9759 26.7683 71.6789 26.7683C71.3819 26.7683 71.1563 26.8575 70.9934 27.0315C70.8305 27.2055 70.7469 27.4624 70.7469 27.7978V28.8764H70.4455V25.754H70.7486V26.9566Z" fill="#4A5157"/>
<path d="M77.2423 28.8764V27.8201H74.9593V28.8764H74.6396V27.1225C74.635 26.907 74.6696 26.6925 74.7415 26.4899C74.8028 26.3192 74.9035 26.1661 75.035 26.0439C75.1683 25.9237 75.3256 25.8348 75.4958 25.7834C75.8914 25.6692 76.3101 25.6692 76.7057 25.7834C76.8759 25.8351 77.0331 25.924 77.1665 26.0439C77.2978 26.1662 77.3982 26.3192 77.4592 26.4899C77.5318 26.6923 77.5667 26.9069 77.562 27.1225V28.8764H77.2423ZM74.9593 27.5088H77.2423V27.1519C77.2466 26.9725 77.2201 26.7937 77.1639 26.6238C77.1181 26.4894 77.0406 26.3686 76.9383 26.2723C76.8351 26.18 76.7122 26.114 76.5794 26.0796C76.2646 26.0011 75.9361 26.0011 75.6213 26.0796C75.4886 26.1143 75.3657 26.1803 75.2624 26.2723C75.1604 26.3687 75.0832 26.4894 75.0377 26.6238C74.9815 26.7937 74.955 26.9725 74.9593 27.1519V27.5088Z" fill="#4A5157"/>
<path d="M78.4574 25.7548H78.1378V28.8764H78.4574V25.7548Z" fill="#4A5157"/>
</g>
</svg>
