<svg width="110" height="33" viewBox="0 0 110 33" fill="none" xmlns="http://www.w3.org/2000/svg">
<g opacity="0.6">
<rect width="110" height="33" rx="5" fill="white"/>
<path d="M79.9719 13.6106C79.9684 14.46 79.8293 15.3034 79.5598 16.1086C79.0863 17.5085 78.2116 18.7366 77.0455 19.6388C76.5677 20.0002 76.0489 20.3036 75.5001 20.5425C75.0304 20.7467 74.5391 20.8963 74.0356 20.9886C73.2985 21.1275 72.5443 21.1503 71.8002 21.0564C70.9423 20.9418 70.1115 20.6754 69.3463 20.2695C68.8172 19.9891 68.3272 19.64 67.8888 19.2311C66.6322 18.0855 65.8107 16.5372 65.5646 14.8506C65.5111 14.5346 65.4947 14.2133 65.5158 13.8934C65.5344 13.6677 65.4865 13.4366 65.5016 13.2118C65.5238 12.8681 65.5665 12.5261 65.6294 12.1876C65.7618 11.4973 65.9966 10.8309 66.3257 10.2106C66.6748 9.55103 67.1193 8.94704 67.6446 8.41831C68.6405 7.41212 69.9106 6.72454 71.2948 6.44222C71.9565 6.31018 72.6331 6.27056 73.3056 6.32446C74.2305 6.3901 75.1317 6.64803 75.9522 7.08188C77.1085 7.67495 78.0855 8.56831 78.7818 9.66909C79.2846 10.4506 79.632 11.3225 79.8049 12.2367C79.8937 12.6827 79.9177 13.1493 79.9719 13.6061M74.7532 7.82325C72.9112 7.82325 71.4511 9.33989 71.4627 11.2054C71.4742 13.0896 72.921 14.5652 74.7647 14.5553C76.5801 14.5455 78.0855 13.0878 78.042 11.076C78.0046 9.35149 76.6067 7.8295 74.7559 7.82325" fill="#4A5157"/>
<path d="M40.1517 20.6844V15.8847H29.583V20.6844H28.0998V12.7184C28.0998 11.614 28.2573 10.6558 28.5723 9.84397C28.8574 9.07492 29.3219 8.38568 29.9267 7.83398C30.5443 7.29075 31.2713 6.88784 32.0582 6.65278C33.8895 6.13311 35.8283 6.13311 37.6596 6.65278C38.4464 6.88805 39.1734 7.29093 39.7911 7.83398C40.4004 8.38506 40.8692 9.07497 41.158 9.84575C41.473 10.6576 41.6307 11.6158 41.6313 12.7202V20.6862L40.1517 20.6844ZM29.583 14.4724H40.1517V12.8398C40.1517 11.8989 40.0306 11.0992 39.7885 10.4408C39.5771 9.83043 39.2186 9.2821 38.7449 8.84477C38.2674 8.42572 37.6985 8.12531 37.0841 7.9678C35.6253 7.6105 34.1023 7.6105 32.6435 7.9678C32.0291 8.12531 31.4602 8.42572 30.9827 8.84477C30.5093 9.28216 30.151 9.83049 29.94 10.4408C29.6972 11.0986 29.5759 11.8983 29.5759 12.8398L29.583 14.4724Z" fill="#4A5157"/>
<path d="M45.778 6.50644H44.2983V20.6834H45.778V6.50644Z" fill="#4A5157"/>
<path d="M47.8393 13.5927C47.8346 12.6254 48.0287 11.6675 48.4095 10.7789C48.7814 9.90661 49.3214 9.11679 49.9984 8.4549C50.7025 7.77259 51.5296 7.23123 52.4354 6.85975C54.4541 6.06394 56.6976 6.06394 58.7163 6.85975C59.6219 7.23144 60.449 7.77278 61.1533 8.4549C61.8296 9.11815 62.3692 9.90877 62.7413 10.7816C63.1175 11.6715 63.3115 12.6285 63.3115 13.5954C63.3115 14.5623 63.1175 15.5193 62.7413 16.4092C62.3677 17.2846 61.8284 18.0788 61.1533 18.7475C60.4532 19.4349 59.625 19.977 58.7163 20.3427C56.6947 21.123 54.457 21.123 52.4354 20.3427C51.5265 19.9772 50.6984 19.4351 49.9984 18.7475C49.3224 18.0793 48.7827 17.2851 48.4095 16.4092C48.0284 15.5199 47.8342 14.561 47.8393 13.5927ZM49.3678 13.5927C49.3601 14.3895 49.5168 15.1793 49.8279 15.9123C50.127 16.6141 50.5596 17.2505 51.1014 17.7858C51.6607 18.3335 52.3256 18.7604 53.0553 19.0402C54.6832 19.6421 56.4712 19.6421 58.099 19.0402C58.8287 18.7604 59.4936 18.3335 60.0529 17.7858C60.5947 17.2505 61.0274 16.6141 61.3265 15.9123C61.6307 15.179 61.7874 14.3925 61.7874 13.5981C61.7874 12.8037 61.6307 12.0171 61.3265 11.2839C61.027 10.5823 60.5945 9.94592 60.0529 9.41038C59.4932 8.86329 58.8284 8.4365 58.099 8.15603C56.471 7.55529 54.6834 7.55529 53.0553 8.15603C52.326 8.4365 51.6611 8.86329 51.1014 9.41038C50.5599 9.94592 50.1273 10.5823 49.8279 11.2839C49.5182 12.0136 49.3615 12.7995 49.3678 13.5927Z" fill="#4A5157"/>
<path d="M29.8569 24.2229C29.8569 24.5623 29.7959 24.8556 29.6739 25.1029C29.5518 25.3501 29.3845 25.5408 29.1717 25.6749C28.959 25.8089 28.716 25.876 28.4427 25.876C28.1695 25.876 27.9265 25.8089 27.7138 25.6749C27.501 25.5408 27.3336 25.3501 27.2116 25.1029C27.0896 24.8556 27.0286 24.5623 27.0286 24.2229C27.0286 23.8835 27.0896 23.5902 27.2116 23.3429C27.3336 23.0957 27.501 22.905 27.7138 22.7709C27.9265 22.6368 28.1695 22.5698 28.4427 22.5698C28.716 22.5698 28.959 22.6368 29.1717 22.7709C29.3845 22.905 29.5518 23.0957 29.6739 23.3429C29.7959 23.5902 29.8569 23.8835 29.8569 24.2229ZM29.4814 24.2229C29.4814 23.9442 29.435 23.7091 29.3422 23.5173C29.2505 23.3256 29.1258 23.1805 28.9684 23.0821C28.8119 22.9836 28.6367 22.9344 28.4427 22.9344C28.2488 22.9344 28.073 22.9836 27.9156 23.0821C27.7591 23.1805 27.6345 23.3256 27.5417 23.5173C27.4499 23.7091 27.404 23.9442 27.404 24.2229C27.404 24.5016 27.4499 24.7367 27.5417 24.9284C27.6345 25.1202 27.7591 25.2652 27.9156 25.3637C28.073 25.4622 28.2488 25.5114 28.4427 25.5114C28.6367 25.5114 28.8119 25.4622 28.9684 25.3637C29.1258 25.2652 29.2505 25.1202 29.3422 24.9284C29.435 24.7367 29.4814 24.5016 29.4814 24.2229Z" fill="#4A5157"/>
<path d="M31.4353 25.8823C31.2184 25.8823 31.028 25.8304 30.8643 25.7267C30.7016 25.623 30.5744 25.4779 30.4826 25.2914C30.3919 25.105 30.3465 24.8871 30.3465 24.6377C30.3465 24.3863 30.3919 24.1668 30.4826 23.9793C30.5744 23.7918 30.7016 23.6462 30.8643 23.5425C31.028 23.4388 31.2184 23.3869 31.4353 23.3869C31.6522 23.3869 31.842 23.4388 32.0047 23.5425C32.1684 23.6462 32.2957 23.7918 32.3864 23.9793C32.4782 24.1668 32.524 24.3863 32.524 24.6377C32.524 24.8871 32.4782 25.105 32.3864 25.2914C32.2957 25.4779 32.1684 25.623 32.0047 25.7267C31.842 25.8304 31.6522 25.8823 31.4353 25.8823ZM31.4353 25.5491C31.6001 25.5491 31.7356 25.5067 31.842 25.4219C31.9484 25.337 32.0271 25.2254 32.0782 25.0872C32.1293 24.9489 32.1549 24.7991 32.1549 24.6377C32.1549 24.4764 32.1293 24.3261 32.0782 24.1868C32.0271 24.0474 31.9484 23.9348 31.842 23.8489C31.7356 23.763 31.6001 23.7201 31.4353 23.7201C31.2705 23.7201 31.1349 23.763 31.0286 23.8489C30.9222 23.9348 30.8434 24.0474 30.7923 24.1868C30.7412 24.3261 30.7157 24.4764 30.7157 24.6377C30.7157 24.7991 30.7412 24.9489 30.7923 25.0872C30.8434 25.2254 30.9222 25.337 31.0286 25.4219C31.1349 25.5067 31.2705 25.5491 31.4353 25.5491Z" fill="#4A5157"/>
<path d="M34.0637 25.8823C33.8385 25.8823 33.6445 25.8289 33.4818 25.722C33.3191 25.6151 33.194 25.468 33.1064 25.2804C33.0188 25.0929 32.975 24.8787 32.975 24.6377C32.975 24.3926 33.0198 24.1763 33.1095 23.9888C33.2002 23.8002 33.3264 23.653 33.4881 23.5472C33.6508 23.4403 33.8406 23.3869 34.0575 23.3869C34.2264 23.3869 34.3787 23.4183 34.5143 23.4812C34.6498 23.5441 34.7609 23.6321 34.8475 23.7452C34.934 23.8583 34.9877 23.9903 35.0086 24.1412H34.6394C34.6112 24.0312 34.5487 23.9338 34.4517 23.8489C34.3557 23.763 34.2264 23.7201 34.0637 23.7201C33.9198 23.7201 33.7936 23.7578 33.6852 23.8332C33.5777 23.9076 33.4938 24.0129 33.4333 24.149C33.3739 24.2842 33.3441 24.4429 33.3441 24.6252C33.3441 24.8116 33.3733 24.974 33.4317 25.1123C33.4912 25.2506 33.5746 25.358 33.682 25.4344C33.7905 25.5109 33.9177 25.5491 34.0637 25.5491C34.1597 25.5491 34.2468 25.5324 34.325 25.4989C34.4032 25.4653 34.4694 25.4171 34.5236 25.3543C34.5779 25.2914 34.6165 25.216 34.6394 25.128H35.0086C34.9877 25.2705 34.9361 25.3988 34.8537 25.513C34.7724 25.6261 34.6644 25.7162 34.5299 25.7833C34.3964 25.8493 34.241 25.8823 34.0637 25.8823Z" fill="#4A5157"/>
<path d="M35.786 26.7371C35.7235 26.7371 35.6677 26.7319 35.6187 26.7214C35.5696 26.712 35.5358 26.7025 35.517 26.6931L35.6108 26.3663C35.7005 26.3893 35.7798 26.3977 35.8486 26.3914C35.9174 26.3851 35.9785 26.3542 36.0316 26.2987C36.0859 26.2442 36.1354 26.1557 36.1803 26.0331L36.2491 25.8446L35.3606 23.4183H35.761L36.4243 25.3417H36.4493L37.1126 23.4183H37.5131L36.4931 26.184C36.4472 26.3086 36.3904 26.4118 36.3226 26.4935C36.2548 26.5763 36.1761 26.6376 36.0864 26.6774C35.9978 26.7172 35.8976 26.7371 35.786 26.7371Z" fill="#4A5157"/>
<path d="M39.0453 23.4183V23.7326H37.8001V23.4183H39.0453ZM38.163 22.8401H38.5322V25.1406C38.5322 25.2453 38.5473 25.3239 38.5776 25.3763C38.6089 25.4276 38.6485 25.4622 38.6965 25.48C38.7455 25.4968 38.7971 25.5051 38.8513 25.5051C38.892 25.5051 38.9254 25.503 38.9514 25.4989C38.9775 25.4936 38.9984 25.4894 39.014 25.4863L39.0891 25.8194C39.0641 25.8289 39.0291 25.8383 38.9843 25.8477C38.9395 25.8582 38.8826 25.8634 38.8138 25.8634C38.7095 25.8634 38.6073 25.8409 38.5072 25.7959C38.4081 25.7508 38.3257 25.6822 38.26 25.59C38.1954 25.4978 38.163 25.3815 38.163 25.2412V22.8401Z" fill="#4A5157"/>
<path d="M40.5823 25.8823C40.3507 25.8823 40.151 25.8309 39.9831 25.7283C39.8163 25.6246 39.6875 25.48 39.5967 25.2946C39.507 25.1081 39.4622 24.8913 39.4622 24.644C39.4622 24.3968 39.507 24.1789 39.5967 23.9903C39.6875 23.8007 39.8136 23.653 39.9753 23.5472C40.138 23.4403 40.3278 23.3869 40.5447 23.3869C40.6699 23.3869 40.7934 23.4079 40.9155 23.4498C41.0375 23.4917 41.1485 23.5598 41.2487 23.6541C41.3488 23.7473 41.4285 23.8709 41.488 24.0249C41.5474 24.1789 41.5772 24.3685 41.5772 24.5937V24.7509H39.725V24.4303H41.2017C41.2017 24.2941 41.1746 24.1726 41.1204 24.0658C41.0672 23.9589 40.9911 23.8746 40.892 23.8128C40.794 23.751 40.6782 23.7201 40.5447 23.7201C40.3977 23.7201 40.2704 23.7567 40.163 23.83C40.0566 23.9023 39.9748 23.9966 39.9174 24.1129C39.8601 24.2292 39.8314 24.3538 39.8314 24.4869V24.7006C39.8314 24.8829 39.8627 25.0374 39.9252 25.1642C39.9889 25.2899 40.077 25.3857 40.1896 25.4517C40.3022 25.5167 40.4331 25.5491 40.5823 25.5491C40.6792 25.5491 40.7668 25.5355 40.8451 25.5083C40.9243 25.48 40.9926 25.4381 41.05 25.3826C41.1073 25.326 41.1517 25.2558 41.183 25.172L41.5396 25.2726C41.5021 25.3941 41.439 25.501 41.3503 25.5931C41.2617 25.6843 41.1522 25.7555 41.0218 25.8069C40.8915 25.8571 40.7449 25.8823 40.5823 25.8823Z" fill="#4A5157"/>
<path d="M44.0848 25.8886C43.9325 25.8886 43.7943 25.8598 43.6702 25.8021C43.5461 25.7435 43.4476 25.6591 43.3746 25.5491C43.3016 25.4381 43.2651 25.304 43.2651 25.1469C43.2651 25.0086 43.2922 24.8965 43.3464 24.8106C43.4006 24.7236 43.4731 24.6555 43.5638 24.6063C43.6546 24.5571 43.7547 24.5204 43.8642 24.4963C43.9747 24.4712 44.0858 24.4513 44.1974 24.4366C44.3434 24.4177 44.4618 24.4036 44.5525 24.3942C44.6443 24.3837 44.711 24.3664 44.7527 24.3423C44.7955 24.3182 44.8169 24.2763 44.8169 24.2166V24.204C44.8169 24.049 44.7746 23.9285 44.6902 23.8426C44.6067 23.7567 44.48 23.7138 44.31 23.7138C44.1338 23.7138 43.9956 23.7525 43.8955 23.83C43.7954 23.9076 43.725 23.9903 43.6843 24.0783L43.3339 23.9526C43.3965 23.806 43.4799 23.6918 43.5842 23.6101C43.6895 23.5273 43.8042 23.4697 43.9283 23.4372C44.0535 23.4037 44.1765 23.3869 44.2975 23.3869C44.3747 23.3869 44.4633 23.3963 44.5634 23.4152C44.6646 23.433 44.7621 23.4702 44.856 23.5268C44.9509 23.5833 45.0296 23.6687 45.0922 23.7829C45.1548 23.8971 45.186 24.05 45.186 24.2418V25.832H44.8169V25.5051H44.7981C44.7731 25.5575 44.7313 25.6136 44.6729 25.6733C44.6145 25.733 44.5369 25.7838 44.4399 25.8257C44.3429 25.8676 44.2245 25.8886 44.0848 25.8886ZM44.1411 25.5554C44.2871 25.5554 44.4101 25.5266 44.5103 25.469C44.6114 25.4114 44.6875 25.337 44.7386 25.2459C44.7908 25.1547 44.8169 25.0589 44.8169 24.9583V24.6189C44.8012 24.6377 44.7668 24.655 44.7136 24.6707C44.6615 24.6854 44.601 24.6985 44.5322 24.71C44.4644 24.7205 44.3981 24.7299 44.3335 24.7383C44.2699 24.7456 44.2183 24.7519 44.1786 24.7572C44.0827 24.7697 43.993 24.7902 43.9096 24.8184C43.8272 24.8457 43.7604 24.8871 43.7093 24.9426C43.6593 24.9971 43.6342 25.0714 43.6342 25.1657C43.6342 25.2946 43.6817 25.392 43.7766 25.458C43.8725 25.523 43.994 25.5554 44.1411 25.5554Z" fill="#4A5157"/>
<path d="M47.5619 23.9589L47.2302 24.0532C47.2094 23.9977 47.1786 23.9437 47.1379 23.8913C47.0983 23.8379 47.0441 23.7939 46.9752 23.7593C46.9064 23.7248 46.8183 23.7075 46.7109 23.7075C46.5638 23.7075 46.4413 23.7415 46.3433 23.8096C46.2463 23.8767 46.1978 23.962 46.1978 24.0658C46.1978 24.1579 46.2311 24.2308 46.2979 24.2842C46.3646 24.3376 46.4689 24.3821 46.6107 24.4177L46.9674 24.5057C47.1822 24.5581 47.3423 24.6383 47.4477 24.7462C47.553 24.853 47.6057 24.9908 47.6057 25.1594C47.6057 25.2977 47.566 25.4213 47.4868 25.5303C47.4086 25.6392 47.299 25.7251 47.1583 25.788C47.0175 25.8508 46.8537 25.8823 46.6671 25.8823C46.422 25.8823 46.2191 25.8289 46.0585 25.722C45.8979 25.6151 45.7963 25.4591 45.7535 25.2537L46.1039 25.1657C46.1373 25.2956 46.2004 25.3931 46.2932 25.458C46.387 25.523 46.5096 25.5554 46.6608 25.5554C46.8329 25.5554 46.9695 25.5188 47.0707 25.4454C47.1729 25.3711 47.224 25.282 47.224 25.1783C47.224 25.0945 47.1948 25.0243 47.1364 24.9677C47.078 24.9101 46.9883 24.8672 46.8673 24.8389L46.4668 24.7446C46.2468 24.6922 46.0851 24.611 45.9819 24.501C45.8797 24.39 45.8286 24.2512 45.8286 24.0846C45.8286 23.9484 45.8667 23.828 45.9428 23.7232C46.02 23.6184 46.1248 23.5362 46.2572 23.4765C46.3907 23.4168 46.5419 23.3869 46.7109 23.3869C46.9486 23.3869 47.1353 23.4393 47.2709 23.5441C47.4075 23.6488 47.5045 23.7871 47.5619 23.9589Z" fill="#4A5157"/>
<path d="M49.8634 23.9589L49.5317 24.0532C49.5109 23.9977 49.4801 23.9437 49.4394 23.8913C49.3998 23.8379 49.3456 23.7939 49.2767 23.7593C49.2079 23.7248 49.1198 23.7075 49.0124 23.7075C48.8653 23.7075 48.7428 23.7415 48.6448 23.8096C48.5478 23.8767 48.4993 23.962 48.4993 24.0658C48.4993 24.1579 48.5326 24.2308 48.5994 24.2842C48.6661 24.3376 48.7704 24.3821 48.9123 24.4177L49.2689 24.5057C49.4838 24.5581 49.6438 24.6383 49.7492 24.7462C49.8545 24.853 49.9072 24.9908 49.9072 25.1594C49.9072 25.2977 49.8675 25.4213 49.7883 25.5303C49.7101 25.6392 49.6006 25.7251 49.4598 25.788C49.319 25.8508 49.1552 25.8823 48.9686 25.8823C48.7235 25.8823 48.5207 25.8289 48.36 25.722C48.1994 25.6151 48.0978 25.4591 48.055 25.2537L48.4054 25.1657C48.4388 25.2956 48.5019 25.3931 48.5947 25.458C48.6886 25.523 48.8111 25.5554 48.9623 25.5554C49.1344 25.5554 49.271 25.5188 49.3722 25.4454C49.4744 25.3711 49.5255 25.282 49.5255 25.1783C49.5255 25.0945 49.4963 25.0243 49.4379 24.9677C49.3795 24.9101 49.2898 24.8672 49.1688 24.8389L48.7683 24.7446C48.5483 24.6922 48.3866 24.611 48.2834 24.501C48.1812 24.39 48.1301 24.2512 48.1301 24.0846C48.1301 23.9484 48.1682 23.828 48.2443 23.7232C48.3215 23.6184 48.4263 23.5362 48.5587 23.4765C48.6922 23.4168 48.8434 23.3869 49.0124 23.3869C49.2501 23.3869 49.4368 23.4393 49.5724 23.5441C49.709 23.6488 49.806 23.7871 49.8634 23.9589Z" fill="#4A5157"/>
<path d="M51.4703 25.8823C51.2388 25.8823 51.0391 25.8309 50.8712 25.7283C50.7043 25.6246 50.5755 25.48 50.4848 25.2946C50.3951 25.1081 50.3503 24.8913 50.3503 24.644C50.3503 24.3968 50.3951 24.1789 50.4848 23.9903C50.5755 23.8007 50.7017 23.653 50.8634 23.5472C51.026 23.4403 51.2158 23.3869 51.4328 23.3869C51.5579 23.3869 51.6815 23.4079 51.8035 23.4498C51.9255 23.4917 52.0366 23.5598 52.1367 23.6541C52.2368 23.7473 52.3166 23.8709 52.376 24.0249C52.4355 24.1789 52.4652 24.3685 52.4652 24.5937V24.7509H50.6131V24.4303H52.0898C52.0898 24.2941 52.0627 24.1726 52.0084 24.0658C51.9552 23.9589 51.8791 23.8746 51.78 23.8128C51.682 23.751 51.5663 23.7201 51.4328 23.7201C51.2857 23.7201 51.1585 23.7567 51.0511 23.83C50.9447 23.9023 50.8628 23.9966 50.8055 24.1129C50.7481 24.2292 50.7194 24.3538 50.7194 24.4869V24.7006C50.7194 24.8829 50.7507 25.0374 50.8133 25.1642C50.8769 25.2899 50.965 25.3857 51.0777 25.4517C51.1903 25.5167 51.3212 25.5491 51.4703 25.5491C51.5673 25.5491 51.6549 25.5355 51.7331 25.5083C51.8124 25.48 51.8807 25.4381 51.938 25.3826C51.9954 25.326 52.0397 25.2558 52.071 25.172L52.4277 25.2726C52.3901 25.3941 52.327 25.501 52.2384 25.5931C52.1497 25.6843 52.0402 25.7555 51.9099 25.8069C51.7795 25.8571 51.633 25.8823 51.4703 25.8823Z" fill="#4A5157"/>
<path d="M54.7288 23.9589L54.3971 24.0532C54.3763 23.9977 54.3455 23.9437 54.3049 23.8913C54.2652 23.8379 54.211 23.7939 54.1422 23.7593C54.0733 23.7248 53.9852 23.7075 53.8778 23.7075C53.7307 23.7075 53.6082 23.7415 53.5102 23.8096C53.4132 23.8767 53.3647 23.962 53.3647 24.0658C53.3647 24.1579 53.3981 24.2308 53.4648 24.2842C53.5316 24.3376 53.6358 24.3821 53.7777 24.4177L54.1343 24.5057C54.3492 24.5581 54.5093 24.6383 54.6146 24.7462C54.7199 24.853 54.7726 24.9908 54.7726 25.1594C54.7726 25.2977 54.733 25.4213 54.6537 25.5303C54.5755 25.6392 54.466 25.7251 54.3252 25.788C54.1844 25.8508 54.0207 25.8823 53.834 25.8823C53.5889 25.8823 53.3861 25.8289 53.2255 25.722C53.0649 25.6151 52.9632 25.4591 52.9204 25.2537L53.2708 25.1657C53.3042 25.2956 53.3673 25.3931 53.4601 25.458C53.554 25.523 53.6765 25.5554 53.8277 25.5554C53.9998 25.5554 54.1364 25.5188 54.2376 25.4454C54.3398 25.3711 54.3909 25.282 54.3909 25.1783C54.3909 25.0945 54.3617 25.0243 54.3033 24.9677C54.2449 24.9101 54.1552 24.8672 54.0342 24.8389L53.6338 24.7446C53.4137 24.6922 53.2521 24.611 53.1488 24.501C53.0466 24.39 52.9955 24.2512 52.9955 24.0846C52.9955 23.9484 53.0336 23.828 53.1097 23.7232C53.1869 23.6184 53.2917 23.5362 53.4241 23.4765C53.5576 23.4168 53.7088 23.3869 53.8778 23.3869C54.1156 23.3869 54.3022 23.4393 54.4378 23.5441C54.5744 23.6488 54.6714 23.7871 54.7288 23.9589Z" fill="#4A5157"/>
<path d="M57.0303 23.9589L56.6987 24.0532C56.6778 23.9977 56.647 23.9437 56.6064 23.8913C56.5667 23.8379 56.5125 23.7939 56.4437 23.7593C56.3748 23.7248 56.2867 23.7075 56.1793 23.7075C56.0323 23.7075 55.9097 23.7415 55.8117 23.8096C55.7147 23.8767 55.6662 23.962 55.6662 24.0658C55.6662 24.1579 55.6996 24.2308 55.7663 24.2842C55.8331 24.3376 55.9373 24.3821 56.0792 24.4177L56.4358 24.5057C56.6507 24.5581 56.8108 24.6383 56.9161 24.7462C57.0214 24.853 57.0741 24.9908 57.0741 25.1594C57.0741 25.2977 57.0345 25.4213 56.9552 25.5303C56.877 25.6392 56.7675 25.7251 56.6267 25.788C56.4859 25.8508 56.3222 25.8823 56.1355 25.8823C55.8904 25.8823 55.6876 25.8289 55.527 25.722C55.3664 25.6151 55.2647 25.4591 55.2219 25.2537L55.5723 25.1657C55.6057 25.2956 55.6688 25.3931 55.7616 25.458C55.8555 25.523 55.978 25.5554 56.1292 25.5554C56.3013 25.5554 56.4379 25.5188 56.5391 25.4454C56.6413 25.3711 56.6924 25.282 56.6924 25.1783C56.6924 25.0945 56.6632 25.0243 56.6048 24.9677C56.5464 24.9101 56.4567 24.8672 56.3357 24.8389L55.9353 24.7446C55.7152 24.6922 55.5536 24.611 55.4503 24.501C55.3481 24.39 55.297 24.2512 55.297 24.0846C55.297 23.9484 55.3351 23.828 55.4112 23.7232C55.4884 23.6184 55.5932 23.5362 55.7256 23.4765C55.8591 23.4168 56.0104 23.3869 56.1793 23.3869C56.4171 23.3869 56.6038 23.4393 56.7393 23.5441C56.8759 23.6488 56.9729 23.7871 57.0303 23.9589Z" fill="#4A5157"/>
<path d="M57.6298 25.832V23.4183H57.9865V23.7955H58.0178C58.0678 23.6666 58.1486 23.5666 58.2602 23.4953C58.3718 23.4231 58.5058 23.3869 58.6623 23.3869C58.8208 23.3869 58.9527 23.4231 59.058 23.4953C59.1644 23.5666 59.2473 23.6666 59.3068 23.7955H59.3318C59.3933 23.6708 59.4856 23.5718 59.6087 23.4985C59.7317 23.4241 59.8793 23.3869 60.0514 23.3869C60.2662 23.3869 60.4419 23.4545 60.5786 23.5896C60.7152 23.7237 60.7835 23.9327 60.7835 24.2166V25.832H60.4143V24.2166C60.4143 24.0385 60.3658 23.9112 60.2688 23.8348C60.1718 23.7583 60.0576 23.7201 59.9262 23.7201C59.7573 23.7201 59.6264 23.7714 59.5336 23.874C59.4408 23.9757 59.3944 24.1045 59.3944 24.2606V25.832H59.0189V24.1789C59.0189 24.0417 58.9746 23.9311 58.886 23.8473C58.7973 23.7625 58.6831 23.7201 58.5434 23.7201C58.4474 23.7201 58.3577 23.7457 58.2743 23.7971C58.1919 23.8484 58.1252 23.9196 58.0741 24.0108C58.024 24.1009 57.999 24.2051 57.999 24.3235V25.832H57.6298Z" fill="#4A5157"/>
<path d="M62.4659 25.8823C62.2344 25.8823 62.0347 25.8309 61.8668 25.7283C61.6999 25.6246 61.5711 25.48 61.4804 25.2946C61.3907 25.1081 61.3459 24.8913 61.3459 24.644C61.3459 24.3968 61.3907 24.1789 61.4804 23.9903C61.5711 23.8007 61.6973 23.653 61.859 23.5472C62.0216 23.4403 62.2114 23.3869 62.4284 23.3869C62.5535 23.3869 62.6771 23.4079 62.7991 23.4498C62.9211 23.4917 63.0322 23.5598 63.1323 23.6541C63.2324 23.7473 63.3122 23.8709 63.3717 24.0249C63.4311 24.1789 63.4608 24.3685 63.4608 24.5937V24.7509H61.6087V24.4303H63.0854C63.0854 24.2941 63.0583 24.1726 63.004 24.0658C62.9508 23.9589 62.8747 23.8746 62.7756 23.8128C62.6776 23.751 62.5619 23.7201 62.4284 23.7201C62.2813 23.7201 62.1541 23.7567 62.0467 23.83C61.9403 23.9023 61.8584 23.9966 61.8011 24.1129C61.7437 24.2292 61.715 24.3538 61.715 24.4869V24.7006C61.715 24.8829 61.7463 25.0374 61.8089 25.1642C61.8725 25.2899 61.9606 25.3857 62.0733 25.4517C62.1859 25.5167 62.3168 25.5491 62.4659 25.5491C62.5629 25.5491 62.6505 25.5355 62.7287 25.5083C62.808 25.48 62.8763 25.4381 62.9336 25.3826C62.991 25.326 63.0353 25.2558 63.0666 25.172L63.4233 25.2726C63.3857 25.3941 63.3226 25.501 63.234 25.5931C63.1453 25.6843 63.0358 25.7555 62.9055 25.8069C62.7751 25.8571 62.6286 25.8823 62.4659 25.8823Z" fill="#4A5157"/>
<path d="M64.3916 24.38V25.832H64.0224V23.4183H64.3791V23.7955H64.4104C64.4667 23.6729 64.5522 23.5744 64.6669 23.5001C64.7816 23.4246 64.9297 23.3869 65.1112 23.3869C65.2739 23.3869 65.4162 23.4204 65.5382 23.4875C65.6602 23.5535 65.7551 23.6541 65.8229 23.7892C65.8907 23.9233 65.9246 24.093 65.9246 24.2983V25.832H65.5554V24.3235C65.5554 24.1339 65.5064 23.9861 65.4084 23.8803C65.3104 23.7735 65.1758 23.7201 65.0048 23.7201C64.887 23.7201 64.7816 23.7457 64.6888 23.7971C64.597 23.8484 64.5246 23.9233 64.4714 24.0218C64.4182 24.1202 64.3916 24.2397 64.3916 24.38Z" fill="#4A5157"/>
<path d="M67.6442 23.4183V23.7326H66.399V23.4183H67.6442ZM66.7619 22.8401H67.1311V25.1406C67.1311 25.2453 67.1462 25.3239 67.1765 25.3763C67.2078 25.4276 67.2474 25.4622 67.2954 25.48C67.3444 25.4968 67.396 25.5051 67.4502 25.5051C67.4909 25.5051 67.5243 25.503 67.5503 25.4989C67.5764 25.4936 67.5973 25.4894 67.6129 25.4863L67.688 25.8194C67.663 25.8289 67.628 25.8383 67.5832 25.8477C67.5383 25.8582 67.4815 25.8634 67.4127 25.8634C67.3084 25.8634 67.2062 25.8409 67.1061 25.7959C67.007 25.7508 66.9246 25.6822 66.8589 25.59C66.7943 25.4978 66.7619 25.3815 66.7619 25.2412V22.8401Z" fill="#4A5157"/>
<path d="M69.9829 25.832L69.2508 23.4183H69.6387L70.1581 25.2663H70.1831L70.6962 23.4183H71.0904L71.5972 25.26H71.6223L72.1416 23.4183H72.5296L71.7975 25.832H71.4345L70.9089 23.9778H70.8714L70.3458 25.832H69.9829Z" fill="#4A5157"/>
<path d="M73.0176 25.832V23.4183H73.3868V25.832H73.0176ZM73.2054 23.0161C73.1334 23.0161 73.0714 22.9915 73.0192 22.9422C72.9681 22.893 72.9426 22.8338 72.9426 22.7647C72.9426 22.6955 72.9681 22.6363 73.0192 22.5871C73.0714 22.5378 73.1334 22.5132 73.2054 22.5132C73.2773 22.5132 73.3388 22.5378 73.3899 22.5871C73.4421 22.6363 73.4682 22.6955 73.4682 22.7647C73.4682 22.8338 73.4421 22.893 73.3899 22.9422C73.3388 22.9915 73.2773 23.0161 73.2054 23.0161Z" fill="#4A5157"/>
<path d="M75.108 23.4183V23.7326H73.8628V23.4183H75.108ZM74.2257 22.8401H74.5949V25.1406C74.5949 25.2453 74.61 25.3239 74.6402 25.3763C74.6715 25.4276 74.7111 25.4622 74.7591 25.48C74.8081 25.4968 74.8597 25.5051 74.914 25.5051C74.9547 25.5051 74.988 25.503 75.0141 25.4989C75.0402 25.4936 75.061 25.4894 75.0767 25.4863L75.1518 25.8194C75.1267 25.8289 75.0918 25.8383 75.0469 25.8477C75.0021 25.8582 74.9453 25.8634 74.8764 25.8634C74.7721 25.8634 74.6699 25.8409 74.5698 25.7959C74.4708 25.7508 74.3884 25.6822 74.3227 25.59C74.258 25.4978 74.2257 25.3815 74.2257 25.2412V22.8401Z" fill="#4A5157"/>
<path d="M76.0841 24.38V25.832H75.7149V22.6138H76.0841V23.7955H76.1154C76.1717 23.6708 76.2562 23.5718 76.3688 23.4985C76.4825 23.4241 76.6337 23.3869 76.8225 23.3869C76.9862 23.3869 77.1296 23.4199 77.2526 23.4859C77.3757 23.5509 77.4711 23.6509 77.5389 23.7861C77.6077 23.9201 77.6422 24.0909 77.6422 24.2983V25.832H77.273V24.3235C77.273 24.1318 77.2234 23.9835 77.1244 23.8788C77.0263 23.773 76.8902 23.7201 76.7161 23.7201C76.5951 23.7201 76.4866 23.7457 76.3907 23.7971C76.2958 23.8484 76.2207 23.9233 76.1654 24.0218C76.1112 24.1202 76.0841 24.2397 76.0841 24.38Z" fill="#4A5157"/>
<path d="M79.738 25.832H79.3312L80.5076 22.6138H80.9081L82.0844 25.832H81.6777L80.7203 23.1229H80.6953L79.738 25.832ZM79.8881 24.5749H81.5275V24.9206H79.8881V24.5749Z" fill="#4A5157"/>
<path d="M82.9714 22.6138V25.832H82.5835V22.6138H82.9714Z" fill="#4A5157"/>
</g>
</svg>
