<svg width="52" height="53" viewBox="0 0 52 53" fill="none" xmlns="http://www.w3.org/2000/svg">
<g filter="url(#filter0_d_0_2038)">
<rect x="5" y="5.5" width="40" height="40" rx="12" fill="white" shape-rendering="crispEdges"/>
<g opacity="0.4">
<path d="M29.9834 24.4917V27.825C29.9834 28.0417 29.975 28.25 29.95 28.45C29.7584 30.7 28.4334 31.8167 25.9917 31.8167H25.6584C25.45 31.8167 25.25 31.9167 25.125 32.0833L24.125 33.4167C23.6834 34.0083 22.9667 34.0083 22.525 33.4167L21.525 32.0833C21.4167 31.9417 21.175 31.8167 20.9917 31.8167H20.6584C18 31.8167 16.6667 31.1583 16.6667 27.825V24.4917C16.6667 22.05 17.7917 20.725 20.0334 20.5333C20.2334 20.5083 20.4417 20.5 20.6584 20.5H25.9917C28.65 20.5 29.9834 21.8333 29.9834 24.4917Z" fill="url(#paint0_linear_0_2038)"/>
<path d="M29.9834 24.4917V27.825C29.9834 28.0417 29.975 28.25 29.95 28.45C29.7584 30.7 28.4334 31.8167 25.9917 31.8167H25.6584C25.45 31.8167 25.25 31.9167 25.125 32.0833L24.125 33.4167C23.6834 34.0083 22.9667 34.0083 22.525 33.4167L21.525 32.0833C21.4167 31.9417 21.175 31.8167 20.9917 31.8167H20.6584C18 31.8167 16.6667 31.1583 16.6667 27.825V24.4917C16.6667 22.05 17.7917 20.725 20.0334 20.5333C20.2334 20.5083 20.4417 20.5 20.6584 20.5H25.9917C28.65 20.5 29.9834 21.8333 29.9834 24.4917Z" fill="url(#paint1_linear_0_2038)"/>
</g>
<path d="M23.325 27.1667C22.8583 27.1667 22.4916 26.7917 22.4916 26.3333C22.4916 25.875 22.8666 25.5 23.325 25.5C23.7833 25.5 24.1583 25.875 24.1583 26.3333C24.1583 26.7917 23.7916 27.1667 23.325 27.1667Z" fill="url(#paint2_linear_0_2038)"/>
<path d="M23.325 27.1667C22.8583 27.1667 22.4916 26.7917 22.4916 26.3333C22.4916 25.875 22.8666 25.5 23.325 25.5C23.7833 25.5 24.1583 25.875 24.1583 26.3333C24.1583 26.7917 23.7916 27.1667 23.325 27.1667Z" fill="url(#paint3_linear_0_2038)"/>
<path d="M26.2417 27.1667C25.775 27.1667 25.4083 26.7917 25.4083 26.3333C25.4083 25.875 25.7833 25.5 26.2417 25.5C26.7 25.5 27.075 25.875 27.075 26.3333C27.075 26.7917 26.7 27.1667 26.2417 27.1667Z" fill="url(#paint4_linear_0_2038)"/>
<path d="M26.2417 27.1667C25.775 27.1667 25.4083 26.7917 25.4083 26.3333C25.4083 25.875 25.7833 25.5 26.2417 25.5C26.7 25.5 27.075 25.875 27.075 26.3333C27.075 26.7917 26.7 27.1667 26.2417 27.1667Z" fill="url(#paint5_linear_0_2038)"/>
<path d="M20.4166 27.1667C19.95 27.1667 19.5833 26.7917 19.5833 26.3333C19.5833 25.875 19.9583 25.5 20.4166 25.5C20.875 25.5 21.25 25.875 21.25 26.3333C21.25 26.7917 20.875 27.1667 20.4166 27.1667Z" fill="url(#paint6_linear_0_2038)"/>
<path d="M20.4166 27.1667C19.95 27.1667 19.5833 26.7917 19.5833 26.3333C19.5833 25.875 19.9583 25.5 20.4166 25.5C20.875 25.5 21.25 25.875 21.25 26.3333C21.25 26.7917 20.875 27.1667 20.4166 27.1667Z" fill="url(#paint7_linear_0_2038)"/>
<path d="M33.3167 21.1583V24.4917C33.3167 26.9417 32.1917 28.2583 29.95 28.45C29.975 28.25 29.9833 28.0417 29.9833 27.825V24.4917C29.9833 21.8333 28.65 20.5 25.9917 20.5H20.6583C20.4417 20.5 20.2333 20.5083 20.0333 20.5333C20.225 18.2917 21.55 17.1667 23.9917 17.1667H29.325C31.9833 17.1667 33.3167 18.5 33.3167 21.1583Z" fill="url(#paint8_linear_0_2038)"/>
<path d="M33.3167 21.1583V24.4917C33.3167 26.9417 32.1917 28.2583 29.95 28.45C29.975 28.25 29.9833 28.0417 29.9833 27.825V24.4917C29.9833 21.8333 28.65 20.5 25.9917 20.5H20.6583C20.4417 20.5 20.2333 20.5083 20.0333 20.5333C20.225 18.2917 21.55 17.1667 23.9917 17.1667H29.325C31.9833 17.1667 33.3167 18.5 33.3167 21.1583Z" fill="url(#paint9_linear_0_2038)"/>
</g>
<defs>
<filter id="filter0_d_0_2038" x="0" y="0.5" width="52" height="52" filterUnits="userSpaceOnUse" color-interpolation-filters="sRGB">
<feFlood flood-opacity="0" result="BackgroundImageFix"/>
<feColorMatrix in="SourceAlpha" type="matrix" values="0 0 0 0 0 0 0 0 0 0 0 0 0 0 0 0 0 0 127 0" result="hardAlpha"/>
<feOffset dx="1" dy="1"/>
<feGaussianBlur stdDeviation="3"/>
<feComposite in2="hardAlpha" operator="out"/>
<feColorMatrix type="matrix" values="0 0 0 0 0 0 0 0 0 0 0 0 0 0 0 0 0 0 0.07 0"/>
<feBlend mode="normal" in2="BackgroundImageFix" result="effect1_dropShadow_0_2038"/>
<feBlend mode="normal" in="SourceGraphic" in2="effect1_dropShadow_0_2038" result="shape"/>
</filter>
<linearGradient id="paint0_linear_0_2038" x1="16.6667" y1="20.5" x2="31.3566" y2="22.2353" gradientUnits="userSpaceOnUse">
<stop stop-color="#BE68FC"/>
<stop offset="1" stop-color="#9D19FF"/>
</linearGradient>
<linearGradient id="paint1_linear_0_2038" x1="16.6667" y1="20.5" x2="31.3566" y2="22.2353" gradientUnits="userSpaceOnUse">
<stop stop-color="#7D54F3"/>
<stop offset="1" stop-color="#CEBCFF"/>
</linearGradient>
<linearGradient id="paint2_linear_0_2038" x1="22.4916" y1="25.5" x2="24.33" y2="25.7179" gradientUnits="userSpaceOnUse">
<stop stop-color="#BE68FC"/>
<stop offset="1" stop-color="#9D19FF"/>
</linearGradient>
<linearGradient id="paint3_linear_0_2038" x1="22.4916" y1="25.5" x2="24.33" y2="25.7179" gradientUnits="userSpaceOnUse">
<stop stop-color="#7D54F3"/>
<stop offset="1" stop-color="#CEBCFF"/>
</linearGradient>
<linearGradient id="paint4_linear_0_2038" x1="25.4083" y1="25.5" x2="27.2467" y2="25.7179" gradientUnits="userSpaceOnUse">
<stop stop-color="#BE68FC"/>
<stop offset="1" stop-color="#9D19FF"/>
</linearGradient>
<linearGradient id="paint5_linear_0_2038" x1="25.4083" y1="25.5" x2="27.2467" y2="25.7179" gradientUnits="userSpaceOnUse">
<stop stop-color="#7D54F3"/>
<stop offset="1" stop-color="#CEBCFF"/>
</linearGradient>
<linearGradient id="paint6_linear_0_2038" x1="19.5833" y1="25.5" x2="21.4217" y2="25.7179" gradientUnits="userSpaceOnUse">
<stop stop-color="#BE68FC"/>
<stop offset="1" stop-color="#9D19FF"/>
</linearGradient>
<linearGradient id="paint7_linear_0_2038" x1="19.5833" y1="25.5" x2="21.4217" y2="25.7179" gradientUnits="userSpaceOnUse">
<stop stop-color="#7D54F3"/>
<stop offset="1" stop-color="#CEBCFF"/>
</linearGradient>
<linearGradient id="paint8_linear_0_2038" x1="20.0333" y1="17.1667" x2="34.6072" y2="19.2001" gradientUnits="userSpaceOnUse">
<stop stop-color="#BE68FC"/>
<stop offset="1" stop-color="#9D19FF"/>
</linearGradient>
<linearGradient id="paint9_linear_0_2038" x1="20.0333" y1="17.1667" x2="34.6072" y2="19.2001" gradientUnits="userSpaceOnUse">
<stop stop-color="#7D54F3"/>
<stop offset="1" stop-color="#CEBCFF"/>
</linearGradient>
</defs>
</svg>
