<svg width="52" height="53" viewBox="0 0 52 53" fill="none" xmlns="http://www.w3.org/2000/svg">
<g filter="url(#filter0_d_0_2036)">
<rect x="5" y="5.5" width="40" height="40" rx="12" fill="white" shape-rendering="crispEdges"/>
<g opacity="0.4">
<path d="M32 29.1083C31.7667 29.7333 31.275 30.2083 30.6334 30.425C29.7334 30.725 28.8084 30.95 27.875 31.1083C27.7834 31.125 27.6917 31.1417 27.6 31.15C27.45 31.175 27.3 31.1917 27.15 31.2083C26.9667 31.2333 26.775 31.25 26.5834 31.2667C26.0584 31.3083 25.5417 31.3333 25.0167 31.3333C24.4834 31.3333 23.95 31.3083 23.425 31.2583C23.2 31.2417 22.9834 31.2167 22.7667 31.1833C22.6417 31.1667 22.5167 31.15 22.4 31.1333C22.3084 31.1167 22.2167 31.1083 22.125 31.0917C21.2 30.9417 20.2834 30.7167 19.3917 30.4167C18.725 30.1917 18.2167 29.7167 17.9917 29.1083C17.7667 28.5083 17.85 27.8083 18.2084 27.2083L19.15 25.6417C19.35 25.3 19.5334 24.6417 19.5334 24.2417V22.6917C19.5334 19.6667 21.9917 17.2083 25.0167 17.2083C28.0334 17.2083 30.4917 19.6667 30.4917 22.6917V24.2417C30.4917 24.6417 30.675 25.3 30.8834 25.6417L31.825 27.2083C32.1667 27.7917 32.2334 28.475 32 29.1083Z" fill="url(#paint0_linear_0_2036)"/>
<path d="M32 29.1083C31.7667 29.7333 31.275 30.2083 30.6334 30.425C29.7334 30.725 28.8084 30.95 27.875 31.1083C27.7834 31.125 27.6917 31.1417 27.6 31.15C27.45 31.175 27.3 31.1917 27.15 31.2083C26.9667 31.2333 26.775 31.25 26.5834 31.2667C26.0584 31.3083 25.5417 31.3333 25.0167 31.3333C24.4834 31.3333 23.95 31.3083 23.425 31.2583C23.2 31.2417 22.9834 31.2167 22.7667 31.1833C22.6417 31.1667 22.5167 31.15 22.4 31.1333C22.3084 31.1167 22.2167 31.1083 22.125 31.0917C21.2 30.9417 20.2834 30.7167 19.3917 30.4167C18.725 30.1917 18.2167 29.7167 17.9917 29.1083C17.7667 28.5083 17.85 27.8083 18.2084 27.2083L19.15 25.6417C19.35 25.3 19.5334 24.6417 19.5334 24.2417V22.6917C19.5334 19.6667 21.9917 17.2083 25.0167 17.2083C28.0334 17.2083 30.4917 19.6667 30.4917 22.6917V24.2417C30.4917 24.6417 30.675 25.3 30.8834 25.6417L31.825 27.2083C32.1667 27.7917 32.2334 28.475 32 29.1083Z" fill="url(#paint1_linear_0_2036)"/>
</g>
<path d="M25 24.4667C24.65 24.4667 24.3666 24.1833 24.3666 23.8333V21.25C24.3666 20.9 24.65 20.6167 25 20.6167C25.35 20.6167 25.6333 20.9 25.6333 21.25V23.8333C25.625 24.1833 25.3416 24.4667 25 24.4667Z" fill="url(#paint2_linear_0_2036)"/>
<path d="M25 24.4667C24.65 24.4667 24.3666 24.1833 24.3666 23.8333V21.25C24.3666 20.9 24.65 20.6167 25 20.6167C25.35 20.6167 25.6333 20.9 25.6333 21.25V23.8333C25.625 24.1833 25.3416 24.4667 25 24.4667Z" fill="url(#paint3_linear_0_2036)"/>
<path d="M27.3584 32.175C27.0084 33.1417 26.0834 33.8333 25 33.8333C24.3417 33.8333 23.6917 33.5667 23.2334 33.0917C22.9667 32.8417 22.7667 32.5083 22.65 32.1667C22.7584 32.1833 22.8667 32.1917 22.9834 32.2083C23.175 32.2333 23.375 32.2583 23.575 32.275C24.05 32.3167 24.5334 32.3417 25.0167 32.3417C25.4917 32.3417 25.9667 32.3167 26.4334 32.275C26.6084 32.2583 26.7834 32.25 26.95 32.225C27.0834 32.2083 27.2167 32.1917 27.3584 32.175Z" fill="url(#paint4_linear_0_2036)"/>
<path d="M27.3584 32.175C27.0084 33.1417 26.0834 33.8333 25 33.8333C24.3417 33.8333 23.6917 33.5667 23.2334 33.0917C22.9667 32.8417 22.7667 32.5083 22.65 32.1667C22.7584 32.1833 22.8667 32.1917 22.9834 32.2083C23.175 32.2333 23.375 32.2583 23.575 32.275C24.05 32.3167 24.5334 32.3417 25.0167 32.3417C25.4917 32.3417 25.9667 32.3167 26.4334 32.275C26.6084 32.2583 26.7834 32.25 26.95 32.225C27.0834 32.2083 27.2167 32.1917 27.3584 32.175Z" fill="url(#paint5_linear_0_2036)"/>
</g>
<defs>
<filter id="filter0_d_0_2036" x="0" y="0.5" width="52" height="52" filterUnits="userSpaceOnUse" color-interpolation-filters="sRGB">
<feFlood flood-opacity="0" result="BackgroundImageFix"/>
<feColorMatrix in="SourceAlpha" type="matrix" values="0 0 0 0 0 0 0 0 0 0 0 0 0 0 0 0 0 0 127 0" result="hardAlpha"/>
<feOffset dx="1" dy="1"/>
<feGaussianBlur stdDeviation="3"/>
<feComposite in2="hardAlpha" operator="out"/>
<feColorMatrix type="matrix" values="0 0 0 0 0 0 0 0 0 0 0 0 0 0 0 0 0 0 0.07 0"/>
<feBlend mode="normal" in2="BackgroundImageFix" result="effect1_dropShadow_0_2036"/>
<feBlend mode="normal" in="SourceGraphic" in2="effect1_dropShadow_0_2036" result="shape"/>
</filter>
<linearGradient id="paint0_linear_0_2036" x1="17.8669" y1="17.2083" x2="33.6033" y2="19.0926" gradientUnits="userSpaceOnUse">
<stop stop-color="#BE68FC"/>
<stop offset="1" stop-color="#9D19FF"/>
</linearGradient>
<linearGradient id="paint1_linear_0_2036" x1="17.8669" y1="17.2083" x2="33.6033" y2="19.0926" gradientUnits="userSpaceOnUse">
<stop stop-color="#7D54F3"/>
<stop offset="1" stop-color="#CEBCFF"/>
</linearGradient>
<linearGradient id="paint2_linear_0_2036" x1="24.3666" y1="20.6167" x2="25.7813" y2="20.6718" gradientUnits="userSpaceOnUse">
<stop stop-color="#BE68FC"/>
<stop offset="1" stop-color="#9D19FF"/>
</linearGradient>
<linearGradient id="paint3_linear_0_2036" x1="24.3666" y1="20.6167" x2="25.7813" y2="20.6718" gradientUnits="userSpaceOnUse">
<stop stop-color="#7D54F3"/>
<stop offset="1" stop-color="#CEBCFF"/>
</linearGradient>
<linearGradient id="paint4_linear_0_2036" x1="22.65" y1="32.1667" x2="27.3855" y2="33.7522" gradientUnits="userSpaceOnUse">
<stop stop-color="#BE68FC"/>
<stop offset="1" stop-color="#9D19FF"/>
</linearGradient>
<linearGradient id="paint5_linear_0_2036" x1="22.65" y1="32.1667" x2="27.3855" y2="33.7522" gradientUnits="userSpaceOnUse">
<stop stop-color="#7D54F3"/>
<stop offset="1" stop-color="#CEBCFF"/>
</linearGradient>
</defs>
</svg>
