<svg width="40" height="40" viewBox="0 0 40 40" fill="none" xmlns="http://www.w3.org/2000/svg">
<path opacity="0.4" d="M35.15 35.8333C35.15 36.3 34.7833 36.6667 34.3167 36.6667H5.68334C5.21667 36.6667 4.85001 36.3 4.85001 35.8333C4.85001 28.9333 11.65 23.3333 20 23.3333C21.7167 23.3333 23.3834 23.5666 24.9167 24.0166C23.9334 25.1833 23.3333 26.7 23.3333 28.3333C23.3333 29.5833 23.6833 30.7667 24.3 31.7667C24.6333 32.3333 25.0667 32.85 25.5667 33.2833C26.7333 34.35 28.2833 35 30 35C31.8667 35 33.55 34.2333 34.75 33C35.0167 33.9 35.15 34.85 35.15 35.8333Z" fill="url(#paint0_linear_0_2103)"/>
<path d="M34.95 23.8834C33.75 22.5167 31.9667 21.6667 30 21.6667C28.1333 21.6667 26.4334 22.4334 25.2167 23.6834C24.05 24.8834 23.3333 26.5333 23.3333 28.3333C23.3333 29.5833 23.6833 30.7667 24.3 31.7667C24.6333 32.3333 25.0667 32.8499 25.5667 33.2833C26.7333 34.3499 28.2833 35 30 35C32.4333 35 34.55 33.7 35.7 31.7667C36.05 31.2 36.3167 30.55 36.4667 29.8833C36.6 29.3833 36.6667 28.8667 36.6667 28.3333C36.6667 26.6333 36.0167 25.0667 34.95 23.8834ZM32.5 29.55H31.25V30.85C31.25 31.5333 30.6833 32.1 30 32.1C29.3167 32.1 28.75 31.5333 28.75 30.85V29.55H27.5C26.8167 29.55 26.25 28.9833 26.25 28.3C26.25 27.6166 26.8167 27.05 27.5 27.05H28.75V25.8667C28.75 25.1834 29.3167 24.6167 30 24.6167C30.6833 24.6167 31.25 25.1834 31.25 25.8667V27.05H32.5C33.1833 27.05 33.75 27.6166 33.75 28.3C33.75 28.9833 33.1833 29.55 32.5 29.55Z" fill="url(#paint1_linear_0_2103)"/>
<path d="M20 20C24.6024 20 28.3333 16.269 28.3333 11.6667C28.3333 7.0643 24.6024 3.33334 20 3.33334C15.3976 3.33334 11.6667 7.0643 11.6667 11.6667C11.6667 16.269 15.3976 20 20 20Z" fill="url(#paint2_linear_0_2103)"/>
<defs>
<linearGradient id="paint0_linear_0_2103" x1="4.85001" y1="23.3333" x2="36.4489" y2="31.8438" gradientUnits="userSpaceOnUse">
<stop stop-color="#7D54F3"/>
<stop offset="1" stop-color="#CEBCFF"/>
</linearGradient>
<linearGradient id="paint1_linear_0_2103" x1="23.3333" y1="21.6667" x2="38.0403" y2="23.4097" gradientUnits="userSpaceOnUse">
<stop stop-color="#7D54F3"/>
<stop offset="1" stop-color="#CEBCFF"/>
</linearGradient>
<linearGradient id="paint2_linear_0_2103" x1="11.6667" y1="3.33334" x2="30.0504" y2="5.51212" gradientUnits="userSpaceOnUse">
<stop stop-color="#7D54F3"/>
<stop offset="1" stop-color="#CEBCFF"/>
</linearGradient>
</defs>
</svg>
